%TF.GenerationSoftware,KiCad,Pcbnew,8.0.1*%
%TF.CreationDate,2024-04-17T15:42:03-07:00*%
%TF.ProjectId,LuliHydroponics,4c756c69-4879-4647-926f-706f6e696373,rev?*%
%TF.SameCoordinates,Original*%
%TF.FileFunction,Soldermask,Top*%
%TF.FilePolarity,Negative*%
%FSLAX46Y46*%
G04 Gerber Fmt 4.6, Leading zero omitted, Abs format (unit mm)*
G04 Created by KiCad (PCBNEW 8.0.1) date 2024-04-17 15:42:03*
%MOMM*%
%LPD*%
G01*
G04 APERTURE LIST*
%ADD10C,3.000000*%
%ADD11R,3.000000X3.000000*%
%ADD12C,1.700000*%
%ADD13C,1.400000*%
%ADD14O,1.400000X1.400000*%
%ADD15R,1.905000X2.000000*%
%ADD16O,1.905000X2.000000*%
%ADD17R,3.500000X1.700000*%
%ADD18O,1.700000X1.700000*%
%ADD19R,1.700000X1.700000*%
%ADD20R,1.700000X3.500000*%
%ADD21O,1.800000X1.800000*%
%ADD22O,1.500000X1.500000*%
%ADD23O,2.200000X2.200000*%
%ADD24R,2.200000X2.200000*%
%ADD25C,1.600000*%
%ADD26R,1.600000X1.600000*%
G04 APERTURE END LIST*
D10*
%TO.C,J10*%
X38000000Y-104160000D03*
X38000000Y-99080000D03*
X38000000Y-94000000D03*
D11*
X38000000Y-88920000D03*
%TD*%
D10*
%TO.C,J9*%
X168000000Y-127000000D03*
D11*
X168000000Y-121920000D03*
%TD*%
D12*
%TO.C,U9*%
X104460000Y-145000000D03*
X106960000Y-145000000D03*
X109460000Y-145000000D03*
X111960000Y-145000000D03*
X114460000Y-145000000D03*
X116960000Y-145000000D03*
%TD*%
D10*
%TO.C,J8*%
X156540000Y-145000000D03*
D11*
X151460000Y-145000000D03*
%TD*%
D10*
%TO.C,U4*%
X168160000Y-66580000D03*
X168160000Y-61500000D03*
D11*
X168160000Y-56420000D03*
%TD*%
D10*
%TO.C,J3*%
X75080000Y-145000000D03*
D11*
X80160000Y-145000000D03*
%TD*%
D13*
%TO.C,R1*%
X71220000Y-64000000D03*
D14*
X68680000Y-64000000D03*
%TD*%
D11*
%TO.C,J5*%
X53825000Y-145000000D03*
D10*
X48745000Y-145000000D03*
%TD*%
%TO.C,J1*%
X47620000Y-30500000D03*
D11*
X42540000Y-30500000D03*
%TD*%
D15*
%TO.C,Q1*%
X68500000Y-57000000D03*
D16*
X71040000Y-57000000D03*
X73580000Y-57000000D03*
%TD*%
D10*
%TO.C,U6*%
X168160000Y-106580000D03*
X168160000Y-101500000D03*
D11*
X168160000Y-96420000D03*
%TD*%
D10*
%TO.C,J4*%
X62580000Y-145000000D03*
D11*
X67660000Y-145000000D03*
%TD*%
D10*
%TO.C,U3*%
X168160000Y-47500000D03*
X168160000Y-42420000D03*
D11*
X168160000Y-37340000D03*
%TD*%
D10*
%TO.C,J2*%
X108410000Y-30000000D03*
D11*
X103330000Y-30000000D03*
%TD*%
D17*
%TO.C,U1*%
X110910000Y-97570000D03*
D18*
X110010000Y-97570000D03*
D17*
X110910000Y-100110000D03*
D19*
X110010000Y-100110000D03*
D17*
X110910000Y-102650000D03*
D18*
X110010000Y-102650000D03*
D20*
X61980000Y-90320000D03*
D18*
X61980000Y-91220000D03*
D20*
X64520000Y-90320000D03*
D18*
X64520000Y-91220000D03*
D20*
X67060000Y-90320000D03*
D19*
X67060000Y-91220000D03*
D20*
X69600000Y-90320000D03*
D18*
X69600000Y-91220000D03*
D20*
X72140000Y-90320000D03*
D18*
X72140000Y-91220000D03*
D20*
X74680000Y-90320000D03*
D18*
X74680000Y-91220000D03*
D20*
X77220000Y-90320000D03*
D18*
X77220000Y-91220000D03*
D20*
X79760000Y-90320000D03*
D19*
X79760000Y-91220000D03*
D20*
X82300000Y-90320000D03*
D18*
X82300000Y-91220000D03*
D20*
X84840000Y-90320000D03*
D18*
X84840000Y-91220000D03*
D20*
X87380000Y-90320000D03*
D18*
X87380000Y-91220000D03*
D20*
X89920000Y-90320000D03*
D18*
X89920000Y-91220000D03*
D20*
X92460000Y-90320000D03*
D19*
X92460000Y-91220000D03*
D20*
X95000000Y-90320000D03*
D18*
X95000000Y-91220000D03*
D20*
X97540000Y-90320000D03*
D18*
X97540000Y-91220000D03*
D20*
X100080000Y-90320000D03*
D18*
X100080000Y-91220000D03*
D20*
X102620000Y-90320000D03*
D18*
X102620000Y-91220000D03*
D20*
X105160000Y-90320000D03*
D19*
X105160000Y-91220000D03*
D20*
X107700000Y-90320000D03*
D18*
X107700000Y-91220000D03*
D20*
X110240000Y-90320000D03*
D18*
X110240000Y-91220000D03*
D20*
X110240000Y-109900000D03*
D18*
X110240000Y-109000000D03*
D20*
X107700000Y-109900000D03*
D18*
X107700000Y-109000000D03*
D20*
X105160000Y-109900000D03*
D19*
X105160000Y-109000000D03*
D20*
X102620000Y-109900000D03*
D18*
X102620000Y-109000000D03*
D20*
X100080000Y-109900000D03*
D18*
X100080000Y-109000000D03*
D20*
X97540000Y-109900000D03*
D18*
X97540000Y-109000000D03*
D20*
X95000000Y-109900000D03*
D18*
X95000000Y-109000000D03*
D20*
X92460000Y-109900000D03*
D19*
X92460000Y-109000000D03*
D20*
X89920000Y-109900000D03*
D18*
X89920000Y-109000000D03*
D20*
X87380000Y-109900000D03*
D18*
X87380000Y-109000000D03*
D20*
X84840000Y-109900000D03*
D18*
X84840000Y-109000000D03*
D20*
X82300000Y-109900000D03*
D18*
X82300000Y-109000000D03*
D20*
X79760000Y-109900000D03*
D19*
X79760000Y-109000000D03*
D20*
X77220000Y-109900000D03*
D18*
X77220000Y-109000000D03*
D20*
X74680000Y-109900000D03*
D18*
X74680000Y-109000000D03*
D20*
X72140000Y-109900000D03*
D18*
X72140000Y-109000000D03*
D20*
X69600000Y-109900000D03*
D18*
X69600000Y-109000000D03*
D20*
X67060000Y-109900000D03*
D19*
X67060000Y-109000000D03*
D20*
X64520000Y-109900000D03*
D18*
X64520000Y-109000000D03*
D20*
X61980000Y-109900000D03*
D18*
X61980000Y-109000000D03*
D21*
X62110000Y-97385000D03*
D22*
X65140000Y-97685000D03*
X65140000Y-102535000D03*
D21*
X62110000Y-102835000D03*
%TD*%
D14*
%TO.C,R3*%
X158160000Y-59000000D03*
D13*
X158160000Y-56460000D03*
%TD*%
D10*
%TO.C,J7*%
X136960000Y-145000000D03*
D11*
X142040000Y-145000000D03*
%TD*%
D14*
%TO.C,R4*%
X158160000Y-78500000D03*
D13*
X158160000Y-75960000D03*
%TD*%
%TO.C,R5*%
X158160000Y-96460000D03*
D14*
X158160000Y-99000000D03*
%TD*%
D12*
%TO.C,U2*%
X137750000Y-73810000D03*
X135250000Y-73810000D03*
X132750000Y-73810000D03*
X130250000Y-73810000D03*
X127750000Y-73810000D03*
X125250000Y-73810000D03*
X122750000Y-73810000D03*
X120250000Y-73810000D03*
X120250000Y-66190000D03*
X122750000Y-66190000D03*
X125250000Y-66190000D03*
X127750000Y-66190000D03*
X130250000Y-66190000D03*
X132750000Y-66190000D03*
X135250000Y-66190000D03*
X137750000Y-66190000D03*
%TD*%
D11*
%TO.C,J6*%
X40160000Y-145000000D03*
D10*
X35080000Y-145000000D03*
%TD*%
%TO.C,M1*%
X72620000Y-30000000D03*
D11*
X67540000Y-30000000D03*
%TD*%
D16*
%TO.C,Q2*%
X47660000Y-55500000D03*
X45120000Y-55500000D03*
D15*
X42580000Y-55500000D03*
%TD*%
D23*
%TO.C,D1*%
X75740000Y-45500000D03*
D24*
X65580000Y-45500000D03*
%TD*%
D14*
%TO.C,R2*%
X158160000Y-39780000D03*
D13*
X158160000Y-37240000D03*
%TD*%
D25*
%TO.C,C1*%
X104080000Y-43000000D03*
D26*
X106580000Y-43000000D03*
%TD*%
D10*
%TO.C,U5*%
X168160000Y-86000000D03*
X168160000Y-80920000D03*
D11*
X168160000Y-75840000D03*
%TD*%
M02*
