%TF.GenerationSoftware,KiCad,Pcbnew,8.0.1*%
%TF.CreationDate,2024-04-17T15:42:03-07:00*%
%TF.ProjectId,LuliHydroponics,4c756c69-4879-4647-926f-706f6e696373,rev?*%
%TF.SameCoordinates,Original*%
%TF.FileFunction,Legend,Bot*%
%TF.FilePolarity,Positive*%
%FSLAX46Y46*%
G04 Gerber Fmt 4.6, Leading zero omitted, Abs format (unit mm)*
G04 Created by KiCad (PCBNEW 8.0.1) date 2024-04-17 15:42:03*
%MOMM*%
%LPD*%
G01*
G04 APERTURE LIST*
%ADD10C,0.150000*%
%ADD11C,0.120000*%
G04 APERTURE END LIST*
D10*
X32654819Y-95710476D02*
X33369104Y-95710476D01*
X33369104Y-95710476D02*
X33511961Y-95662857D01*
X33511961Y-95662857D02*
X33607200Y-95567619D01*
X33607200Y-95567619D02*
X33654819Y-95424762D01*
X33654819Y-95424762D02*
X33654819Y-95329524D01*
X33654819Y-96710476D02*
X33654819Y-96139048D01*
X33654819Y-96424762D02*
X32654819Y-96424762D01*
X32654819Y-96424762D02*
X32797676Y-96329524D01*
X32797676Y-96329524D02*
X32892914Y-96234286D01*
X32892914Y-96234286D02*
X32940533Y-96139048D01*
X32654819Y-97329524D02*
X32654819Y-97424762D01*
X32654819Y-97424762D02*
X32702438Y-97520000D01*
X32702438Y-97520000D02*
X32750057Y-97567619D01*
X32750057Y-97567619D02*
X32845295Y-97615238D01*
X32845295Y-97615238D02*
X33035771Y-97662857D01*
X33035771Y-97662857D02*
X33273866Y-97662857D01*
X33273866Y-97662857D02*
X33464342Y-97615238D01*
X33464342Y-97615238D02*
X33559580Y-97567619D01*
X33559580Y-97567619D02*
X33607200Y-97520000D01*
X33607200Y-97520000D02*
X33654819Y-97424762D01*
X33654819Y-97424762D02*
X33654819Y-97329524D01*
X33654819Y-97329524D02*
X33607200Y-97234286D01*
X33607200Y-97234286D02*
X33559580Y-97186667D01*
X33559580Y-97186667D02*
X33464342Y-97139048D01*
X33464342Y-97139048D02*
X33273866Y-97091429D01*
X33273866Y-97091429D02*
X33035771Y-97091429D01*
X33035771Y-97091429D02*
X32845295Y-97139048D01*
X32845295Y-97139048D02*
X32750057Y-97186667D01*
X32750057Y-97186667D02*
X32702438Y-97234286D01*
X32702438Y-97234286D02*
X32654819Y-97329524D01*
D11*
%TO.C,J10*%
X34190000Y-106700000D02*
X41810000Y-106700000D01*
X40540000Y-86380000D02*
X40540000Y-106700000D01*
X41810000Y-106700000D02*
X41810000Y-86380000D01*
X34190000Y-106700000D02*
X34190000Y-86380000D01*
X41810000Y-86380000D02*
X34190000Y-86380000D01*
%TD*%
M02*
