%TF.GenerationSoftware,KiCad,Pcbnew,8.0.1*%
%TF.CreationDate,2024-04-17T15:42:03-07:00*%
%TF.ProjectId,LuliHydroponics,4c756c69-4879-4647-926f-706f6e696373,rev?*%
%TF.SameCoordinates,Original*%
%TF.FileFunction,Legend,Top*%
%TF.FilePolarity,Positive*%
%FSLAX46Y46*%
G04 Gerber Fmt 4.6, Leading zero omitted, Abs format (unit mm)*
G04 Created by KiCad (PCBNEW 8.0.1) date 2024-04-17 15:42:03*
%MOMM*%
%LPD*%
G01*
G04 APERTURE LIST*
%ADD10C,0.150000*%
%ADD11C,0.100000*%
%ADD12C,0.120000*%
G04 APERTURE END LIST*
D10*
X172534819Y-124793333D02*
X173249104Y-124793333D01*
X173249104Y-124793333D02*
X173391961Y-124840952D01*
X173391961Y-124840952D02*
X173487200Y-124936190D01*
X173487200Y-124936190D02*
X173534819Y-125079047D01*
X173534819Y-125079047D02*
X173534819Y-125174285D01*
X173534819Y-124269523D02*
X173534819Y-124079047D01*
X173534819Y-124079047D02*
X173487200Y-123983809D01*
X173487200Y-123983809D02*
X173439580Y-123936190D01*
X173439580Y-123936190D02*
X173296723Y-123840952D01*
X173296723Y-123840952D02*
X173106247Y-123793333D01*
X173106247Y-123793333D02*
X172725295Y-123793333D01*
X172725295Y-123793333D02*
X172630057Y-123840952D01*
X172630057Y-123840952D02*
X172582438Y-123888571D01*
X172582438Y-123888571D02*
X172534819Y-123983809D01*
X172534819Y-123983809D02*
X172534819Y-124174285D01*
X172534819Y-124174285D02*
X172582438Y-124269523D01*
X172582438Y-124269523D02*
X172630057Y-124317142D01*
X172630057Y-124317142D02*
X172725295Y-124364761D01*
X172725295Y-124364761D02*
X172963390Y-124364761D01*
X172963390Y-124364761D02*
X173058628Y-124317142D01*
X173058628Y-124317142D02*
X173106247Y-124269523D01*
X173106247Y-124269523D02*
X173153866Y-124174285D01*
X173153866Y-124174285D02*
X173153866Y-123983809D01*
X173153866Y-123983809D02*
X173106247Y-123888571D01*
X173106247Y-123888571D02*
X173058628Y-123840952D01*
X173058628Y-123840952D02*
X172963390Y-123793333D01*
D11*
X113002580Y-144238095D02*
X112193057Y-144238095D01*
X112193057Y-144238095D02*
X112097819Y-144285714D01*
X112097819Y-144285714D02*
X112050200Y-144333333D01*
X112050200Y-144333333D02*
X112002580Y-144428571D01*
X112002580Y-144428571D02*
X112002580Y-144619047D01*
X112002580Y-144619047D02*
X112050200Y-144714285D01*
X112050200Y-144714285D02*
X112097819Y-144761904D01*
X112097819Y-144761904D02*
X112193057Y-144809523D01*
X112193057Y-144809523D02*
X113002580Y-144809523D01*
X112002580Y-145333333D02*
X112002580Y-145523809D01*
X112002580Y-145523809D02*
X112050200Y-145619047D01*
X112050200Y-145619047D02*
X112097819Y-145666666D01*
X112097819Y-145666666D02*
X112240676Y-145761904D01*
X112240676Y-145761904D02*
X112431152Y-145809523D01*
X112431152Y-145809523D02*
X112812104Y-145809523D01*
X112812104Y-145809523D02*
X112907342Y-145761904D01*
X112907342Y-145761904D02*
X112954961Y-145714285D01*
X112954961Y-145714285D02*
X113002580Y-145619047D01*
X113002580Y-145619047D02*
X113002580Y-145428571D01*
X113002580Y-145428571D02*
X112954961Y-145333333D01*
X112954961Y-145333333D02*
X112907342Y-145285714D01*
X112907342Y-145285714D02*
X112812104Y-145238095D01*
X112812104Y-145238095D02*
X112574009Y-145238095D01*
X112574009Y-145238095D02*
X112478771Y-145285714D01*
X112478771Y-145285714D02*
X112431152Y-145333333D01*
X112431152Y-145333333D02*
X112383533Y-145428571D01*
X112383533Y-145428571D02*
X112383533Y-145619047D01*
X112383533Y-145619047D02*
X112431152Y-145714285D01*
X112431152Y-145714285D02*
X112478771Y-145761904D01*
X112478771Y-145761904D02*
X112574009Y-145809523D01*
D10*
X153666666Y-139374819D02*
X153666666Y-140089104D01*
X153666666Y-140089104D02*
X153619047Y-140231961D01*
X153619047Y-140231961D02*
X153523809Y-140327200D01*
X153523809Y-140327200D02*
X153380952Y-140374819D01*
X153380952Y-140374819D02*
X153285714Y-140374819D01*
X154285714Y-139803390D02*
X154190476Y-139755771D01*
X154190476Y-139755771D02*
X154142857Y-139708152D01*
X154142857Y-139708152D02*
X154095238Y-139612914D01*
X154095238Y-139612914D02*
X154095238Y-139565295D01*
X154095238Y-139565295D02*
X154142857Y-139470057D01*
X154142857Y-139470057D02*
X154190476Y-139422438D01*
X154190476Y-139422438D02*
X154285714Y-139374819D01*
X154285714Y-139374819D02*
X154476190Y-139374819D01*
X154476190Y-139374819D02*
X154571428Y-139422438D01*
X154571428Y-139422438D02*
X154619047Y-139470057D01*
X154619047Y-139470057D02*
X154666666Y-139565295D01*
X154666666Y-139565295D02*
X154666666Y-139612914D01*
X154666666Y-139612914D02*
X154619047Y-139708152D01*
X154619047Y-139708152D02*
X154571428Y-139755771D01*
X154571428Y-139755771D02*
X154476190Y-139803390D01*
X154476190Y-139803390D02*
X154285714Y-139803390D01*
X154285714Y-139803390D02*
X154190476Y-139851009D01*
X154190476Y-139851009D02*
X154142857Y-139898628D01*
X154142857Y-139898628D02*
X154095238Y-139993866D01*
X154095238Y-139993866D02*
X154095238Y-140184342D01*
X154095238Y-140184342D02*
X154142857Y-140279580D01*
X154142857Y-140279580D02*
X154190476Y-140327200D01*
X154190476Y-140327200D02*
X154285714Y-140374819D01*
X154285714Y-140374819D02*
X154476190Y-140374819D01*
X154476190Y-140374819D02*
X154571428Y-140327200D01*
X154571428Y-140327200D02*
X154619047Y-140279580D01*
X154619047Y-140279580D02*
X154666666Y-140184342D01*
X154666666Y-140184342D02*
X154666666Y-139993866D01*
X154666666Y-139993866D02*
X154619047Y-139898628D01*
X154619047Y-139898628D02*
X154571428Y-139851009D01*
X154571428Y-139851009D02*
X154476190Y-139803390D01*
X172264819Y-62231904D02*
X173074342Y-62231904D01*
X173074342Y-62231904D02*
X173169580Y-62184285D01*
X173169580Y-62184285D02*
X173217200Y-62136666D01*
X173217200Y-62136666D02*
X173264819Y-62041428D01*
X173264819Y-62041428D02*
X173264819Y-61850952D01*
X173264819Y-61850952D02*
X173217200Y-61755714D01*
X173217200Y-61755714D02*
X173169580Y-61708095D01*
X173169580Y-61708095D02*
X173074342Y-61660476D01*
X173074342Y-61660476D02*
X172264819Y-61660476D01*
X172598152Y-60755714D02*
X173264819Y-60755714D01*
X172217200Y-60993809D02*
X172931485Y-61231904D01*
X172931485Y-61231904D02*
X172931485Y-60612857D01*
X77286666Y-149534819D02*
X77286666Y-150249104D01*
X77286666Y-150249104D02*
X77239047Y-150391961D01*
X77239047Y-150391961D02*
X77143809Y-150487200D01*
X77143809Y-150487200D02*
X77000952Y-150534819D01*
X77000952Y-150534819D02*
X76905714Y-150534819D01*
X77667619Y-149534819D02*
X78286666Y-149534819D01*
X78286666Y-149534819D02*
X77953333Y-149915771D01*
X77953333Y-149915771D02*
X78096190Y-149915771D01*
X78096190Y-149915771D02*
X78191428Y-149963390D01*
X78191428Y-149963390D02*
X78239047Y-150011009D01*
X78239047Y-150011009D02*
X78286666Y-150106247D01*
X78286666Y-150106247D02*
X78286666Y-150344342D01*
X78286666Y-150344342D02*
X78239047Y-150439580D01*
X78239047Y-150439580D02*
X78191428Y-150487200D01*
X78191428Y-150487200D02*
X78096190Y-150534819D01*
X78096190Y-150534819D02*
X77810476Y-150534819D01*
X77810476Y-150534819D02*
X77715238Y-150487200D01*
X77715238Y-150487200D02*
X77667619Y-150439580D01*
X69783333Y-66374819D02*
X69450000Y-65898628D01*
X69211905Y-66374819D02*
X69211905Y-65374819D01*
X69211905Y-65374819D02*
X69592857Y-65374819D01*
X69592857Y-65374819D02*
X69688095Y-65422438D01*
X69688095Y-65422438D02*
X69735714Y-65470057D01*
X69735714Y-65470057D02*
X69783333Y-65565295D01*
X69783333Y-65565295D02*
X69783333Y-65708152D01*
X69783333Y-65708152D02*
X69735714Y-65803390D01*
X69735714Y-65803390D02*
X69688095Y-65851009D01*
X69688095Y-65851009D02*
X69592857Y-65898628D01*
X69592857Y-65898628D02*
X69211905Y-65898628D01*
X70735714Y-66374819D02*
X70164286Y-66374819D01*
X70450000Y-66374819D02*
X70450000Y-65374819D01*
X70450000Y-65374819D02*
X70354762Y-65517676D01*
X70354762Y-65517676D02*
X70259524Y-65612914D01*
X70259524Y-65612914D02*
X70164286Y-65660533D01*
X50951666Y-149534819D02*
X50951666Y-150249104D01*
X50951666Y-150249104D02*
X50904047Y-150391961D01*
X50904047Y-150391961D02*
X50808809Y-150487200D01*
X50808809Y-150487200D02*
X50665952Y-150534819D01*
X50665952Y-150534819D02*
X50570714Y-150534819D01*
X51904047Y-149534819D02*
X51427857Y-149534819D01*
X51427857Y-149534819D02*
X51380238Y-150011009D01*
X51380238Y-150011009D02*
X51427857Y-149963390D01*
X51427857Y-149963390D02*
X51523095Y-149915771D01*
X51523095Y-149915771D02*
X51761190Y-149915771D01*
X51761190Y-149915771D02*
X51856428Y-149963390D01*
X51856428Y-149963390D02*
X51904047Y-150011009D01*
X51904047Y-150011009D02*
X51951666Y-150106247D01*
X51951666Y-150106247D02*
X51951666Y-150344342D01*
X51951666Y-150344342D02*
X51904047Y-150439580D01*
X51904047Y-150439580D02*
X51856428Y-150487200D01*
X51856428Y-150487200D02*
X51761190Y-150534819D01*
X51761190Y-150534819D02*
X51523095Y-150534819D01*
X51523095Y-150534819D02*
X51427857Y-150487200D01*
X51427857Y-150487200D02*
X51380238Y-150439580D01*
X44746666Y-24874819D02*
X44746666Y-25589104D01*
X44746666Y-25589104D02*
X44699047Y-25731961D01*
X44699047Y-25731961D02*
X44603809Y-25827200D01*
X44603809Y-25827200D02*
X44460952Y-25874819D01*
X44460952Y-25874819D02*
X44365714Y-25874819D01*
X45746666Y-25874819D02*
X45175238Y-25874819D01*
X45460952Y-25874819D02*
X45460952Y-24874819D01*
X45460952Y-24874819D02*
X45365714Y-25017676D01*
X45365714Y-25017676D02*
X45270476Y-25112914D01*
X45270476Y-25112914D02*
X45175238Y-25160533D01*
X70944761Y-53280057D02*
X70849523Y-53232438D01*
X70849523Y-53232438D02*
X70754285Y-53137200D01*
X70754285Y-53137200D02*
X70611428Y-52994342D01*
X70611428Y-52994342D02*
X70516190Y-52946723D01*
X70516190Y-52946723D02*
X70420952Y-52946723D01*
X70468571Y-53184819D02*
X70373333Y-53137200D01*
X70373333Y-53137200D02*
X70278095Y-53041961D01*
X70278095Y-53041961D02*
X70230476Y-52851485D01*
X70230476Y-52851485D02*
X70230476Y-52518152D01*
X70230476Y-52518152D02*
X70278095Y-52327676D01*
X70278095Y-52327676D02*
X70373333Y-52232438D01*
X70373333Y-52232438D02*
X70468571Y-52184819D01*
X70468571Y-52184819D02*
X70659047Y-52184819D01*
X70659047Y-52184819D02*
X70754285Y-52232438D01*
X70754285Y-52232438D02*
X70849523Y-52327676D01*
X70849523Y-52327676D02*
X70897142Y-52518152D01*
X70897142Y-52518152D02*
X70897142Y-52851485D01*
X70897142Y-52851485D02*
X70849523Y-53041961D01*
X70849523Y-53041961D02*
X70754285Y-53137200D01*
X70754285Y-53137200D02*
X70659047Y-53184819D01*
X70659047Y-53184819D02*
X70468571Y-53184819D01*
X71849523Y-53184819D02*
X71278095Y-53184819D01*
X71563809Y-53184819D02*
X71563809Y-52184819D01*
X71563809Y-52184819D02*
X71468571Y-52327676D01*
X71468571Y-52327676D02*
X71373333Y-52422914D01*
X71373333Y-52422914D02*
X71278095Y-52470533D01*
X172264819Y-102231904D02*
X173074342Y-102231904D01*
X173074342Y-102231904D02*
X173169580Y-102184285D01*
X173169580Y-102184285D02*
X173217200Y-102136666D01*
X173217200Y-102136666D02*
X173264819Y-102041428D01*
X173264819Y-102041428D02*
X173264819Y-101850952D01*
X173264819Y-101850952D02*
X173217200Y-101755714D01*
X173217200Y-101755714D02*
X173169580Y-101708095D01*
X173169580Y-101708095D02*
X173074342Y-101660476D01*
X173074342Y-101660476D02*
X172264819Y-101660476D01*
X172264819Y-100755714D02*
X172264819Y-100946190D01*
X172264819Y-100946190D02*
X172312438Y-101041428D01*
X172312438Y-101041428D02*
X172360057Y-101089047D01*
X172360057Y-101089047D02*
X172502914Y-101184285D01*
X172502914Y-101184285D02*
X172693390Y-101231904D01*
X172693390Y-101231904D02*
X173074342Y-101231904D01*
X173074342Y-101231904D02*
X173169580Y-101184285D01*
X173169580Y-101184285D02*
X173217200Y-101136666D01*
X173217200Y-101136666D02*
X173264819Y-101041428D01*
X173264819Y-101041428D02*
X173264819Y-100850952D01*
X173264819Y-100850952D02*
X173217200Y-100755714D01*
X173217200Y-100755714D02*
X173169580Y-100708095D01*
X173169580Y-100708095D02*
X173074342Y-100660476D01*
X173074342Y-100660476D02*
X172836247Y-100660476D01*
X172836247Y-100660476D02*
X172741009Y-100708095D01*
X172741009Y-100708095D02*
X172693390Y-100755714D01*
X172693390Y-100755714D02*
X172645771Y-100850952D01*
X172645771Y-100850952D02*
X172645771Y-101041428D01*
X172645771Y-101041428D02*
X172693390Y-101136666D01*
X172693390Y-101136666D02*
X172741009Y-101184285D01*
X172741009Y-101184285D02*
X172836247Y-101231904D01*
X64786666Y-149534819D02*
X64786666Y-150249104D01*
X64786666Y-150249104D02*
X64739047Y-150391961D01*
X64739047Y-150391961D02*
X64643809Y-150487200D01*
X64643809Y-150487200D02*
X64500952Y-150534819D01*
X64500952Y-150534819D02*
X64405714Y-150534819D01*
X65691428Y-149868152D02*
X65691428Y-150534819D01*
X65453333Y-149487200D02*
X65215238Y-150201485D01*
X65215238Y-150201485D02*
X65834285Y-150201485D01*
X172264819Y-43151904D02*
X173074342Y-43151904D01*
X173074342Y-43151904D02*
X173169580Y-43104285D01*
X173169580Y-43104285D02*
X173217200Y-43056666D01*
X173217200Y-43056666D02*
X173264819Y-42961428D01*
X173264819Y-42961428D02*
X173264819Y-42770952D01*
X173264819Y-42770952D02*
X173217200Y-42675714D01*
X173217200Y-42675714D02*
X173169580Y-42628095D01*
X173169580Y-42628095D02*
X173074342Y-42580476D01*
X173074342Y-42580476D02*
X172264819Y-42580476D01*
X172264819Y-42199523D02*
X172264819Y-41580476D01*
X172264819Y-41580476D02*
X172645771Y-41913809D01*
X172645771Y-41913809D02*
X172645771Y-41770952D01*
X172645771Y-41770952D02*
X172693390Y-41675714D01*
X172693390Y-41675714D02*
X172741009Y-41628095D01*
X172741009Y-41628095D02*
X172836247Y-41580476D01*
X172836247Y-41580476D02*
X173074342Y-41580476D01*
X173074342Y-41580476D02*
X173169580Y-41628095D01*
X173169580Y-41628095D02*
X173217200Y-41675714D01*
X173217200Y-41675714D02*
X173264819Y-41770952D01*
X173264819Y-41770952D02*
X173264819Y-42056666D01*
X173264819Y-42056666D02*
X173217200Y-42151904D01*
X173217200Y-42151904D02*
X173169580Y-42199523D01*
X105536666Y-24374819D02*
X105536666Y-25089104D01*
X105536666Y-25089104D02*
X105489047Y-25231961D01*
X105489047Y-25231961D02*
X105393809Y-25327200D01*
X105393809Y-25327200D02*
X105250952Y-25374819D01*
X105250952Y-25374819D02*
X105155714Y-25374819D01*
X105965238Y-24470057D02*
X106012857Y-24422438D01*
X106012857Y-24422438D02*
X106108095Y-24374819D01*
X106108095Y-24374819D02*
X106346190Y-24374819D01*
X106346190Y-24374819D02*
X106441428Y-24422438D01*
X106441428Y-24422438D02*
X106489047Y-24470057D01*
X106489047Y-24470057D02*
X106536666Y-24565295D01*
X106536666Y-24565295D02*
X106536666Y-24660533D01*
X106536666Y-24660533D02*
X106489047Y-24803390D01*
X106489047Y-24803390D02*
X105917619Y-25374819D01*
X105917619Y-25374819D02*
X106536666Y-25374819D01*
X85564819Y-100871904D02*
X86374342Y-100871904D01*
X86374342Y-100871904D02*
X86469580Y-100824285D01*
X86469580Y-100824285D02*
X86517200Y-100776666D01*
X86517200Y-100776666D02*
X86564819Y-100681428D01*
X86564819Y-100681428D02*
X86564819Y-100490952D01*
X86564819Y-100490952D02*
X86517200Y-100395714D01*
X86517200Y-100395714D02*
X86469580Y-100348095D01*
X86469580Y-100348095D02*
X86374342Y-100300476D01*
X86374342Y-100300476D02*
X85564819Y-100300476D01*
X86564819Y-99300476D02*
X86564819Y-99871904D01*
X86564819Y-99586190D02*
X85564819Y-99586190D01*
X85564819Y-99586190D02*
X85707676Y-99681428D01*
X85707676Y-99681428D02*
X85802914Y-99776666D01*
X85802914Y-99776666D02*
X85850533Y-99871904D01*
X79611568Y-112196435D02*
X79584631Y-112115623D01*
X79584631Y-112115623D02*
X79503819Y-112034811D01*
X79503819Y-112034811D02*
X79396069Y-111980936D01*
X79396069Y-111980936D02*
X79288319Y-111980936D01*
X79288319Y-111980936D02*
X79207507Y-112007873D01*
X79207507Y-112007873D02*
X79072820Y-112088685D01*
X79072820Y-112088685D02*
X78992008Y-112169498D01*
X78992008Y-112169498D02*
X78911196Y-112304185D01*
X78911196Y-112304185D02*
X78884258Y-112384997D01*
X78884258Y-112384997D02*
X78884258Y-112492746D01*
X78884258Y-112492746D02*
X78938133Y-112600496D01*
X78938133Y-112600496D02*
X78992008Y-112654371D01*
X78992008Y-112654371D02*
X79099758Y-112708246D01*
X79099758Y-112708246D02*
X79153632Y-112708246D01*
X79153632Y-112708246D02*
X79342194Y-112519684D01*
X79342194Y-112519684D02*
X79234445Y-112411934D01*
X79342194Y-113004557D02*
X79907880Y-112438872D01*
X79907880Y-112438872D02*
X79665443Y-113327806D01*
X79665443Y-113327806D02*
X80231128Y-112762120D01*
X79934817Y-113597180D02*
X80500502Y-113031494D01*
X80500502Y-113031494D02*
X80635189Y-113166181D01*
X80635189Y-113166181D02*
X80689064Y-113273931D01*
X80689064Y-113273931D02*
X80689064Y-113381680D01*
X80689064Y-113381680D02*
X80662127Y-113462493D01*
X80662127Y-113462493D02*
X80581314Y-113597180D01*
X80581314Y-113597180D02*
X80500502Y-113677992D01*
X80500502Y-113677992D02*
X80365815Y-113758804D01*
X80365815Y-113758804D02*
X80285003Y-113785741D01*
X80285003Y-113785741D02*
X80177253Y-113785741D01*
X80177253Y-113785741D02*
X80069504Y-113731867D01*
X80069504Y-113731867D02*
X79934817Y-113597180D01*
X112634200Y-96205238D02*
X112672295Y-96090952D01*
X112672295Y-96090952D02*
X112672295Y-95900476D01*
X112672295Y-95900476D02*
X112634200Y-95824285D01*
X112634200Y-95824285D02*
X112596104Y-95786190D01*
X112596104Y-95786190D02*
X112519914Y-95748095D01*
X112519914Y-95748095D02*
X112443723Y-95748095D01*
X112443723Y-95748095D02*
X112367533Y-95786190D01*
X112367533Y-95786190D02*
X112329438Y-95824285D01*
X112329438Y-95824285D02*
X112291342Y-95900476D01*
X112291342Y-95900476D02*
X112253247Y-96052857D01*
X112253247Y-96052857D02*
X112215152Y-96129047D01*
X112215152Y-96129047D02*
X112177057Y-96167142D01*
X112177057Y-96167142D02*
X112100866Y-96205238D01*
X112100866Y-96205238D02*
X112024676Y-96205238D01*
X112024676Y-96205238D02*
X111948485Y-96167142D01*
X111948485Y-96167142D02*
X111910390Y-96129047D01*
X111910390Y-96129047D02*
X111872295Y-96052857D01*
X111872295Y-96052857D02*
X111872295Y-95862380D01*
X111872295Y-95862380D02*
X111910390Y-95748095D01*
X111872295Y-95481428D02*
X112672295Y-95290952D01*
X112672295Y-95290952D02*
X112100866Y-95138571D01*
X112100866Y-95138571D02*
X112672295Y-94986190D01*
X112672295Y-94986190D02*
X111872295Y-94795714D01*
X112672295Y-94490951D02*
X111872295Y-94490951D01*
X111872295Y-94490951D02*
X111872295Y-94300475D01*
X111872295Y-94300475D02*
X111910390Y-94186189D01*
X111910390Y-94186189D02*
X111986580Y-94109999D01*
X111986580Y-94109999D02*
X112062771Y-94071904D01*
X112062771Y-94071904D02*
X112215152Y-94033808D01*
X112215152Y-94033808D02*
X112329438Y-94033808D01*
X112329438Y-94033808D02*
X112481819Y-94071904D01*
X112481819Y-94071904D02*
X112558009Y-94109999D01*
X112558009Y-94109999D02*
X112634200Y-94186189D01*
X112634200Y-94186189D02*
X112672295Y-94300475D01*
X112672295Y-94300475D02*
X112672295Y-94490951D01*
X112672295Y-93690951D02*
X111872295Y-93690951D01*
X111872295Y-93157618D02*
X111872295Y-93005237D01*
X111872295Y-93005237D02*
X111910390Y-92929047D01*
X111910390Y-92929047D02*
X111986580Y-92852856D01*
X111986580Y-92852856D02*
X112138961Y-92814761D01*
X112138961Y-92814761D02*
X112405628Y-92814761D01*
X112405628Y-92814761D02*
X112558009Y-92852856D01*
X112558009Y-92852856D02*
X112634200Y-92929047D01*
X112634200Y-92929047D02*
X112672295Y-93005237D01*
X112672295Y-93005237D02*
X112672295Y-93157618D01*
X112672295Y-93157618D02*
X112634200Y-93233809D01*
X112634200Y-93233809D02*
X112558009Y-93309999D01*
X112558009Y-93309999D02*
X112405628Y-93348095D01*
X112405628Y-93348095D02*
X112138961Y-93348095D01*
X112138961Y-93348095D02*
X111986580Y-93309999D01*
X111986580Y-93309999D02*
X111910390Y-93233809D01*
X111910390Y-93233809D02*
X111872295Y-93157618D01*
X89529131Y-86099998D02*
X89502194Y-86019185D01*
X89502194Y-86019185D02*
X89421381Y-85938373D01*
X89421381Y-85938373D02*
X89313632Y-85884498D01*
X89313632Y-85884498D02*
X89205882Y-85884498D01*
X89205882Y-85884498D02*
X89125070Y-85911436D01*
X89125070Y-85911436D02*
X88990383Y-85992248D01*
X88990383Y-85992248D02*
X88909571Y-86073060D01*
X88909571Y-86073060D02*
X88828758Y-86207747D01*
X88828758Y-86207747D02*
X88801821Y-86288560D01*
X88801821Y-86288560D02*
X88801821Y-86396309D01*
X88801821Y-86396309D02*
X88855696Y-86504059D01*
X88855696Y-86504059D02*
X88909571Y-86557934D01*
X88909571Y-86557934D02*
X89017320Y-86611808D01*
X89017320Y-86611808D02*
X89071195Y-86611808D01*
X89071195Y-86611808D02*
X89259757Y-86423247D01*
X89259757Y-86423247D02*
X89152007Y-86315497D01*
X89259757Y-86908120D02*
X89825442Y-86342434D01*
X89825442Y-86342434D02*
X90040942Y-86557934D01*
X90040942Y-86557934D02*
X90067879Y-86638746D01*
X90067879Y-86638746D02*
X90067879Y-86692621D01*
X90067879Y-86692621D02*
X90040942Y-86773433D01*
X90040942Y-86773433D02*
X89960129Y-86854245D01*
X89960129Y-86854245D02*
X89879317Y-86881182D01*
X89879317Y-86881182D02*
X89825442Y-86881182D01*
X89825442Y-86881182D02*
X89744630Y-86854245D01*
X89744630Y-86854245D02*
X89529131Y-86638746D01*
X90310316Y-86935057D02*
X90364190Y-86935057D01*
X90364190Y-86935057D02*
X90445003Y-86961995D01*
X90445003Y-86961995D02*
X90579690Y-87096682D01*
X90579690Y-87096682D02*
X90606627Y-87177494D01*
X90606627Y-87177494D02*
X90606627Y-87231369D01*
X90606627Y-87231369D02*
X90579690Y-87312181D01*
X90579690Y-87312181D02*
X90525815Y-87366056D01*
X90525815Y-87366056D02*
X90418065Y-87419930D01*
X90418065Y-87419930D02*
X89771568Y-87419930D01*
X89771568Y-87419930D02*
X90121754Y-87770117D01*
X90849064Y-87473805D02*
X90902939Y-87473805D01*
X90902939Y-87473805D02*
X90983751Y-87500743D01*
X90983751Y-87500743D02*
X91118438Y-87635430D01*
X91118438Y-87635430D02*
X91145375Y-87716242D01*
X91145375Y-87716242D02*
X91145375Y-87770117D01*
X91145375Y-87770117D02*
X91118438Y-87850929D01*
X91118438Y-87850929D02*
X91064563Y-87904804D01*
X91064563Y-87904804D02*
X90956813Y-87958679D01*
X90956813Y-87958679D02*
X90310316Y-87958679D01*
X90310316Y-87958679D02*
X90660502Y-88308865D01*
X74558505Y-112223372D02*
X74531568Y-112142560D01*
X74531568Y-112142560D02*
X74450756Y-112061748D01*
X74450756Y-112061748D02*
X74343006Y-112007873D01*
X74343006Y-112007873D02*
X74235257Y-112007873D01*
X74235257Y-112007873D02*
X74154444Y-112034810D01*
X74154444Y-112034810D02*
X74019757Y-112115623D01*
X74019757Y-112115623D02*
X73938945Y-112196435D01*
X73938945Y-112196435D02*
X73858133Y-112331122D01*
X73858133Y-112331122D02*
X73831196Y-112411934D01*
X73831196Y-112411934D02*
X73831196Y-112519684D01*
X73831196Y-112519684D02*
X73885070Y-112627433D01*
X73885070Y-112627433D02*
X73938945Y-112681308D01*
X73938945Y-112681308D02*
X74046695Y-112735183D01*
X74046695Y-112735183D02*
X74100570Y-112735183D01*
X74100570Y-112735183D02*
X74289131Y-112546621D01*
X74289131Y-112546621D02*
X74181382Y-112438871D01*
X74289131Y-113031494D02*
X74854817Y-112465809D01*
X74854817Y-112465809D02*
X75070316Y-112681308D01*
X75070316Y-112681308D02*
X75097253Y-112762120D01*
X75097253Y-112762120D02*
X75097253Y-112815995D01*
X75097253Y-112815995D02*
X75070316Y-112896807D01*
X75070316Y-112896807D02*
X74989504Y-112977619D01*
X74989504Y-112977619D02*
X74908692Y-113004557D01*
X74908692Y-113004557D02*
X74854817Y-113004557D01*
X74854817Y-113004557D02*
X74774005Y-112977619D01*
X74774005Y-112977619D02*
X74558505Y-112762120D01*
X75474377Y-113462493D02*
X75097253Y-113839616D01*
X75555189Y-113112306D02*
X75016441Y-113381680D01*
X75016441Y-113381680D02*
X75366627Y-113731867D01*
X112634200Y-107619524D02*
X112672295Y-107505238D01*
X112672295Y-107505238D02*
X112672295Y-107314762D01*
X112672295Y-107314762D02*
X112634200Y-107238571D01*
X112634200Y-107238571D02*
X112596104Y-107200476D01*
X112596104Y-107200476D02*
X112519914Y-107162381D01*
X112519914Y-107162381D02*
X112443723Y-107162381D01*
X112443723Y-107162381D02*
X112367533Y-107200476D01*
X112367533Y-107200476D02*
X112329438Y-107238571D01*
X112329438Y-107238571D02*
X112291342Y-107314762D01*
X112291342Y-107314762D02*
X112253247Y-107467143D01*
X112253247Y-107467143D02*
X112215152Y-107543333D01*
X112215152Y-107543333D02*
X112177057Y-107581428D01*
X112177057Y-107581428D02*
X112100866Y-107619524D01*
X112100866Y-107619524D02*
X112024676Y-107619524D01*
X112024676Y-107619524D02*
X111948485Y-107581428D01*
X111948485Y-107581428D02*
X111910390Y-107543333D01*
X111910390Y-107543333D02*
X111872295Y-107467143D01*
X111872295Y-107467143D02*
X111872295Y-107276666D01*
X111872295Y-107276666D02*
X111910390Y-107162381D01*
X111872295Y-106895714D02*
X112672295Y-106705238D01*
X112672295Y-106705238D02*
X112100866Y-106552857D01*
X112100866Y-106552857D02*
X112672295Y-106400476D01*
X112672295Y-106400476D02*
X111872295Y-106210000D01*
X112596104Y-105448094D02*
X112634200Y-105486190D01*
X112634200Y-105486190D02*
X112672295Y-105600475D01*
X112672295Y-105600475D02*
X112672295Y-105676666D01*
X112672295Y-105676666D02*
X112634200Y-105790952D01*
X112634200Y-105790952D02*
X112558009Y-105867142D01*
X112558009Y-105867142D02*
X112481819Y-105905237D01*
X112481819Y-105905237D02*
X112329438Y-105943333D01*
X112329438Y-105943333D02*
X112215152Y-105943333D01*
X112215152Y-105943333D02*
X112062771Y-105905237D01*
X112062771Y-105905237D02*
X111986580Y-105867142D01*
X111986580Y-105867142D02*
X111910390Y-105790952D01*
X111910390Y-105790952D02*
X111872295Y-105676666D01*
X111872295Y-105676666D02*
X111872295Y-105600475D01*
X111872295Y-105600475D02*
X111910390Y-105486190D01*
X111910390Y-105486190D02*
X111948485Y-105448094D01*
X112672295Y-104724285D02*
X112672295Y-105105237D01*
X112672295Y-105105237D02*
X111872295Y-105105237D01*
X112672295Y-104457618D02*
X111872295Y-104457618D01*
X112672295Y-104000475D02*
X112215152Y-104343333D01*
X111872295Y-104000475D02*
X112329438Y-104457618D01*
X102229131Y-86099998D02*
X102202194Y-86019185D01*
X102202194Y-86019185D02*
X102121381Y-85938373D01*
X102121381Y-85938373D02*
X102013632Y-85884498D01*
X102013632Y-85884498D02*
X101905882Y-85884498D01*
X101905882Y-85884498D02*
X101825070Y-85911436D01*
X101825070Y-85911436D02*
X101690383Y-85992248D01*
X101690383Y-85992248D02*
X101609571Y-86073060D01*
X101609571Y-86073060D02*
X101528758Y-86207747D01*
X101528758Y-86207747D02*
X101501821Y-86288560D01*
X101501821Y-86288560D02*
X101501821Y-86396309D01*
X101501821Y-86396309D02*
X101555696Y-86504059D01*
X101555696Y-86504059D02*
X101609571Y-86557934D01*
X101609571Y-86557934D02*
X101717320Y-86611808D01*
X101717320Y-86611808D02*
X101771195Y-86611808D01*
X101771195Y-86611808D02*
X101959757Y-86423247D01*
X101959757Y-86423247D02*
X101852007Y-86315497D01*
X101959757Y-86908120D02*
X102525442Y-86342434D01*
X102525442Y-86342434D02*
X102740942Y-86557934D01*
X102740942Y-86557934D02*
X102767879Y-86638746D01*
X102767879Y-86638746D02*
X102767879Y-86692621D01*
X102767879Y-86692621D02*
X102740942Y-86773433D01*
X102740942Y-86773433D02*
X102660129Y-86854245D01*
X102660129Y-86854245D02*
X102579317Y-86881182D01*
X102579317Y-86881182D02*
X102525442Y-86881182D01*
X102525442Y-86881182D02*
X102444630Y-86854245D01*
X102444630Y-86854245D02*
X102229131Y-86638746D01*
X102821754Y-87770117D02*
X102498505Y-87446868D01*
X102660129Y-87608492D02*
X103225815Y-87042807D01*
X103225815Y-87042807D02*
X103091128Y-87069744D01*
X103091128Y-87069744D02*
X102983378Y-87069744D01*
X102983378Y-87069744D02*
X102902566Y-87042807D01*
X103468252Y-87770117D02*
X103441314Y-87689305D01*
X103441314Y-87689305D02*
X103441314Y-87635430D01*
X103441314Y-87635430D02*
X103468252Y-87554618D01*
X103468252Y-87554618D02*
X103495189Y-87527680D01*
X103495189Y-87527680D02*
X103576001Y-87500743D01*
X103576001Y-87500743D02*
X103629876Y-87500743D01*
X103629876Y-87500743D02*
X103710688Y-87527680D01*
X103710688Y-87527680D02*
X103818438Y-87635430D01*
X103818438Y-87635430D02*
X103845375Y-87716242D01*
X103845375Y-87716242D02*
X103845375Y-87770117D01*
X103845375Y-87770117D02*
X103818438Y-87850929D01*
X103818438Y-87850929D02*
X103791500Y-87877866D01*
X103791500Y-87877866D02*
X103710688Y-87904804D01*
X103710688Y-87904804D02*
X103656813Y-87904804D01*
X103656813Y-87904804D02*
X103576001Y-87877866D01*
X103576001Y-87877866D02*
X103468252Y-87770117D01*
X103468252Y-87770117D02*
X103387439Y-87743179D01*
X103387439Y-87743179D02*
X103333565Y-87743179D01*
X103333565Y-87743179D02*
X103252752Y-87770117D01*
X103252752Y-87770117D02*
X103145003Y-87877866D01*
X103145003Y-87877866D02*
X103118065Y-87958679D01*
X103118065Y-87958679D02*
X103118065Y-88012553D01*
X103118065Y-88012553D02*
X103145003Y-88093366D01*
X103145003Y-88093366D02*
X103252752Y-88201115D01*
X103252752Y-88201115D02*
X103333565Y-88228053D01*
X103333565Y-88228053D02*
X103387439Y-88228053D01*
X103387439Y-88228053D02*
X103468252Y-88201115D01*
X103468252Y-88201115D02*
X103576001Y-88093366D01*
X103576001Y-88093366D02*
X103602939Y-88012553D01*
X103602939Y-88012553D02*
X103602939Y-87958679D01*
X103602939Y-87958679D02*
X103576001Y-87877866D01*
X92311568Y-112196435D02*
X92284631Y-112115623D01*
X92284631Y-112115623D02*
X92203819Y-112034811D01*
X92203819Y-112034811D02*
X92096069Y-111980936D01*
X92096069Y-111980936D02*
X91988319Y-111980936D01*
X91988319Y-111980936D02*
X91907507Y-112007873D01*
X91907507Y-112007873D02*
X91772820Y-112088685D01*
X91772820Y-112088685D02*
X91692008Y-112169498D01*
X91692008Y-112169498D02*
X91611196Y-112304185D01*
X91611196Y-112304185D02*
X91584258Y-112384997D01*
X91584258Y-112384997D02*
X91584258Y-112492746D01*
X91584258Y-112492746D02*
X91638133Y-112600496D01*
X91638133Y-112600496D02*
X91692008Y-112654371D01*
X91692008Y-112654371D02*
X91799758Y-112708246D01*
X91799758Y-112708246D02*
X91853632Y-112708246D01*
X91853632Y-112708246D02*
X92042194Y-112519684D01*
X92042194Y-112519684D02*
X91934445Y-112411934D01*
X92042194Y-113004557D02*
X92607880Y-112438872D01*
X92607880Y-112438872D02*
X92365443Y-113327806D01*
X92365443Y-113327806D02*
X92931128Y-112762120D01*
X92634817Y-113597180D02*
X93200502Y-113031494D01*
X93200502Y-113031494D02*
X93335189Y-113166181D01*
X93335189Y-113166181D02*
X93389064Y-113273931D01*
X93389064Y-113273931D02*
X93389064Y-113381680D01*
X93389064Y-113381680D02*
X93362127Y-113462493D01*
X93362127Y-113462493D02*
X93281314Y-113597180D01*
X93281314Y-113597180D02*
X93200502Y-113677992D01*
X93200502Y-113677992D02*
X93065815Y-113758804D01*
X93065815Y-113758804D02*
X92985003Y-113785741D01*
X92985003Y-113785741D02*
X92877253Y-113785741D01*
X92877253Y-113785741D02*
X92769504Y-113731867D01*
X92769504Y-113731867D02*
X92634817Y-113597180D01*
X92311568Y-86596435D02*
X92284631Y-86515623D01*
X92284631Y-86515623D02*
X92203819Y-86434811D01*
X92203819Y-86434811D02*
X92096069Y-86380936D01*
X92096069Y-86380936D02*
X91988319Y-86380936D01*
X91988319Y-86380936D02*
X91907507Y-86407873D01*
X91907507Y-86407873D02*
X91772820Y-86488685D01*
X91772820Y-86488685D02*
X91692008Y-86569498D01*
X91692008Y-86569498D02*
X91611196Y-86704185D01*
X91611196Y-86704185D02*
X91584258Y-86784997D01*
X91584258Y-86784997D02*
X91584258Y-86892746D01*
X91584258Y-86892746D02*
X91638133Y-87000496D01*
X91638133Y-87000496D02*
X91692008Y-87054371D01*
X91692008Y-87054371D02*
X91799758Y-87108246D01*
X91799758Y-87108246D02*
X91853632Y-87108246D01*
X91853632Y-87108246D02*
X92042194Y-86919684D01*
X92042194Y-86919684D02*
X91934445Y-86811934D01*
X92042194Y-87404557D02*
X92607880Y-86838872D01*
X92607880Y-86838872D02*
X92365443Y-87727806D01*
X92365443Y-87727806D02*
X92931128Y-87162120D01*
X92634817Y-87997180D02*
X93200502Y-87431494D01*
X93200502Y-87431494D02*
X93335189Y-87566181D01*
X93335189Y-87566181D02*
X93389064Y-87673931D01*
X93389064Y-87673931D02*
X93389064Y-87781680D01*
X93389064Y-87781680D02*
X93362127Y-87862493D01*
X93362127Y-87862493D02*
X93281314Y-87997180D01*
X93281314Y-87997180D02*
X93200502Y-88077992D01*
X93200502Y-88077992D02*
X93065815Y-88158804D01*
X93065815Y-88158804D02*
X92985003Y-88185741D01*
X92985003Y-88185741D02*
X92877253Y-88185741D01*
X92877253Y-88185741D02*
X92769504Y-88131867D01*
X92769504Y-88131867D02*
X92634817Y-87997180D01*
X76575131Y-86099998D02*
X76548194Y-86019185D01*
X76548194Y-86019185D02*
X76467381Y-85938373D01*
X76467381Y-85938373D02*
X76359632Y-85884498D01*
X76359632Y-85884498D02*
X76251882Y-85884498D01*
X76251882Y-85884498D02*
X76171070Y-85911436D01*
X76171070Y-85911436D02*
X76036383Y-85992248D01*
X76036383Y-85992248D02*
X75955571Y-86073060D01*
X75955571Y-86073060D02*
X75874758Y-86207747D01*
X75874758Y-86207747D02*
X75847821Y-86288560D01*
X75847821Y-86288560D02*
X75847821Y-86396309D01*
X75847821Y-86396309D02*
X75901696Y-86504059D01*
X75901696Y-86504059D02*
X75955571Y-86557934D01*
X75955571Y-86557934D02*
X76063320Y-86611808D01*
X76063320Y-86611808D02*
X76117195Y-86611808D01*
X76117195Y-86611808D02*
X76305757Y-86423247D01*
X76305757Y-86423247D02*
X76198007Y-86315497D01*
X76305757Y-86908120D02*
X76871442Y-86342434D01*
X76871442Y-86342434D02*
X77086942Y-86557934D01*
X77086942Y-86557934D02*
X77113879Y-86638746D01*
X77113879Y-86638746D02*
X77113879Y-86692621D01*
X77113879Y-86692621D02*
X77086942Y-86773433D01*
X77086942Y-86773433D02*
X77006129Y-86854245D01*
X77006129Y-86854245D02*
X76925317Y-86881182D01*
X76925317Y-86881182D02*
X76871442Y-86881182D01*
X76871442Y-86881182D02*
X76790630Y-86854245D01*
X76790630Y-86854245D02*
X76575131Y-86638746D01*
X77356316Y-86935057D02*
X77410190Y-86935057D01*
X77410190Y-86935057D02*
X77491003Y-86961995D01*
X77491003Y-86961995D02*
X77625690Y-87096682D01*
X77625690Y-87096682D02*
X77652627Y-87177494D01*
X77652627Y-87177494D02*
X77652627Y-87231369D01*
X77652627Y-87231369D02*
X77625690Y-87312181D01*
X77625690Y-87312181D02*
X77571815Y-87366056D01*
X77571815Y-87366056D02*
X77464065Y-87419930D01*
X77464065Y-87419930D02*
X76817568Y-87419930D01*
X76817568Y-87419930D02*
X77167754Y-87770117D01*
X77814252Y-87770117D02*
X77787314Y-87689305D01*
X77787314Y-87689305D02*
X77787314Y-87635430D01*
X77787314Y-87635430D02*
X77814252Y-87554618D01*
X77814252Y-87554618D02*
X77841189Y-87527680D01*
X77841189Y-87527680D02*
X77922001Y-87500743D01*
X77922001Y-87500743D02*
X77975876Y-87500743D01*
X77975876Y-87500743D02*
X78056688Y-87527680D01*
X78056688Y-87527680D02*
X78164438Y-87635430D01*
X78164438Y-87635430D02*
X78191375Y-87716242D01*
X78191375Y-87716242D02*
X78191375Y-87770117D01*
X78191375Y-87770117D02*
X78164438Y-87850929D01*
X78164438Y-87850929D02*
X78137500Y-87877866D01*
X78137500Y-87877866D02*
X78056688Y-87904804D01*
X78056688Y-87904804D02*
X78002813Y-87904804D01*
X78002813Y-87904804D02*
X77922001Y-87877866D01*
X77922001Y-87877866D02*
X77814252Y-87770117D01*
X77814252Y-87770117D02*
X77733439Y-87743179D01*
X77733439Y-87743179D02*
X77679565Y-87743179D01*
X77679565Y-87743179D02*
X77598752Y-87770117D01*
X77598752Y-87770117D02*
X77491003Y-87877866D01*
X77491003Y-87877866D02*
X77464065Y-87958679D01*
X77464065Y-87958679D02*
X77464065Y-88012553D01*
X77464065Y-88012553D02*
X77491003Y-88093366D01*
X77491003Y-88093366D02*
X77598752Y-88201115D01*
X77598752Y-88201115D02*
X77679565Y-88228053D01*
X77679565Y-88228053D02*
X77733439Y-88228053D01*
X77733439Y-88228053D02*
X77814252Y-88201115D01*
X77814252Y-88201115D02*
X77922001Y-88093366D01*
X77922001Y-88093366D02*
X77948939Y-88012553D01*
X77948939Y-88012553D02*
X77948939Y-87958679D01*
X77948939Y-87958679D02*
X77922001Y-87877866D01*
X84449131Y-86099998D02*
X84422194Y-86019185D01*
X84422194Y-86019185D02*
X84341381Y-85938373D01*
X84341381Y-85938373D02*
X84233632Y-85884498D01*
X84233632Y-85884498D02*
X84125882Y-85884498D01*
X84125882Y-85884498D02*
X84045070Y-85911436D01*
X84045070Y-85911436D02*
X83910383Y-85992248D01*
X83910383Y-85992248D02*
X83829571Y-86073060D01*
X83829571Y-86073060D02*
X83748758Y-86207747D01*
X83748758Y-86207747D02*
X83721821Y-86288560D01*
X83721821Y-86288560D02*
X83721821Y-86396309D01*
X83721821Y-86396309D02*
X83775696Y-86504059D01*
X83775696Y-86504059D02*
X83829571Y-86557934D01*
X83829571Y-86557934D02*
X83937320Y-86611808D01*
X83937320Y-86611808D02*
X83991195Y-86611808D01*
X83991195Y-86611808D02*
X84179757Y-86423247D01*
X84179757Y-86423247D02*
X84072007Y-86315497D01*
X84179757Y-86908120D02*
X84745442Y-86342434D01*
X84745442Y-86342434D02*
X84960942Y-86557934D01*
X84960942Y-86557934D02*
X84987879Y-86638746D01*
X84987879Y-86638746D02*
X84987879Y-86692621D01*
X84987879Y-86692621D02*
X84960942Y-86773433D01*
X84960942Y-86773433D02*
X84880129Y-86854245D01*
X84880129Y-86854245D02*
X84799317Y-86881182D01*
X84799317Y-86881182D02*
X84745442Y-86881182D01*
X84745442Y-86881182D02*
X84664630Y-86854245D01*
X84664630Y-86854245D02*
X84449131Y-86638746D01*
X85230316Y-86935057D02*
X85284190Y-86935057D01*
X85284190Y-86935057D02*
X85365003Y-86961995D01*
X85365003Y-86961995D02*
X85499690Y-87096682D01*
X85499690Y-87096682D02*
X85526627Y-87177494D01*
X85526627Y-87177494D02*
X85526627Y-87231369D01*
X85526627Y-87231369D02*
X85499690Y-87312181D01*
X85499690Y-87312181D02*
X85445815Y-87366056D01*
X85445815Y-87366056D02*
X85338065Y-87419930D01*
X85338065Y-87419930D02*
X84691568Y-87419930D01*
X84691568Y-87419930D02*
X85041754Y-87770117D01*
X86092313Y-87689305D02*
X85984563Y-87581555D01*
X85984563Y-87581555D02*
X85903751Y-87554618D01*
X85903751Y-87554618D02*
X85849876Y-87554618D01*
X85849876Y-87554618D02*
X85715189Y-87581555D01*
X85715189Y-87581555D02*
X85580502Y-87662367D01*
X85580502Y-87662367D02*
X85365003Y-87877866D01*
X85365003Y-87877866D02*
X85338065Y-87958679D01*
X85338065Y-87958679D02*
X85338065Y-88012553D01*
X85338065Y-88012553D02*
X85365003Y-88093366D01*
X85365003Y-88093366D02*
X85472752Y-88201115D01*
X85472752Y-88201115D02*
X85553565Y-88228053D01*
X85553565Y-88228053D02*
X85607439Y-88228053D01*
X85607439Y-88228053D02*
X85688252Y-88201115D01*
X85688252Y-88201115D02*
X85822939Y-88066428D01*
X85822939Y-88066428D02*
X85849876Y-87985616D01*
X85849876Y-87985616D02*
X85849876Y-87931741D01*
X85849876Y-87931741D02*
X85822939Y-87850929D01*
X85822939Y-87850929D02*
X85715189Y-87743179D01*
X85715189Y-87743179D02*
X85634377Y-87716242D01*
X85634377Y-87716242D02*
X85580502Y-87716242D01*
X85580502Y-87716242D02*
X85499690Y-87743179D01*
X81919131Y-86099998D02*
X81892194Y-86019185D01*
X81892194Y-86019185D02*
X81811381Y-85938373D01*
X81811381Y-85938373D02*
X81703632Y-85884498D01*
X81703632Y-85884498D02*
X81595882Y-85884498D01*
X81595882Y-85884498D02*
X81515070Y-85911436D01*
X81515070Y-85911436D02*
X81380383Y-85992248D01*
X81380383Y-85992248D02*
X81299571Y-86073060D01*
X81299571Y-86073060D02*
X81218758Y-86207747D01*
X81218758Y-86207747D02*
X81191821Y-86288560D01*
X81191821Y-86288560D02*
X81191821Y-86396309D01*
X81191821Y-86396309D02*
X81245696Y-86504059D01*
X81245696Y-86504059D02*
X81299571Y-86557934D01*
X81299571Y-86557934D02*
X81407320Y-86611808D01*
X81407320Y-86611808D02*
X81461195Y-86611808D01*
X81461195Y-86611808D02*
X81649757Y-86423247D01*
X81649757Y-86423247D02*
X81542007Y-86315497D01*
X81649757Y-86908120D02*
X82215442Y-86342434D01*
X82215442Y-86342434D02*
X82430942Y-86557934D01*
X82430942Y-86557934D02*
X82457879Y-86638746D01*
X82457879Y-86638746D02*
X82457879Y-86692621D01*
X82457879Y-86692621D02*
X82430942Y-86773433D01*
X82430942Y-86773433D02*
X82350129Y-86854245D01*
X82350129Y-86854245D02*
X82269317Y-86881182D01*
X82269317Y-86881182D02*
X82215442Y-86881182D01*
X82215442Y-86881182D02*
X82134630Y-86854245D01*
X82134630Y-86854245D02*
X81919131Y-86638746D01*
X82700316Y-86935057D02*
X82754190Y-86935057D01*
X82754190Y-86935057D02*
X82835003Y-86961995D01*
X82835003Y-86961995D02*
X82969690Y-87096682D01*
X82969690Y-87096682D02*
X82996627Y-87177494D01*
X82996627Y-87177494D02*
X82996627Y-87231369D01*
X82996627Y-87231369D02*
X82969690Y-87312181D01*
X82969690Y-87312181D02*
X82915815Y-87366056D01*
X82915815Y-87366056D02*
X82808065Y-87419930D01*
X82808065Y-87419930D02*
X82161568Y-87419930D01*
X82161568Y-87419930D02*
X82511754Y-87770117D01*
X83266001Y-87392993D02*
X83643125Y-87770117D01*
X83643125Y-87770117D02*
X82835003Y-88093366D01*
X87258505Y-112223372D02*
X87231568Y-112142560D01*
X87231568Y-112142560D02*
X87150756Y-112061748D01*
X87150756Y-112061748D02*
X87043006Y-112007873D01*
X87043006Y-112007873D02*
X86935257Y-112007873D01*
X86935257Y-112007873D02*
X86854444Y-112034810D01*
X86854444Y-112034810D02*
X86719757Y-112115623D01*
X86719757Y-112115623D02*
X86638945Y-112196435D01*
X86638945Y-112196435D02*
X86558133Y-112331122D01*
X86558133Y-112331122D02*
X86531196Y-112411934D01*
X86531196Y-112411934D02*
X86531196Y-112519684D01*
X86531196Y-112519684D02*
X86585070Y-112627433D01*
X86585070Y-112627433D02*
X86638945Y-112681308D01*
X86638945Y-112681308D02*
X86746695Y-112735183D01*
X86746695Y-112735183D02*
X86800570Y-112735183D01*
X86800570Y-112735183D02*
X86989131Y-112546621D01*
X86989131Y-112546621D02*
X86881382Y-112438871D01*
X86989131Y-113031494D02*
X87554817Y-112465809D01*
X87554817Y-112465809D02*
X87770316Y-112681308D01*
X87770316Y-112681308D02*
X87797253Y-112762120D01*
X87797253Y-112762120D02*
X87797253Y-112815995D01*
X87797253Y-112815995D02*
X87770316Y-112896807D01*
X87770316Y-112896807D02*
X87689504Y-112977619D01*
X87689504Y-112977619D02*
X87608692Y-113004557D01*
X87608692Y-113004557D02*
X87554817Y-113004557D01*
X87554817Y-113004557D02*
X87474005Y-112977619D01*
X87474005Y-112977619D02*
X87258505Y-112762120D01*
X87958878Y-113354743D02*
X87931940Y-113273931D01*
X87931940Y-113273931D02*
X87931940Y-113220056D01*
X87931940Y-113220056D02*
X87958878Y-113139244D01*
X87958878Y-113139244D02*
X87985815Y-113112306D01*
X87985815Y-113112306D02*
X88066627Y-113085369D01*
X88066627Y-113085369D02*
X88120502Y-113085369D01*
X88120502Y-113085369D02*
X88201314Y-113112306D01*
X88201314Y-113112306D02*
X88309064Y-113220056D01*
X88309064Y-113220056D02*
X88336001Y-113300868D01*
X88336001Y-113300868D02*
X88336001Y-113354743D01*
X88336001Y-113354743D02*
X88309064Y-113435555D01*
X88309064Y-113435555D02*
X88282127Y-113462493D01*
X88282127Y-113462493D02*
X88201314Y-113489430D01*
X88201314Y-113489430D02*
X88147440Y-113489430D01*
X88147440Y-113489430D02*
X88066627Y-113462493D01*
X88066627Y-113462493D02*
X87958878Y-113354743D01*
X87958878Y-113354743D02*
X87878066Y-113327806D01*
X87878066Y-113327806D02*
X87824191Y-113327806D01*
X87824191Y-113327806D02*
X87743379Y-113354743D01*
X87743379Y-113354743D02*
X87635629Y-113462493D01*
X87635629Y-113462493D02*
X87608692Y-113543305D01*
X87608692Y-113543305D02*
X87608692Y-113597180D01*
X87608692Y-113597180D02*
X87635629Y-113677992D01*
X87635629Y-113677992D02*
X87743379Y-113785741D01*
X87743379Y-113785741D02*
X87824191Y-113812679D01*
X87824191Y-113812679D02*
X87878066Y-113812679D01*
X87878066Y-113812679D02*
X87958878Y-113785741D01*
X87958878Y-113785741D02*
X88066627Y-113677992D01*
X88066627Y-113677992D02*
X88093565Y-113597180D01*
X88093565Y-113597180D02*
X88093565Y-113543305D01*
X88093565Y-113543305D02*
X88066627Y-113462493D01*
X71575950Y-84265064D02*
X71845324Y-84534438D01*
X71360450Y-84372813D02*
X72114698Y-83995690D01*
X72114698Y-83995690D02*
X71737574Y-84749937D01*
X71926136Y-84938499D02*
X72491821Y-84372813D01*
X72491821Y-84372813D02*
X72626508Y-84507500D01*
X72626508Y-84507500D02*
X72680383Y-84615250D01*
X72680383Y-84615250D02*
X72680383Y-84722999D01*
X72680383Y-84722999D02*
X72653446Y-84803812D01*
X72653446Y-84803812D02*
X72572633Y-84938499D01*
X72572633Y-84938499D02*
X72491821Y-85019311D01*
X72491821Y-85019311D02*
X72357134Y-85100123D01*
X72357134Y-85100123D02*
X72276322Y-85127060D01*
X72276322Y-85127060D02*
X72168572Y-85127060D01*
X72168572Y-85127060D02*
X72060823Y-85073186D01*
X72060823Y-85073186D02*
X71926136Y-84938499D01*
X72868945Y-85773558D02*
X72815070Y-85773558D01*
X72815070Y-85773558D02*
X72707320Y-85719683D01*
X72707320Y-85719683D02*
X72653446Y-85665808D01*
X72653446Y-85665808D02*
X72599571Y-85558059D01*
X72599571Y-85558059D02*
X72599571Y-85450309D01*
X72599571Y-85450309D02*
X72626508Y-85369497D01*
X72626508Y-85369497D02*
X72707320Y-85234810D01*
X72707320Y-85234810D02*
X72788133Y-85153998D01*
X72788133Y-85153998D02*
X72922820Y-85073186D01*
X72922820Y-85073186D02*
X73003632Y-85046248D01*
X73003632Y-85046248D02*
X73111381Y-85046248D01*
X73111381Y-85046248D02*
X73219131Y-85100123D01*
X73219131Y-85100123D02*
X73273006Y-85153998D01*
X73273006Y-85153998D02*
X73326881Y-85261747D01*
X73326881Y-85261747D02*
X73326881Y-85315622D01*
X72868945Y-85989057D02*
X73299943Y-86420056D01*
X73973378Y-85854370D02*
X73596255Y-86608618D01*
X73596255Y-86608618D02*
X74350502Y-86231494D01*
X74296627Y-87308990D02*
X74377439Y-86851054D01*
X73973378Y-86985741D02*
X74539064Y-86420056D01*
X74539064Y-86420056D02*
X74754563Y-86635555D01*
X74754563Y-86635555D02*
X74781500Y-86716367D01*
X74781500Y-86716367D02*
X74781500Y-86770242D01*
X74781500Y-86770242D02*
X74754563Y-86851054D01*
X74754563Y-86851054D02*
X74673751Y-86931866D01*
X74673751Y-86931866D02*
X74592938Y-86958804D01*
X74592938Y-86958804D02*
X74539064Y-86958804D01*
X74539064Y-86958804D02*
X74458251Y-86931866D01*
X74458251Y-86931866D02*
X74242752Y-86716367D01*
X74835375Y-87255115D02*
X75023937Y-87443677D01*
X74808438Y-87820800D02*
X74539064Y-87551426D01*
X74539064Y-87551426D02*
X75104749Y-86985741D01*
X75104749Y-86985741D02*
X75374123Y-87255115D01*
X75535748Y-87955488D02*
X75347186Y-87766926D01*
X75050874Y-88063237D02*
X75616560Y-87497552D01*
X75616560Y-87497552D02*
X75885934Y-87766926D01*
X99689131Y-86099998D02*
X99662194Y-86019185D01*
X99662194Y-86019185D02*
X99581381Y-85938373D01*
X99581381Y-85938373D02*
X99473632Y-85884498D01*
X99473632Y-85884498D02*
X99365882Y-85884498D01*
X99365882Y-85884498D02*
X99285070Y-85911436D01*
X99285070Y-85911436D02*
X99150383Y-85992248D01*
X99150383Y-85992248D02*
X99069571Y-86073060D01*
X99069571Y-86073060D02*
X98988758Y-86207747D01*
X98988758Y-86207747D02*
X98961821Y-86288560D01*
X98961821Y-86288560D02*
X98961821Y-86396309D01*
X98961821Y-86396309D02*
X99015696Y-86504059D01*
X99015696Y-86504059D02*
X99069571Y-86557934D01*
X99069571Y-86557934D02*
X99177320Y-86611808D01*
X99177320Y-86611808D02*
X99231195Y-86611808D01*
X99231195Y-86611808D02*
X99419757Y-86423247D01*
X99419757Y-86423247D02*
X99312007Y-86315497D01*
X99419757Y-86908120D02*
X99985442Y-86342434D01*
X99985442Y-86342434D02*
X100200942Y-86557934D01*
X100200942Y-86557934D02*
X100227879Y-86638746D01*
X100227879Y-86638746D02*
X100227879Y-86692621D01*
X100227879Y-86692621D02*
X100200942Y-86773433D01*
X100200942Y-86773433D02*
X100120129Y-86854245D01*
X100120129Y-86854245D02*
X100039317Y-86881182D01*
X100039317Y-86881182D02*
X99985442Y-86881182D01*
X99985442Y-86881182D02*
X99904630Y-86854245D01*
X99904630Y-86854245D02*
X99689131Y-86638746D01*
X100281754Y-87770117D02*
X99958505Y-87446868D01*
X100120129Y-87608492D02*
X100685815Y-87042807D01*
X100685815Y-87042807D02*
X100551128Y-87069744D01*
X100551128Y-87069744D02*
X100443378Y-87069744D01*
X100443378Y-87069744D02*
X100362566Y-87042807D01*
X100551128Y-88039491D02*
X100658878Y-88147240D01*
X100658878Y-88147240D02*
X100739690Y-88174178D01*
X100739690Y-88174178D02*
X100793565Y-88174178D01*
X100793565Y-88174178D02*
X100928252Y-88147240D01*
X100928252Y-88147240D02*
X101062939Y-88066428D01*
X101062939Y-88066428D02*
X101278438Y-87850929D01*
X101278438Y-87850929D02*
X101305375Y-87770117D01*
X101305375Y-87770117D02*
X101305375Y-87716242D01*
X101305375Y-87716242D02*
X101278438Y-87635430D01*
X101278438Y-87635430D02*
X101170688Y-87527680D01*
X101170688Y-87527680D02*
X101089876Y-87500743D01*
X101089876Y-87500743D02*
X101036001Y-87500743D01*
X101036001Y-87500743D02*
X100955189Y-87527680D01*
X100955189Y-87527680D02*
X100820502Y-87662367D01*
X100820502Y-87662367D02*
X100793565Y-87743179D01*
X100793565Y-87743179D02*
X100793565Y-87797054D01*
X100793565Y-87797054D02*
X100820502Y-87877866D01*
X100820502Y-87877866D02*
X100928252Y-87985616D01*
X100928252Y-87985616D02*
X101009064Y-88012553D01*
X101009064Y-88012553D02*
X101062939Y-88012553D01*
X101062939Y-88012553D02*
X101143751Y-87985616D01*
X109849131Y-86099998D02*
X109822194Y-86019185D01*
X109822194Y-86019185D02*
X109741381Y-85938373D01*
X109741381Y-85938373D02*
X109633632Y-85884498D01*
X109633632Y-85884498D02*
X109525882Y-85884498D01*
X109525882Y-85884498D02*
X109445070Y-85911436D01*
X109445070Y-85911436D02*
X109310383Y-85992248D01*
X109310383Y-85992248D02*
X109229571Y-86073060D01*
X109229571Y-86073060D02*
X109148758Y-86207747D01*
X109148758Y-86207747D02*
X109121821Y-86288560D01*
X109121821Y-86288560D02*
X109121821Y-86396309D01*
X109121821Y-86396309D02*
X109175696Y-86504059D01*
X109175696Y-86504059D02*
X109229571Y-86557934D01*
X109229571Y-86557934D02*
X109337320Y-86611808D01*
X109337320Y-86611808D02*
X109391195Y-86611808D01*
X109391195Y-86611808D02*
X109579757Y-86423247D01*
X109579757Y-86423247D02*
X109472007Y-86315497D01*
X109579757Y-86908120D02*
X110145442Y-86342434D01*
X110145442Y-86342434D02*
X110360942Y-86557934D01*
X110360942Y-86557934D02*
X110387879Y-86638746D01*
X110387879Y-86638746D02*
X110387879Y-86692621D01*
X110387879Y-86692621D02*
X110360942Y-86773433D01*
X110360942Y-86773433D02*
X110280129Y-86854245D01*
X110280129Y-86854245D02*
X110199317Y-86881182D01*
X110199317Y-86881182D02*
X110145442Y-86881182D01*
X110145442Y-86881182D02*
X110064630Y-86854245D01*
X110064630Y-86854245D02*
X109849131Y-86638746D01*
X110441754Y-87770117D02*
X110118505Y-87446868D01*
X110280129Y-87608492D02*
X110845815Y-87042807D01*
X110845815Y-87042807D02*
X110711128Y-87069744D01*
X110711128Y-87069744D02*
X110603378Y-87069744D01*
X110603378Y-87069744D02*
X110522566Y-87042807D01*
X111492313Y-87689305D02*
X111384563Y-87581555D01*
X111384563Y-87581555D02*
X111303751Y-87554618D01*
X111303751Y-87554618D02*
X111249876Y-87554618D01*
X111249876Y-87554618D02*
X111115189Y-87581555D01*
X111115189Y-87581555D02*
X110980502Y-87662367D01*
X110980502Y-87662367D02*
X110765003Y-87877866D01*
X110765003Y-87877866D02*
X110738065Y-87958679D01*
X110738065Y-87958679D02*
X110738065Y-88012553D01*
X110738065Y-88012553D02*
X110765003Y-88093366D01*
X110765003Y-88093366D02*
X110872752Y-88201115D01*
X110872752Y-88201115D02*
X110953565Y-88228053D01*
X110953565Y-88228053D02*
X111007439Y-88228053D01*
X111007439Y-88228053D02*
X111088252Y-88201115D01*
X111088252Y-88201115D02*
X111222939Y-88066428D01*
X111222939Y-88066428D02*
X111249876Y-87985616D01*
X111249876Y-87985616D02*
X111249876Y-87931741D01*
X111249876Y-87931741D02*
X111222939Y-87850929D01*
X111222939Y-87850929D02*
X111115189Y-87743179D01*
X111115189Y-87743179D02*
X111034377Y-87716242D01*
X111034377Y-87716242D02*
X110980502Y-87716242D01*
X110980502Y-87716242D02*
X110899690Y-87743179D01*
X105011568Y-112196435D02*
X104984631Y-112115623D01*
X104984631Y-112115623D02*
X104903819Y-112034811D01*
X104903819Y-112034811D02*
X104796069Y-111980936D01*
X104796069Y-111980936D02*
X104688319Y-111980936D01*
X104688319Y-111980936D02*
X104607507Y-112007873D01*
X104607507Y-112007873D02*
X104472820Y-112088685D01*
X104472820Y-112088685D02*
X104392008Y-112169498D01*
X104392008Y-112169498D02*
X104311196Y-112304185D01*
X104311196Y-112304185D02*
X104284258Y-112384997D01*
X104284258Y-112384997D02*
X104284258Y-112492746D01*
X104284258Y-112492746D02*
X104338133Y-112600496D01*
X104338133Y-112600496D02*
X104392008Y-112654371D01*
X104392008Y-112654371D02*
X104499758Y-112708246D01*
X104499758Y-112708246D02*
X104553632Y-112708246D01*
X104553632Y-112708246D02*
X104742194Y-112519684D01*
X104742194Y-112519684D02*
X104634445Y-112411934D01*
X104742194Y-113004557D02*
X105307880Y-112438872D01*
X105307880Y-112438872D02*
X105065443Y-113327806D01*
X105065443Y-113327806D02*
X105631128Y-112762120D01*
X105334817Y-113597180D02*
X105900502Y-113031494D01*
X105900502Y-113031494D02*
X106035189Y-113166181D01*
X106035189Y-113166181D02*
X106089064Y-113273931D01*
X106089064Y-113273931D02*
X106089064Y-113381680D01*
X106089064Y-113381680D02*
X106062127Y-113462493D01*
X106062127Y-113462493D02*
X105981314Y-113597180D01*
X105981314Y-113597180D02*
X105900502Y-113677992D01*
X105900502Y-113677992D02*
X105765815Y-113758804D01*
X105765815Y-113758804D02*
X105685003Y-113785741D01*
X105685003Y-113785741D02*
X105577253Y-113785741D01*
X105577253Y-113785741D02*
X105469504Y-113731867D01*
X105469504Y-113731867D02*
X105334817Y-113597180D01*
X72018505Y-112223372D02*
X71991568Y-112142560D01*
X71991568Y-112142560D02*
X71910756Y-112061748D01*
X71910756Y-112061748D02*
X71803006Y-112007873D01*
X71803006Y-112007873D02*
X71695257Y-112007873D01*
X71695257Y-112007873D02*
X71614444Y-112034810D01*
X71614444Y-112034810D02*
X71479757Y-112115623D01*
X71479757Y-112115623D02*
X71398945Y-112196435D01*
X71398945Y-112196435D02*
X71318133Y-112331122D01*
X71318133Y-112331122D02*
X71291196Y-112411934D01*
X71291196Y-112411934D02*
X71291196Y-112519684D01*
X71291196Y-112519684D02*
X71345070Y-112627433D01*
X71345070Y-112627433D02*
X71398945Y-112681308D01*
X71398945Y-112681308D02*
X71506695Y-112735183D01*
X71506695Y-112735183D02*
X71560570Y-112735183D01*
X71560570Y-112735183D02*
X71749131Y-112546621D01*
X71749131Y-112546621D02*
X71641382Y-112438871D01*
X71749131Y-113031494D02*
X72314817Y-112465809D01*
X72314817Y-112465809D02*
X72530316Y-112681308D01*
X72530316Y-112681308D02*
X72557253Y-112762120D01*
X72557253Y-112762120D02*
X72557253Y-112815995D01*
X72557253Y-112815995D02*
X72530316Y-112896807D01*
X72530316Y-112896807D02*
X72449504Y-112977619D01*
X72449504Y-112977619D02*
X72368692Y-113004557D01*
X72368692Y-113004557D02*
X72314817Y-113004557D01*
X72314817Y-113004557D02*
X72234005Y-112977619D01*
X72234005Y-112977619D02*
X72018505Y-112762120D01*
X72826627Y-112977619D02*
X73176814Y-113327806D01*
X73176814Y-113327806D02*
X72772753Y-113354743D01*
X72772753Y-113354743D02*
X72853565Y-113435555D01*
X72853565Y-113435555D02*
X72880502Y-113516367D01*
X72880502Y-113516367D02*
X72880502Y-113570242D01*
X72880502Y-113570242D02*
X72853565Y-113651054D01*
X72853565Y-113651054D02*
X72718878Y-113785741D01*
X72718878Y-113785741D02*
X72638066Y-113812679D01*
X72638066Y-113812679D02*
X72584191Y-113812679D01*
X72584191Y-113812679D02*
X72503379Y-113785741D01*
X72503379Y-113785741D02*
X72341754Y-113624117D01*
X72341754Y-113624117D02*
X72314817Y-113543305D01*
X72314817Y-113543305D02*
X72314817Y-113489430D01*
X107309131Y-86099998D02*
X107282194Y-86019185D01*
X107282194Y-86019185D02*
X107201381Y-85938373D01*
X107201381Y-85938373D02*
X107093632Y-85884498D01*
X107093632Y-85884498D02*
X106985882Y-85884498D01*
X106985882Y-85884498D02*
X106905070Y-85911436D01*
X106905070Y-85911436D02*
X106770383Y-85992248D01*
X106770383Y-85992248D02*
X106689571Y-86073060D01*
X106689571Y-86073060D02*
X106608758Y-86207747D01*
X106608758Y-86207747D02*
X106581821Y-86288560D01*
X106581821Y-86288560D02*
X106581821Y-86396309D01*
X106581821Y-86396309D02*
X106635696Y-86504059D01*
X106635696Y-86504059D02*
X106689571Y-86557934D01*
X106689571Y-86557934D02*
X106797320Y-86611808D01*
X106797320Y-86611808D02*
X106851195Y-86611808D01*
X106851195Y-86611808D02*
X107039757Y-86423247D01*
X107039757Y-86423247D02*
X106932007Y-86315497D01*
X107039757Y-86908120D02*
X107605442Y-86342434D01*
X107605442Y-86342434D02*
X107820942Y-86557934D01*
X107820942Y-86557934D02*
X107847879Y-86638746D01*
X107847879Y-86638746D02*
X107847879Y-86692621D01*
X107847879Y-86692621D02*
X107820942Y-86773433D01*
X107820942Y-86773433D02*
X107740129Y-86854245D01*
X107740129Y-86854245D02*
X107659317Y-86881182D01*
X107659317Y-86881182D02*
X107605442Y-86881182D01*
X107605442Y-86881182D02*
X107524630Y-86854245D01*
X107524630Y-86854245D02*
X107309131Y-86638746D01*
X107901754Y-87770117D02*
X107578505Y-87446868D01*
X107740129Y-87608492D02*
X108305815Y-87042807D01*
X108305815Y-87042807D02*
X108171128Y-87069744D01*
X108171128Y-87069744D02*
X108063378Y-87069744D01*
X108063378Y-87069744D02*
X107982566Y-87042807D01*
X108656001Y-87392993D02*
X109033125Y-87770117D01*
X109033125Y-87770117D02*
X108225003Y-88093366D01*
X105011568Y-86596435D02*
X104984631Y-86515623D01*
X104984631Y-86515623D02*
X104903819Y-86434811D01*
X104903819Y-86434811D02*
X104796069Y-86380936D01*
X104796069Y-86380936D02*
X104688319Y-86380936D01*
X104688319Y-86380936D02*
X104607507Y-86407873D01*
X104607507Y-86407873D02*
X104472820Y-86488685D01*
X104472820Y-86488685D02*
X104392008Y-86569498D01*
X104392008Y-86569498D02*
X104311196Y-86704185D01*
X104311196Y-86704185D02*
X104284258Y-86784997D01*
X104284258Y-86784997D02*
X104284258Y-86892746D01*
X104284258Y-86892746D02*
X104338133Y-87000496D01*
X104338133Y-87000496D02*
X104392008Y-87054371D01*
X104392008Y-87054371D02*
X104499758Y-87108246D01*
X104499758Y-87108246D02*
X104553632Y-87108246D01*
X104553632Y-87108246D02*
X104742194Y-86919684D01*
X104742194Y-86919684D02*
X104634445Y-86811934D01*
X104742194Y-87404557D02*
X105307880Y-86838872D01*
X105307880Y-86838872D02*
X105065443Y-87727806D01*
X105065443Y-87727806D02*
X105631128Y-87162120D01*
X105334817Y-87997180D02*
X105900502Y-87431494D01*
X105900502Y-87431494D02*
X106035189Y-87566181D01*
X106035189Y-87566181D02*
X106089064Y-87673931D01*
X106089064Y-87673931D02*
X106089064Y-87781680D01*
X106089064Y-87781680D02*
X106062127Y-87862493D01*
X106062127Y-87862493D02*
X105981314Y-87997180D01*
X105981314Y-87997180D02*
X105900502Y-88077992D01*
X105900502Y-88077992D02*
X105765815Y-88158804D01*
X105765815Y-88158804D02*
X105685003Y-88185741D01*
X105685003Y-88185741D02*
X105577253Y-88185741D01*
X105577253Y-88185741D02*
X105469504Y-88131867D01*
X105469504Y-88131867D02*
X105334817Y-87997180D01*
X78668759Y-86153873D02*
X78938133Y-86423247D01*
X78453260Y-86261623D02*
X79207507Y-85884499D01*
X79207507Y-85884499D02*
X78830384Y-86638746D01*
X79854005Y-86584871D02*
X79827067Y-86504059D01*
X79827067Y-86504059D02*
X79746255Y-86423247D01*
X79746255Y-86423247D02*
X79638505Y-86369372D01*
X79638505Y-86369372D02*
X79530756Y-86369372D01*
X79530756Y-86369372D02*
X79449944Y-86396310D01*
X79449944Y-86396310D02*
X79315257Y-86477122D01*
X79315257Y-86477122D02*
X79234444Y-86557934D01*
X79234444Y-86557934D02*
X79153632Y-86692621D01*
X79153632Y-86692621D02*
X79126695Y-86773433D01*
X79126695Y-86773433D02*
X79126695Y-86881183D01*
X79126695Y-86881183D02*
X79180570Y-86988932D01*
X79180570Y-86988932D02*
X79234444Y-87042807D01*
X79234444Y-87042807D02*
X79342194Y-87096682D01*
X79342194Y-87096682D02*
X79396069Y-87096682D01*
X79396069Y-87096682D02*
X79584631Y-86908120D01*
X79584631Y-86908120D02*
X79476881Y-86800371D01*
X79584631Y-87392993D02*
X80150316Y-86827308D01*
X80150316Y-86827308D02*
X79907879Y-87716242D01*
X79907879Y-87716242D02*
X80473565Y-87150557D01*
X80177253Y-87985616D02*
X80742939Y-87419931D01*
X80742939Y-87419931D02*
X80877626Y-87554618D01*
X80877626Y-87554618D02*
X80931501Y-87662367D01*
X80931501Y-87662367D02*
X80931501Y-87770117D01*
X80931501Y-87770117D02*
X80904563Y-87850929D01*
X80904563Y-87850929D02*
X80823751Y-87985616D01*
X80823751Y-87985616D02*
X80742939Y-88066428D01*
X80742939Y-88066428D02*
X80608252Y-88147241D01*
X80608252Y-88147241D02*
X80527439Y-88174178D01*
X80527439Y-88174178D02*
X80419690Y-88174178D01*
X80419690Y-88174178D02*
X80311940Y-88120303D01*
X80311940Y-88120303D02*
X80177253Y-87985616D01*
X64388505Y-112323372D02*
X64361568Y-112242560D01*
X64361568Y-112242560D02*
X64280756Y-112161748D01*
X64280756Y-112161748D02*
X64173006Y-112107873D01*
X64173006Y-112107873D02*
X64065257Y-112107873D01*
X64065257Y-112107873D02*
X63984444Y-112134810D01*
X63984444Y-112134810D02*
X63849757Y-112215623D01*
X63849757Y-112215623D02*
X63768945Y-112296435D01*
X63768945Y-112296435D02*
X63688133Y-112431122D01*
X63688133Y-112431122D02*
X63661196Y-112511934D01*
X63661196Y-112511934D02*
X63661196Y-112619684D01*
X63661196Y-112619684D02*
X63715070Y-112727433D01*
X63715070Y-112727433D02*
X63768945Y-112781308D01*
X63768945Y-112781308D02*
X63876695Y-112835183D01*
X63876695Y-112835183D02*
X63930570Y-112835183D01*
X63930570Y-112835183D02*
X64119131Y-112646621D01*
X64119131Y-112646621D02*
X64011382Y-112538871D01*
X64119131Y-113131494D02*
X64684817Y-112565809D01*
X64684817Y-112565809D02*
X64900316Y-112781308D01*
X64900316Y-112781308D02*
X64927253Y-112862120D01*
X64927253Y-112862120D02*
X64927253Y-112915995D01*
X64927253Y-112915995D02*
X64900316Y-112996807D01*
X64900316Y-112996807D02*
X64819504Y-113077619D01*
X64819504Y-113077619D02*
X64738692Y-113104557D01*
X64738692Y-113104557D02*
X64684817Y-113104557D01*
X64684817Y-113104557D02*
X64604005Y-113077619D01*
X64604005Y-113077619D02*
X64388505Y-112862120D01*
X64981128Y-113993491D02*
X64657879Y-113670242D01*
X64819504Y-113831867D02*
X65385189Y-113266181D01*
X65385189Y-113266181D02*
X65250502Y-113293119D01*
X65250502Y-113293119D02*
X65142753Y-113293119D01*
X65142753Y-113293119D02*
X65061940Y-113266181D01*
X71819131Y-86200123D02*
X72169317Y-86550309D01*
X72169317Y-86550309D02*
X71765256Y-86577247D01*
X71765256Y-86577247D02*
X71846068Y-86658059D01*
X71846068Y-86658059D02*
X71873006Y-86738871D01*
X71873006Y-86738871D02*
X71873006Y-86792746D01*
X71873006Y-86792746D02*
X71846068Y-86873558D01*
X71846068Y-86873558D02*
X71711381Y-87008245D01*
X71711381Y-87008245D02*
X71630569Y-87035182D01*
X71630569Y-87035182D02*
X71576694Y-87035182D01*
X71576694Y-87035182D02*
X71495882Y-87008245D01*
X71495882Y-87008245D02*
X71334258Y-86846621D01*
X71334258Y-86846621D02*
X71307320Y-86765808D01*
X71307320Y-86765808D02*
X71307320Y-86711934D01*
X72330942Y-86711934D02*
X71953818Y-87466181D01*
X71953818Y-87466181D02*
X72708065Y-87089057D01*
X72842752Y-87223744D02*
X73192938Y-87573930D01*
X73192938Y-87573930D02*
X72788877Y-87600868D01*
X72788877Y-87600868D02*
X72869690Y-87681680D01*
X72869690Y-87681680D02*
X72896627Y-87762492D01*
X72896627Y-87762492D02*
X72896627Y-87816367D01*
X72896627Y-87816367D02*
X72869690Y-87897179D01*
X72869690Y-87897179D02*
X72735003Y-88031866D01*
X72735003Y-88031866D02*
X72654190Y-88058804D01*
X72654190Y-88058804D02*
X72600316Y-88058804D01*
X72600316Y-88058804D02*
X72519503Y-88031866D01*
X72519503Y-88031866D02*
X72357879Y-87870242D01*
X72357879Y-87870242D02*
X72330942Y-87789430D01*
X72330942Y-87789430D02*
X72330942Y-87735555D01*
X61182414Y-85463406D02*
X60805290Y-86217653D01*
X60805290Y-86217653D02*
X61559537Y-85840529D01*
X61667287Y-86487027D02*
X61721161Y-86594776D01*
X61721161Y-86594776D02*
X61721161Y-86648651D01*
X61721161Y-86648651D02*
X61694224Y-86729463D01*
X61694224Y-86729463D02*
X61613412Y-86810276D01*
X61613412Y-86810276D02*
X61532600Y-86837213D01*
X61532600Y-86837213D02*
X61478725Y-86837213D01*
X61478725Y-86837213D02*
X61397913Y-86810276D01*
X61397913Y-86810276D02*
X61182413Y-86594776D01*
X61182413Y-86594776D02*
X61748099Y-86029091D01*
X61748099Y-86029091D02*
X61936661Y-86217653D01*
X61936661Y-86217653D02*
X61963598Y-86298465D01*
X61963598Y-86298465D02*
X61963598Y-86352340D01*
X61963598Y-86352340D02*
X61936661Y-86433152D01*
X61936661Y-86433152D02*
X61882786Y-86487027D01*
X61882786Y-86487027D02*
X61801974Y-86513964D01*
X61801974Y-86513964D02*
X61748099Y-86513964D01*
X61748099Y-86513964D02*
X61667287Y-86487027D01*
X61667287Y-86487027D02*
X61478725Y-86298465D01*
X62313784Y-86594776D02*
X61855848Y-87052712D01*
X61855848Y-87052712D02*
X61828911Y-87133524D01*
X61828911Y-87133524D02*
X61828911Y-87187399D01*
X61828911Y-87187399D02*
X61855848Y-87268211D01*
X61855848Y-87268211D02*
X61963598Y-87375961D01*
X61963598Y-87375961D02*
X62044410Y-87402898D01*
X62044410Y-87402898D02*
X62098285Y-87402898D01*
X62098285Y-87402898D02*
X62179097Y-87375961D01*
X62179097Y-87375961D02*
X62637033Y-86918025D01*
X62340722Y-87699210D02*
X62394596Y-87806959D01*
X62394596Y-87806959D02*
X62529283Y-87941646D01*
X62529283Y-87941646D02*
X62610096Y-87968584D01*
X62610096Y-87968584D02*
X62663970Y-87968584D01*
X62663970Y-87968584D02*
X62744783Y-87941646D01*
X62744783Y-87941646D02*
X62798657Y-87887771D01*
X62798657Y-87887771D02*
X62825595Y-87806959D01*
X62825595Y-87806959D02*
X62825595Y-87753084D01*
X62825595Y-87753084D02*
X62798657Y-87672272D01*
X62798657Y-87672272D02*
X62717845Y-87537585D01*
X62717845Y-87537585D02*
X62690908Y-87456773D01*
X62690908Y-87456773D02*
X62690908Y-87402898D01*
X62690908Y-87402898D02*
X62717845Y-87322086D01*
X62717845Y-87322086D02*
X62771720Y-87268211D01*
X62771720Y-87268211D02*
X62852532Y-87241274D01*
X62852532Y-87241274D02*
X62906407Y-87241274D01*
X62906407Y-87241274D02*
X62987219Y-87268211D01*
X62987219Y-87268211D02*
X63121906Y-87402898D01*
X63121906Y-87402898D02*
X63175781Y-87510648D01*
X67751415Y-84632407D02*
X68101601Y-84982593D01*
X68101601Y-84982593D02*
X67697540Y-85009531D01*
X67697540Y-85009531D02*
X67778353Y-85090343D01*
X67778353Y-85090343D02*
X67805290Y-85171155D01*
X67805290Y-85171155D02*
X67805290Y-85225030D01*
X67805290Y-85225030D02*
X67778353Y-85305842D01*
X67778353Y-85305842D02*
X67643666Y-85440529D01*
X67643666Y-85440529D02*
X67562853Y-85467467D01*
X67562853Y-85467467D02*
X67508979Y-85467467D01*
X67508979Y-85467467D02*
X67428166Y-85440529D01*
X67428166Y-85440529D02*
X67266542Y-85278905D01*
X67266542Y-85278905D02*
X67239605Y-85198093D01*
X67239605Y-85198093D02*
X67239605Y-85144218D01*
X68263226Y-85144218D02*
X67886102Y-85898465D01*
X67886102Y-85898465D02*
X68640350Y-85521342D01*
X68775036Y-85656028D02*
X69125223Y-86006215D01*
X69125223Y-86006215D02*
X68721162Y-86033152D01*
X68721162Y-86033152D02*
X68801974Y-86113964D01*
X68801974Y-86113964D02*
X68828911Y-86194776D01*
X68828911Y-86194776D02*
X68828911Y-86248651D01*
X68828911Y-86248651D02*
X68801974Y-86329464D01*
X68801974Y-86329464D02*
X68667287Y-86464151D01*
X68667287Y-86464151D02*
X68586475Y-86491088D01*
X68586475Y-86491088D02*
X68532600Y-86491088D01*
X68532600Y-86491088D02*
X68451788Y-86464151D01*
X68451788Y-86464151D02*
X68290163Y-86302526D01*
X68290163Y-86302526D02*
X68263226Y-86221714D01*
X68263226Y-86221714D02*
X68263226Y-86167839D01*
X68613412Y-86733525D02*
X69044411Y-87164523D01*
X69529284Y-86949024D02*
X69717846Y-87137586D01*
X69502347Y-87514709D02*
X69232973Y-87245335D01*
X69232973Y-87245335D02*
X69798658Y-86679650D01*
X69798658Y-86679650D02*
X70068032Y-86949024D01*
X69744784Y-87757146D02*
X70310469Y-87191461D01*
X70310469Y-87191461D02*
X70068032Y-88080395D01*
X70068032Y-88080395D02*
X70633718Y-87514710D01*
X97149131Y-112353998D02*
X97122194Y-112273185D01*
X97122194Y-112273185D02*
X97041381Y-112192373D01*
X97041381Y-112192373D02*
X96933632Y-112138498D01*
X96933632Y-112138498D02*
X96825882Y-112138498D01*
X96825882Y-112138498D02*
X96745070Y-112165436D01*
X96745070Y-112165436D02*
X96610383Y-112246248D01*
X96610383Y-112246248D02*
X96529571Y-112327060D01*
X96529571Y-112327060D02*
X96448758Y-112461747D01*
X96448758Y-112461747D02*
X96421821Y-112542560D01*
X96421821Y-112542560D02*
X96421821Y-112650309D01*
X96421821Y-112650309D02*
X96475696Y-112758059D01*
X96475696Y-112758059D02*
X96529571Y-112811934D01*
X96529571Y-112811934D02*
X96637320Y-112865808D01*
X96637320Y-112865808D02*
X96691195Y-112865808D01*
X96691195Y-112865808D02*
X96879757Y-112677247D01*
X96879757Y-112677247D02*
X96772007Y-112569497D01*
X96879757Y-113162120D02*
X97445442Y-112596434D01*
X97445442Y-112596434D02*
X97660942Y-112811934D01*
X97660942Y-112811934D02*
X97687879Y-112892746D01*
X97687879Y-112892746D02*
X97687879Y-112946621D01*
X97687879Y-112946621D02*
X97660942Y-113027433D01*
X97660942Y-113027433D02*
X97580129Y-113108245D01*
X97580129Y-113108245D02*
X97499317Y-113135182D01*
X97499317Y-113135182D02*
X97445442Y-113135182D01*
X97445442Y-113135182D02*
X97364630Y-113108245D01*
X97364630Y-113108245D02*
X97149131Y-112892746D01*
X97741754Y-114024117D02*
X97418505Y-113700868D01*
X97580129Y-113862492D02*
X98145815Y-113296807D01*
X98145815Y-113296807D02*
X98011128Y-113323744D01*
X98011128Y-113323744D02*
X97903378Y-113323744D01*
X97903378Y-113323744D02*
X97822566Y-113296807D01*
X98280502Y-114562865D02*
X97957253Y-114239616D01*
X98118878Y-114401240D02*
X98684563Y-113835555D01*
X98684563Y-113835555D02*
X98549876Y-113862492D01*
X98549876Y-113862492D02*
X98442126Y-113862492D01*
X98442126Y-113862492D02*
X98361314Y-113835555D01*
X97149131Y-86099998D02*
X97122194Y-86019185D01*
X97122194Y-86019185D02*
X97041381Y-85938373D01*
X97041381Y-85938373D02*
X96933632Y-85884498D01*
X96933632Y-85884498D02*
X96825882Y-85884498D01*
X96825882Y-85884498D02*
X96745070Y-85911436D01*
X96745070Y-85911436D02*
X96610383Y-85992248D01*
X96610383Y-85992248D02*
X96529571Y-86073060D01*
X96529571Y-86073060D02*
X96448758Y-86207747D01*
X96448758Y-86207747D02*
X96421821Y-86288560D01*
X96421821Y-86288560D02*
X96421821Y-86396309D01*
X96421821Y-86396309D02*
X96475696Y-86504059D01*
X96475696Y-86504059D02*
X96529571Y-86557934D01*
X96529571Y-86557934D02*
X96637320Y-86611808D01*
X96637320Y-86611808D02*
X96691195Y-86611808D01*
X96691195Y-86611808D02*
X96879757Y-86423247D01*
X96879757Y-86423247D02*
X96772007Y-86315497D01*
X96879757Y-86908120D02*
X97445442Y-86342434D01*
X97445442Y-86342434D02*
X97660942Y-86557934D01*
X97660942Y-86557934D02*
X97687879Y-86638746D01*
X97687879Y-86638746D02*
X97687879Y-86692621D01*
X97687879Y-86692621D02*
X97660942Y-86773433D01*
X97660942Y-86773433D02*
X97580129Y-86854245D01*
X97580129Y-86854245D02*
X97499317Y-86881182D01*
X97499317Y-86881182D02*
X97445442Y-86881182D01*
X97445442Y-86881182D02*
X97364630Y-86854245D01*
X97364630Y-86854245D02*
X97149131Y-86638746D01*
X97930316Y-86935057D02*
X97984190Y-86935057D01*
X97984190Y-86935057D02*
X98065003Y-86961995D01*
X98065003Y-86961995D02*
X98199690Y-87096682D01*
X98199690Y-87096682D02*
X98226627Y-87177494D01*
X98226627Y-87177494D02*
X98226627Y-87231369D01*
X98226627Y-87231369D02*
X98199690Y-87312181D01*
X98199690Y-87312181D02*
X98145815Y-87366056D01*
X98145815Y-87366056D02*
X98038065Y-87419930D01*
X98038065Y-87419930D02*
X97391568Y-87419930D01*
X97391568Y-87419930D02*
X97741754Y-87770117D01*
X98657626Y-87554618D02*
X98711500Y-87608492D01*
X98711500Y-87608492D02*
X98738438Y-87689305D01*
X98738438Y-87689305D02*
X98738438Y-87743179D01*
X98738438Y-87743179D02*
X98711500Y-87823992D01*
X98711500Y-87823992D02*
X98630688Y-87958679D01*
X98630688Y-87958679D02*
X98496001Y-88093366D01*
X98496001Y-88093366D02*
X98361314Y-88174178D01*
X98361314Y-88174178D02*
X98280502Y-88201115D01*
X98280502Y-88201115D02*
X98226627Y-88201115D01*
X98226627Y-88201115D02*
X98145815Y-88174178D01*
X98145815Y-88174178D02*
X98091940Y-88120303D01*
X98091940Y-88120303D02*
X98065003Y-88039491D01*
X98065003Y-88039491D02*
X98065003Y-87985616D01*
X98065003Y-87985616D02*
X98091940Y-87904804D01*
X98091940Y-87904804D02*
X98172752Y-87770117D01*
X98172752Y-87770117D02*
X98307439Y-87635430D01*
X98307439Y-87635430D02*
X98442126Y-87554618D01*
X98442126Y-87554618D02*
X98522939Y-87527680D01*
X98522939Y-87527680D02*
X98576813Y-87527680D01*
X98576813Y-87527680D02*
X98657626Y-87554618D01*
X66911568Y-112196435D02*
X66884631Y-112115623D01*
X66884631Y-112115623D02*
X66803819Y-112034811D01*
X66803819Y-112034811D02*
X66696069Y-111980936D01*
X66696069Y-111980936D02*
X66588319Y-111980936D01*
X66588319Y-111980936D02*
X66507507Y-112007873D01*
X66507507Y-112007873D02*
X66372820Y-112088685D01*
X66372820Y-112088685D02*
X66292008Y-112169498D01*
X66292008Y-112169498D02*
X66211196Y-112304185D01*
X66211196Y-112304185D02*
X66184258Y-112384997D01*
X66184258Y-112384997D02*
X66184258Y-112492746D01*
X66184258Y-112492746D02*
X66238133Y-112600496D01*
X66238133Y-112600496D02*
X66292008Y-112654371D01*
X66292008Y-112654371D02*
X66399758Y-112708246D01*
X66399758Y-112708246D02*
X66453632Y-112708246D01*
X66453632Y-112708246D02*
X66642194Y-112519684D01*
X66642194Y-112519684D02*
X66534445Y-112411934D01*
X66642194Y-113004557D02*
X67207880Y-112438872D01*
X67207880Y-112438872D02*
X66965443Y-113327806D01*
X66965443Y-113327806D02*
X67531128Y-112762120D01*
X67234817Y-113597180D02*
X67800502Y-113031494D01*
X67800502Y-113031494D02*
X67935189Y-113166181D01*
X67935189Y-113166181D02*
X67989064Y-113273931D01*
X67989064Y-113273931D02*
X67989064Y-113381680D01*
X67989064Y-113381680D02*
X67962127Y-113462493D01*
X67962127Y-113462493D02*
X67881314Y-113597180D01*
X67881314Y-113597180D02*
X67800502Y-113677992D01*
X67800502Y-113677992D02*
X67665815Y-113758804D01*
X67665815Y-113758804D02*
X67585003Y-113785741D01*
X67585003Y-113785741D02*
X67477253Y-113785741D01*
X67477253Y-113785741D02*
X67369504Y-113731867D01*
X67369504Y-113731867D02*
X67234817Y-113597180D01*
X61858505Y-112223372D02*
X61831568Y-112142560D01*
X61831568Y-112142560D02*
X61750756Y-112061748D01*
X61750756Y-112061748D02*
X61643006Y-112007873D01*
X61643006Y-112007873D02*
X61535257Y-112007873D01*
X61535257Y-112007873D02*
X61454444Y-112034810D01*
X61454444Y-112034810D02*
X61319757Y-112115623D01*
X61319757Y-112115623D02*
X61238945Y-112196435D01*
X61238945Y-112196435D02*
X61158133Y-112331122D01*
X61158133Y-112331122D02*
X61131196Y-112411934D01*
X61131196Y-112411934D02*
X61131196Y-112519684D01*
X61131196Y-112519684D02*
X61185070Y-112627433D01*
X61185070Y-112627433D02*
X61238945Y-112681308D01*
X61238945Y-112681308D02*
X61346695Y-112735183D01*
X61346695Y-112735183D02*
X61400570Y-112735183D01*
X61400570Y-112735183D02*
X61589131Y-112546621D01*
X61589131Y-112546621D02*
X61481382Y-112438871D01*
X61589131Y-113031494D02*
X62154817Y-112465809D01*
X62154817Y-112465809D02*
X62370316Y-112681308D01*
X62370316Y-112681308D02*
X62397253Y-112762120D01*
X62397253Y-112762120D02*
X62397253Y-112815995D01*
X62397253Y-112815995D02*
X62370316Y-112896807D01*
X62370316Y-112896807D02*
X62289504Y-112977619D01*
X62289504Y-112977619D02*
X62208692Y-113004557D01*
X62208692Y-113004557D02*
X62154817Y-113004557D01*
X62154817Y-113004557D02*
X62074005Y-112977619D01*
X62074005Y-112977619D02*
X61858505Y-112762120D01*
X62828252Y-113139244D02*
X62882127Y-113193119D01*
X62882127Y-113193119D02*
X62909064Y-113273931D01*
X62909064Y-113273931D02*
X62909064Y-113327806D01*
X62909064Y-113327806D02*
X62882127Y-113408618D01*
X62882127Y-113408618D02*
X62801314Y-113543305D01*
X62801314Y-113543305D02*
X62666627Y-113677992D01*
X62666627Y-113677992D02*
X62531940Y-113758804D01*
X62531940Y-113758804D02*
X62451128Y-113785741D01*
X62451128Y-113785741D02*
X62397253Y-113785741D01*
X62397253Y-113785741D02*
X62316441Y-113758804D01*
X62316441Y-113758804D02*
X62262566Y-113704929D01*
X62262566Y-113704929D02*
X62235629Y-113624117D01*
X62235629Y-113624117D02*
X62235629Y-113570242D01*
X62235629Y-113570242D02*
X62262566Y-113489430D01*
X62262566Y-113489430D02*
X62343379Y-113354743D01*
X62343379Y-113354743D02*
X62478066Y-113220056D01*
X62478066Y-113220056D02*
X62612753Y-113139244D01*
X62612753Y-113139244D02*
X62693565Y-113112306D01*
X62693565Y-113112306D02*
X62747440Y-113112306D01*
X62747440Y-113112306D02*
X62828252Y-113139244D01*
X107309131Y-112253998D02*
X107282194Y-112173185D01*
X107282194Y-112173185D02*
X107201381Y-112092373D01*
X107201381Y-112092373D02*
X107093632Y-112038498D01*
X107093632Y-112038498D02*
X106985882Y-112038498D01*
X106985882Y-112038498D02*
X106905070Y-112065436D01*
X106905070Y-112065436D02*
X106770383Y-112146248D01*
X106770383Y-112146248D02*
X106689571Y-112227060D01*
X106689571Y-112227060D02*
X106608758Y-112361747D01*
X106608758Y-112361747D02*
X106581821Y-112442560D01*
X106581821Y-112442560D02*
X106581821Y-112550309D01*
X106581821Y-112550309D02*
X106635696Y-112658059D01*
X106635696Y-112658059D02*
X106689571Y-112711934D01*
X106689571Y-112711934D02*
X106797320Y-112765808D01*
X106797320Y-112765808D02*
X106851195Y-112765808D01*
X106851195Y-112765808D02*
X107039757Y-112577247D01*
X107039757Y-112577247D02*
X106932007Y-112469497D01*
X107039757Y-113062120D02*
X107605442Y-112496434D01*
X107605442Y-112496434D02*
X107820942Y-112711934D01*
X107820942Y-112711934D02*
X107847879Y-112792746D01*
X107847879Y-112792746D02*
X107847879Y-112846621D01*
X107847879Y-112846621D02*
X107820942Y-112927433D01*
X107820942Y-112927433D02*
X107740129Y-113008245D01*
X107740129Y-113008245D02*
X107659317Y-113035182D01*
X107659317Y-113035182D02*
X107605442Y-113035182D01*
X107605442Y-113035182D02*
X107524630Y-113008245D01*
X107524630Y-113008245D02*
X107309131Y-112792746D01*
X107901754Y-113924117D02*
X107578505Y-113600868D01*
X107740129Y-113762492D02*
X108305815Y-113196807D01*
X108305815Y-113196807D02*
X108171128Y-113223744D01*
X108171128Y-113223744D02*
X108063378Y-113223744D01*
X108063378Y-113223744D02*
X107982566Y-113196807D01*
X108763751Y-114031866D02*
X108386627Y-114408990D01*
X108844563Y-113681680D02*
X108305815Y-113951054D01*
X108305815Y-113951054D02*
X108656001Y-114301240D01*
X94619131Y-86099998D02*
X94592194Y-86019185D01*
X94592194Y-86019185D02*
X94511381Y-85938373D01*
X94511381Y-85938373D02*
X94403632Y-85884498D01*
X94403632Y-85884498D02*
X94295882Y-85884498D01*
X94295882Y-85884498D02*
X94215070Y-85911436D01*
X94215070Y-85911436D02*
X94080383Y-85992248D01*
X94080383Y-85992248D02*
X93999571Y-86073060D01*
X93999571Y-86073060D02*
X93918758Y-86207747D01*
X93918758Y-86207747D02*
X93891821Y-86288560D01*
X93891821Y-86288560D02*
X93891821Y-86396309D01*
X93891821Y-86396309D02*
X93945696Y-86504059D01*
X93945696Y-86504059D02*
X93999571Y-86557934D01*
X93999571Y-86557934D02*
X94107320Y-86611808D01*
X94107320Y-86611808D02*
X94161195Y-86611808D01*
X94161195Y-86611808D02*
X94349757Y-86423247D01*
X94349757Y-86423247D02*
X94242007Y-86315497D01*
X94349757Y-86908120D02*
X94915442Y-86342434D01*
X94915442Y-86342434D02*
X95130942Y-86557934D01*
X95130942Y-86557934D02*
X95157879Y-86638746D01*
X95157879Y-86638746D02*
X95157879Y-86692621D01*
X95157879Y-86692621D02*
X95130942Y-86773433D01*
X95130942Y-86773433D02*
X95050129Y-86854245D01*
X95050129Y-86854245D02*
X94969317Y-86881182D01*
X94969317Y-86881182D02*
X94915442Y-86881182D01*
X94915442Y-86881182D02*
X94834630Y-86854245D01*
X94834630Y-86854245D02*
X94619131Y-86638746D01*
X95400316Y-86935057D02*
X95454190Y-86935057D01*
X95454190Y-86935057D02*
X95535003Y-86961995D01*
X95535003Y-86961995D02*
X95669690Y-87096682D01*
X95669690Y-87096682D02*
X95696627Y-87177494D01*
X95696627Y-87177494D02*
X95696627Y-87231369D01*
X95696627Y-87231369D02*
X95669690Y-87312181D01*
X95669690Y-87312181D02*
X95615815Y-87366056D01*
X95615815Y-87366056D02*
X95508065Y-87419930D01*
X95508065Y-87419930D02*
X94861568Y-87419930D01*
X94861568Y-87419930D02*
X95211754Y-87770117D01*
X95750502Y-88308865D02*
X95427253Y-87985616D01*
X95588878Y-88147240D02*
X96154563Y-87581555D01*
X96154563Y-87581555D02*
X96019876Y-87608492D01*
X96019876Y-87608492D02*
X95912126Y-87608492D01*
X95912126Y-87608492D02*
X95831314Y-87581555D01*
X99689131Y-112353998D02*
X99662194Y-112273185D01*
X99662194Y-112273185D02*
X99581381Y-112192373D01*
X99581381Y-112192373D02*
X99473632Y-112138498D01*
X99473632Y-112138498D02*
X99365882Y-112138498D01*
X99365882Y-112138498D02*
X99285070Y-112165436D01*
X99285070Y-112165436D02*
X99150383Y-112246248D01*
X99150383Y-112246248D02*
X99069571Y-112327060D01*
X99069571Y-112327060D02*
X98988758Y-112461747D01*
X98988758Y-112461747D02*
X98961821Y-112542560D01*
X98961821Y-112542560D02*
X98961821Y-112650309D01*
X98961821Y-112650309D02*
X99015696Y-112758059D01*
X99015696Y-112758059D02*
X99069571Y-112811934D01*
X99069571Y-112811934D02*
X99177320Y-112865808D01*
X99177320Y-112865808D02*
X99231195Y-112865808D01*
X99231195Y-112865808D02*
X99419757Y-112677247D01*
X99419757Y-112677247D02*
X99312007Y-112569497D01*
X99419757Y-113162120D02*
X99985442Y-112596434D01*
X99985442Y-112596434D02*
X100200942Y-112811934D01*
X100200942Y-112811934D02*
X100227879Y-112892746D01*
X100227879Y-112892746D02*
X100227879Y-112946621D01*
X100227879Y-112946621D02*
X100200942Y-113027433D01*
X100200942Y-113027433D02*
X100120129Y-113108245D01*
X100120129Y-113108245D02*
X100039317Y-113135182D01*
X100039317Y-113135182D02*
X99985442Y-113135182D01*
X99985442Y-113135182D02*
X99904630Y-113108245D01*
X99904630Y-113108245D02*
X99689131Y-112892746D01*
X100281754Y-114024117D02*
X99958505Y-113700868D01*
X100120129Y-113862492D02*
X100685815Y-113296807D01*
X100685815Y-113296807D02*
X100551128Y-113323744D01*
X100551128Y-113323744D02*
X100443378Y-113323744D01*
X100443378Y-113323744D02*
X100362566Y-113296807D01*
X101009064Y-113727805D02*
X101062939Y-113727805D01*
X101062939Y-113727805D02*
X101143751Y-113754743D01*
X101143751Y-113754743D02*
X101278438Y-113889430D01*
X101278438Y-113889430D02*
X101305375Y-113970242D01*
X101305375Y-113970242D02*
X101305375Y-114024117D01*
X101305375Y-114024117D02*
X101278438Y-114104929D01*
X101278438Y-114104929D02*
X101224563Y-114158804D01*
X101224563Y-114158804D02*
X101116813Y-114212679D01*
X101116813Y-114212679D02*
X100470316Y-114212679D01*
X100470316Y-114212679D02*
X100820502Y-114562865D01*
X84688505Y-112123372D02*
X84661568Y-112042560D01*
X84661568Y-112042560D02*
X84580756Y-111961748D01*
X84580756Y-111961748D02*
X84473006Y-111907873D01*
X84473006Y-111907873D02*
X84365257Y-111907873D01*
X84365257Y-111907873D02*
X84284444Y-111934810D01*
X84284444Y-111934810D02*
X84149757Y-112015623D01*
X84149757Y-112015623D02*
X84068945Y-112096435D01*
X84068945Y-112096435D02*
X83988133Y-112231122D01*
X83988133Y-112231122D02*
X83961196Y-112311934D01*
X83961196Y-112311934D02*
X83961196Y-112419684D01*
X83961196Y-112419684D02*
X84015070Y-112527433D01*
X84015070Y-112527433D02*
X84068945Y-112581308D01*
X84068945Y-112581308D02*
X84176695Y-112635183D01*
X84176695Y-112635183D02*
X84230570Y-112635183D01*
X84230570Y-112635183D02*
X84419131Y-112446621D01*
X84419131Y-112446621D02*
X84311382Y-112338871D01*
X84419131Y-112931494D02*
X84984817Y-112365809D01*
X84984817Y-112365809D02*
X85200316Y-112581308D01*
X85200316Y-112581308D02*
X85227253Y-112662120D01*
X85227253Y-112662120D02*
X85227253Y-112715995D01*
X85227253Y-112715995D02*
X85200316Y-112796807D01*
X85200316Y-112796807D02*
X85119504Y-112877619D01*
X85119504Y-112877619D02*
X85038692Y-112904557D01*
X85038692Y-112904557D02*
X84984817Y-112904557D01*
X84984817Y-112904557D02*
X84904005Y-112877619D01*
X84904005Y-112877619D02*
X84688505Y-112662120D01*
X85496627Y-112877619D02*
X85873751Y-113254743D01*
X85873751Y-113254743D02*
X85065629Y-113577992D01*
X77098505Y-112223372D02*
X77071568Y-112142560D01*
X77071568Y-112142560D02*
X76990756Y-112061748D01*
X76990756Y-112061748D02*
X76883006Y-112007873D01*
X76883006Y-112007873D02*
X76775257Y-112007873D01*
X76775257Y-112007873D02*
X76694444Y-112034810D01*
X76694444Y-112034810D02*
X76559757Y-112115623D01*
X76559757Y-112115623D02*
X76478945Y-112196435D01*
X76478945Y-112196435D02*
X76398133Y-112331122D01*
X76398133Y-112331122D02*
X76371196Y-112411934D01*
X76371196Y-112411934D02*
X76371196Y-112519684D01*
X76371196Y-112519684D02*
X76425070Y-112627433D01*
X76425070Y-112627433D02*
X76478945Y-112681308D01*
X76478945Y-112681308D02*
X76586695Y-112735183D01*
X76586695Y-112735183D02*
X76640570Y-112735183D01*
X76640570Y-112735183D02*
X76829131Y-112546621D01*
X76829131Y-112546621D02*
X76721382Y-112438871D01*
X76829131Y-113031494D02*
X77394817Y-112465809D01*
X77394817Y-112465809D02*
X77610316Y-112681308D01*
X77610316Y-112681308D02*
X77637253Y-112762120D01*
X77637253Y-112762120D02*
X77637253Y-112815995D01*
X77637253Y-112815995D02*
X77610316Y-112896807D01*
X77610316Y-112896807D02*
X77529504Y-112977619D01*
X77529504Y-112977619D02*
X77448692Y-113004557D01*
X77448692Y-113004557D02*
X77394817Y-113004557D01*
X77394817Y-113004557D02*
X77314005Y-112977619D01*
X77314005Y-112977619D02*
X77098505Y-112762120D01*
X78229876Y-113300868D02*
X77960502Y-113031494D01*
X77960502Y-113031494D02*
X77664191Y-113273931D01*
X77664191Y-113273931D02*
X77718066Y-113273931D01*
X77718066Y-113273931D02*
X77798878Y-113300868D01*
X77798878Y-113300868D02*
X77933565Y-113435555D01*
X77933565Y-113435555D02*
X77960502Y-113516367D01*
X77960502Y-113516367D02*
X77960502Y-113570242D01*
X77960502Y-113570242D02*
X77933565Y-113651054D01*
X77933565Y-113651054D02*
X77798878Y-113785741D01*
X77798878Y-113785741D02*
X77718066Y-113812679D01*
X77718066Y-113812679D02*
X77664191Y-113812679D01*
X77664191Y-113812679D02*
X77583379Y-113785741D01*
X77583379Y-113785741D02*
X77448692Y-113651054D01*
X77448692Y-113651054D02*
X77421754Y-113570242D01*
X77421754Y-113570242D02*
X77421754Y-113516367D01*
X86706289Y-86948651D02*
X86787101Y-86490716D01*
X86383040Y-86625403D02*
X86948725Y-86059717D01*
X86948725Y-86059717D02*
X87164224Y-86275216D01*
X87164224Y-86275216D02*
X87191162Y-86356029D01*
X87191162Y-86356029D02*
X87191162Y-86409903D01*
X87191162Y-86409903D02*
X87164224Y-86490716D01*
X87164224Y-86490716D02*
X87083412Y-86571528D01*
X87083412Y-86571528D02*
X87002600Y-86598465D01*
X87002600Y-86598465D02*
X86948725Y-86598465D01*
X86948725Y-86598465D02*
X86867913Y-86571528D01*
X86867913Y-86571528D02*
X86652414Y-86356029D01*
X87514411Y-86625403D02*
X87056475Y-87083338D01*
X87056475Y-87083338D02*
X87029537Y-87164151D01*
X87029537Y-87164151D02*
X87029537Y-87218025D01*
X87029537Y-87218025D02*
X87056475Y-87298838D01*
X87056475Y-87298838D02*
X87164224Y-87406587D01*
X87164224Y-87406587D02*
X87245037Y-87433525D01*
X87245037Y-87433525D02*
X87298911Y-87433525D01*
X87298911Y-87433525D02*
X87379724Y-87406587D01*
X87379724Y-87406587D02*
X87837659Y-86948651D01*
X87541348Y-87783711D02*
X88107033Y-87218025D01*
X88107033Y-87218025D02*
X87864597Y-88106959D01*
X87864597Y-88106959D02*
X88430282Y-87541274D01*
X102229131Y-112207998D02*
X102202194Y-112127185D01*
X102202194Y-112127185D02*
X102121381Y-112046373D01*
X102121381Y-112046373D02*
X102013632Y-111992498D01*
X102013632Y-111992498D02*
X101905882Y-111992498D01*
X101905882Y-111992498D02*
X101825070Y-112019436D01*
X101825070Y-112019436D02*
X101690383Y-112100248D01*
X101690383Y-112100248D02*
X101609571Y-112181060D01*
X101609571Y-112181060D02*
X101528758Y-112315747D01*
X101528758Y-112315747D02*
X101501821Y-112396560D01*
X101501821Y-112396560D02*
X101501821Y-112504309D01*
X101501821Y-112504309D02*
X101555696Y-112612059D01*
X101555696Y-112612059D02*
X101609571Y-112665934D01*
X101609571Y-112665934D02*
X101717320Y-112719808D01*
X101717320Y-112719808D02*
X101771195Y-112719808D01*
X101771195Y-112719808D02*
X101959757Y-112531247D01*
X101959757Y-112531247D02*
X101852007Y-112423497D01*
X101959757Y-113016120D02*
X102525442Y-112450434D01*
X102525442Y-112450434D02*
X102740942Y-112665934D01*
X102740942Y-112665934D02*
X102767879Y-112746746D01*
X102767879Y-112746746D02*
X102767879Y-112800621D01*
X102767879Y-112800621D02*
X102740942Y-112881433D01*
X102740942Y-112881433D02*
X102660129Y-112962245D01*
X102660129Y-112962245D02*
X102579317Y-112989182D01*
X102579317Y-112989182D02*
X102525442Y-112989182D01*
X102525442Y-112989182D02*
X102444630Y-112962245D01*
X102444630Y-112962245D02*
X102229131Y-112746746D01*
X102821754Y-113878117D02*
X102498505Y-113554868D01*
X102660129Y-113716492D02*
X103225815Y-113150807D01*
X103225815Y-113150807D02*
X103091128Y-113177744D01*
X103091128Y-113177744D02*
X102983378Y-113177744D01*
X102983378Y-113177744D02*
X102902566Y-113150807D01*
X103576001Y-113500993D02*
X103926187Y-113851179D01*
X103926187Y-113851179D02*
X103522126Y-113878117D01*
X103522126Y-113878117D02*
X103602939Y-113958929D01*
X103602939Y-113958929D02*
X103629876Y-114039741D01*
X103629876Y-114039741D02*
X103629876Y-114093616D01*
X103629876Y-114093616D02*
X103602939Y-114174428D01*
X103602939Y-114174428D02*
X103468252Y-114309115D01*
X103468252Y-114309115D02*
X103387439Y-114336053D01*
X103387439Y-114336053D02*
X103333565Y-114336053D01*
X103333565Y-114336053D02*
X103252752Y-114309115D01*
X103252752Y-114309115D02*
X103091128Y-114147491D01*
X103091128Y-114147491D02*
X103064191Y-114066679D01*
X103064191Y-114066679D02*
X103064191Y-114012804D01*
X82178505Y-112223372D02*
X82151568Y-112142560D01*
X82151568Y-112142560D02*
X82070756Y-112061748D01*
X82070756Y-112061748D02*
X81963006Y-112007873D01*
X81963006Y-112007873D02*
X81855257Y-112007873D01*
X81855257Y-112007873D02*
X81774444Y-112034810D01*
X81774444Y-112034810D02*
X81639757Y-112115623D01*
X81639757Y-112115623D02*
X81558945Y-112196435D01*
X81558945Y-112196435D02*
X81478133Y-112331122D01*
X81478133Y-112331122D02*
X81451196Y-112411934D01*
X81451196Y-112411934D02*
X81451196Y-112519684D01*
X81451196Y-112519684D02*
X81505070Y-112627433D01*
X81505070Y-112627433D02*
X81558945Y-112681308D01*
X81558945Y-112681308D02*
X81666695Y-112735183D01*
X81666695Y-112735183D02*
X81720570Y-112735183D01*
X81720570Y-112735183D02*
X81909131Y-112546621D01*
X81909131Y-112546621D02*
X81801382Y-112438871D01*
X81909131Y-113031494D02*
X82474817Y-112465809D01*
X82474817Y-112465809D02*
X82690316Y-112681308D01*
X82690316Y-112681308D02*
X82717253Y-112762120D01*
X82717253Y-112762120D02*
X82717253Y-112815995D01*
X82717253Y-112815995D02*
X82690316Y-112896807D01*
X82690316Y-112896807D02*
X82609504Y-112977619D01*
X82609504Y-112977619D02*
X82528692Y-113004557D01*
X82528692Y-113004557D02*
X82474817Y-113004557D01*
X82474817Y-113004557D02*
X82394005Y-112977619D01*
X82394005Y-112977619D02*
X82178505Y-112762120D01*
X83282939Y-113273931D02*
X83175189Y-113166181D01*
X83175189Y-113166181D02*
X83094377Y-113139244D01*
X83094377Y-113139244D02*
X83040502Y-113139244D01*
X83040502Y-113139244D02*
X82905815Y-113166181D01*
X82905815Y-113166181D02*
X82771128Y-113246993D01*
X82771128Y-113246993D02*
X82555629Y-113462493D01*
X82555629Y-113462493D02*
X82528692Y-113543305D01*
X82528692Y-113543305D02*
X82528692Y-113597180D01*
X82528692Y-113597180D02*
X82555629Y-113677992D01*
X82555629Y-113677992D02*
X82663379Y-113785741D01*
X82663379Y-113785741D02*
X82744191Y-113812679D01*
X82744191Y-113812679D02*
X82798066Y-113812679D01*
X82798066Y-113812679D02*
X82878878Y-113785741D01*
X82878878Y-113785741D02*
X83013565Y-113651054D01*
X83013565Y-113651054D02*
X83040502Y-113570242D01*
X83040502Y-113570242D02*
X83040502Y-113516367D01*
X83040502Y-113516367D02*
X83013565Y-113435555D01*
X83013565Y-113435555D02*
X82905815Y-113327806D01*
X82905815Y-113327806D02*
X82825003Y-113300868D01*
X82825003Y-113300868D02*
X82771128Y-113300868D01*
X82771128Y-113300868D02*
X82690316Y-113327806D01*
X69478505Y-112323372D02*
X69451568Y-112242560D01*
X69451568Y-112242560D02*
X69370756Y-112161748D01*
X69370756Y-112161748D02*
X69263006Y-112107873D01*
X69263006Y-112107873D02*
X69155257Y-112107873D01*
X69155257Y-112107873D02*
X69074444Y-112134810D01*
X69074444Y-112134810D02*
X68939757Y-112215623D01*
X68939757Y-112215623D02*
X68858945Y-112296435D01*
X68858945Y-112296435D02*
X68778133Y-112431122D01*
X68778133Y-112431122D02*
X68751196Y-112511934D01*
X68751196Y-112511934D02*
X68751196Y-112619684D01*
X68751196Y-112619684D02*
X68805070Y-112727433D01*
X68805070Y-112727433D02*
X68858945Y-112781308D01*
X68858945Y-112781308D02*
X68966695Y-112835183D01*
X68966695Y-112835183D02*
X69020570Y-112835183D01*
X69020570Y-112835183D02*
X69209131Y-112646621D01*
X69209131Y-112646621D02*
X69101382Y-112538871D01*
X69209131Y-113131494D02*
X69774817Y-112565809D01*
X69774817Y-112565809D02*
X69990316Y-112781308D01*
X69990316Y-112781308D02*
X70017253Y-112862120D01*
X70017253Y-112862120D02*
X70017253Y-112915995D01*
X70017253Y-112915995D02*
X69990316Y-112996807D01*
X69990316Y-112996807D02*
X69909504Y-113077619D01*
X69909504Y-113077619D02*
X69828692Y-113104557D01*
X69828692Y-113104557D02*
X69774817Y-113104557D01*
X69774817Y-113104557D02*
X69694005Y-113077619D01*
X69694005Y-113077619D02*
X69478505Y-112862120D01*
X70259690Y-113158432D02*
X70313565Y-113158432D01*
X70313565Y-113158432D02*
X70394377Y-113185369D01*
X70394377Y-113185369D02*
X70529064Y-113320056D01*
X70529064Y-113320056D02*
X70556001Y-113400868D01*
X70556001Y-113400868D02*
X70556001Y-113454743D01*
X70556001Y-113454743D02*
X70529064Y-113535555D01*
X70529064Y-113535555D02*
X70475189Y-113589430D01*
X70475189Y-113589430D02*
X70367440Y-113643305D01*
X70367440Y-113643305D02*
X69720942Y-113643305D01*
X69720942Y-113643305D02*
X70071128Y-113993491D01*
X63859757Y-85630749D02*
X63482633Y-86384996D01*
X63482633Y-86384996D02*
X64236881Y-86007873D01*
X63859757Y-86708245D02*
X63913632Y-86815995D01*
X63913632Y-86815995D02*
X64048319Y-86950682D01*
X64048319Y-86950682D02*
X64129131Y-86977619D01*
X64129131Y-86977619D02*
X64183006Y-86977619D01*
X64183006Y-86977619D02*
X64263818Y-86950682D01*
X64263818Y-86950682D02*
X64317693Y-86896807D01*
X64317693Y-86896807D02*
X64344630Y-86815995D01*
X64344630Y-86815995D02*
X64344630Y-86762120D01*
X64344630Y-86762120D02*
X64317693Y-86681308D01*
X64317693Y-86681308D02*
X64236881Y-86546621D01*
X64236881Y-86546621D02*
X64209943Y-86465808D01*
X64209943Y-86465808D02*
X64209943Y-86411934D01*
X64209943Y-86411934D02*
X64236881Y-86331121D01*
X64236881Y-86331121D02*
X64290755Y-86277247D01*
X64290755Y-86277247D02*
X64371568Y-86250309D01*
X64371568Y-86250309D02*
X64425442Y-86250309D01*
X64425442Y-86250309D02*
X64506255Y-86277247D01*
X64506255Y-86277247D02*
X64640942Y-86411934D01*
X64640942Y-86411934D02*
X64694816Y-86519683D01*
X64775629Y-87139244D02*
X64506255Y-87408618D01*
X64883378Y-86654370D02*
X64775629Y-87139244D01*
X64775629Y-87139244D02*
X65260502Y-87031494D01*
X64883378Y-87731866D02*
X64937253Y-87839616D01*
X64937253Y-87839616D02*
X65071940Y-87974303D01*
X65071940Y-87974303D02*
X65152752Y-88001240D01*
X65152752Y-88001240D02*
X65206627Y-88001240D01*
X65206627Y-88001240D02*
X65287439Y-87974303D01*
X65287439Y-87974303D02*
X65341314Y-87920428D01*
X65341314Y-87920428D02*
X65368251Y-87839616D01*
X65368251Y-87839616D02*
X65368251Y-87785741D01*
X65368251Y-87785741D02*
X65341314Y-87704929D01*
X65341314Y-87704929D02*
X65260502Y-87570242D01*
X65260502Y-87570242D02*
X65233564Y-87489430D01*
X65233564Y-87489430D02*
X65233564Y-87435555D01*
X65233564Y-87435555D02*
X65260502Y-87354743D01*
X65260502Y-87354743D02*
X65314377Y-87300868D01*
X65314377Y-87300868D02*
X65395189Y-87273930D01*
X65395189Y-87273930D02*
X65449064Y-87273930D01*
X65449064Y-87273930D02*
X65529876Y-87300868D01*
X65529876Y-87300868D02*
X65664563Y-87435555D01*
X65664563Y-87435555D02*
X65718438Y-87543304D01*
X89798505Y-112223372D02*
X89771568Y-112142560D01*
X89771568Y-112142560D02*
X89690756Y-112061748D01*
X89690756Y-112061748D02*
X89583006Y-112007873D01*
X89583006Y-112007873D02*
X89475257Y-112007873D01*
X89475257Y-112007873D02*
X89394444Y-112034810D01*
X89394444Y-112034810D02*
X89259757Y-112115623D01*
X89259757Y-112115623D02*
X89178945Y-112196435D01*
X89178945Y-112196435D02*
X89098133Y-112331122D01*
X89098133Y-112331122D02*
X89071196Y-112411934D01*
X89071196Y-112411934D02*
X89071196Y-112519684D01*
X89071196Y-112519684D02*
X89125070Y-112627433D01*
X89125070Y-112627433D02*
X89178945Y-112681308D01*
X89178945Y-112681308D02*
X89286695Y-112735183D01*
X89286695Y-112735183D02*
X89340570Y-112735183D01*
X89340570Y-112735183D02*
X89529131Y-112546621D01*
X89529131Y-112546621D02*
X89421382Y-112438871D01*
X89529131Y-113031494D02*
X90094817Y-112465809D01*
X90094817Y-112465809D02*
X90310316Y-112681308D01*
X90310316Y-112681308D02*
X90337253Y-112762120D01*
X90337253Y-112762120D02*
X90337253Y-112815995D01*
X90337253Y-112815995D02*
X90310316Y-112896807D01*
X90310316Y-112896807D02*
X90229504Y-112977619D01*
X90229504Y-112977619D02*
X90148692Y-113004557D01*
X90148692Y-113004557D02*
X90094817Y-113004557D01*
X90094817Y-113004557D02*
X90014005Y-112977619D01*
X90014005Y-112977619D02*
X89798505Y-112762120D01*
X90121754Y-113624117D02*
X90229504Y-113731867D01*
X90229504Y-113731867D02*
X90310316Y-113758804D01*
X90310316Y-113758804D02*
X90364191Y-113758804D01*
X90364191Y-113758804D02*
X90498878Y-113731867D01*
X90498878Y-113731867D02*
X90633565Y-113651054D01*
X90633565Y-113651054D02*
X90849064Y-113435555D01*
X90849064Y-113435555D02*
X90876001Y-113354743D01*
X90876001Y-113354743D02*
X90876001Y-113300868D01*
X90876001Y-113300868D02*
X90849064Y-113220056D01*
X90849064Y-113220056D02*
X90741314Y-113112306D01*
X90741314Y-113112306D02*
X90660502Y-113085369D01*
X90660502Y-113085369D02*
X90606627Y-113085369D01*
X90606627Y-113085369D02*
X90525815Y-113112306D01*
X90525815Y-113112306D02*
X90391128Y-113246993D01*
X90391128Y-113246993D02*
X90364191Y-113327806D01*
X90364191Y-113327806D02*
X90364191Y-113381680D01*
X90364191Y-113381680D02*
X90391128Y-113462493D01*
X90391128Y-113462493D02*
X90498878Y-113570242D01*
X90498878Y-113570242D02*
X90579690Y-113597180D01*
X90579690Y-113597180D02*
X90633565Y-113597180D01*
X90633565Y-113597180D02*
X90714377Y-113570242D01*
X94609131Y-112207998D02*
X94582194Y-112127185D01*
X94582194Y-112127185D02*
X94501381Y-112046373D01*
X94501381Y-112046373D02*
X94393632Y-111992498D01*
X94393632Y-111992498D02*
X94285882Y-111992498D01*
X94285882Y-111992498D02*
X94205070Y-112019436D01*
X94205070Y-112019436D02*
X94070383Y-112100248D01*
X94070383Y-112100248D02*
X93989571Y-112181060D01*
X93989571Y-112181060D02*
X93908758Y-112315747D01*
X93908758Y-112315747D02*
X93881821Y-112396560D01*
X93881821Y-112396560D02*
X93881821Y-112504309D01*
X93881821Y-112504309D02*
X93935696Y-112612059D01*
X93935696Y-112612059D02*
X93989571Y-112665934D01*
X93989571Y-112665934D02*
X94097320Y-112719808D01*
X94097320Y-112719808D02*
X94151195Y-112719808D01*
X94151195Y-112719808D02*
X94339757Y-112531247D01*
X94339757Y-112531247D02*
X94232007Y-112423497D01*
X94339757Y-113016120D02*
X94905442Y-112450434D01*
X94905442Y-112450434D02*
X95120942Y-112665934D01*
X95120942Y-112665934D02*
X95147879Y-112746746D01*
X95147879Y-112746746D02*
X95147879Y-112800621D01*
X95147879Y-112800621D02*
X95120942Y-112881433D01*
X95120942Y-112881433D02*
X95040129Y-112962245D01*
X95040129Y-112962245D02*
X94959317Y-112989182D01*
X94959317Y-112989182D02*
X94905442Y-112989182D01*
X94905442Y-112989182D02*
X94824630Y-112962245D01*
X94824630Y-112962245D02*
X94609131Y-112746746D01*
X95201754Y-113878117D02*
X94878505Y-113554868D01*
X95040129Y-113716492D02*
X95605815Y-113150807D01*
X95605815Y-113150807D02*
X95471128Y-113177744D01*
X95471128Y-113177744D02*
X95363378Y-113177744D01*
X95363378Y-113177744D02*
X95282566Y-113150807D01*
X96117626Y-113662618D02*
X96171500Y-113716492D01*
X96171500Y-113716492D02*
X96198438Y-113797305D01*
X96198438Y-113797305D02*
X96198438Y-113851179D01*
X96198438Y-113851179D02*
X96171500Y-113931992D01*
X96171500Y-113931992D02*
X96090688Y-114066679D01*
X96090688Y-114066679D02*
X95956001Y-114201366D01*
X95956001Y-114201366D02*
X95821314Y-114282178D01*
X95821314Y-114282178D02*
X95740502Y-114309115D01*
X95740502Y-114309115D02*
X95686627Y-114309115D01*
X95686627Y-114309115D02*
X95605815Y-114282178D01*
X95605815Y-114282178D02*
X95551940Y-114228303D01*
X95551940Y-114228303D02*
X95525003Y-114147491D01*
X95525003Y-114147491D02*
X95525003Y-114093616D01*
X95525003Y-114093616D02*
X95551940Y-114012804D01*
X95551940Y-114012804D02*
X95632752Y-113878117D01*
X95632752Y-113878117D02*
X95767439Y-113743430D01*
X95767439Y-113743430D02*
X95902126Y-113662618D01*
X95902126Y-113662618D02*
X95982939Y-113635680D01*
X95982939Y-113635680D02*
X96036813Y-113635680D01*
X96036813Y-113635680D02*
X96117626Y-113662618D01*
X66911568Y-86596435D02*
X66884631Y-86515623D01*
X66884631Y-86515623D02*
X66803819Y-86434811D01*
X66803819Y-86434811D02*
X66696069Y-86380936D01*
X66696069Y-86380936D02*
X66588319Y-86380936D01*
X66588319Y-86380936D02*
X66507507Y-86407873D01*
X66507507Y-86407873D02*
X66372820Y-86488685D01*
X66372820Y-86488685D02*
X66292008Y-86569498D01*
X66292008Y-86569498D02*
X66211196Y-86704185D01*
X66211196Y-86704185D02*
X66184258Y-86784997D01*
X66184258Y-86784997D02*
X66184258Y-86892746D01*
X66184258Y-86892746D02*
X66238133Y-87000496D01*
X66238133Y-87000496D02*
X66292008Y-87054371D01*
X66292008Y-87054371D02*
X66399758Y-87108246D01*
X66399758Y-87108246D02*
X66453632Y-87108246D01*
X66453632Y-87108246D02*
X66642194Y-86919684D01*
X66642194Y-86919684D02*
X66534445Y-86811934D01*
X66642194Y-87404557D02*
X67207880Y-86838872D01*
X67207880Y-86838872D02*
X66965443Y-87727806D01*
X66965443Y-87727806D02*
X67531128Y-87162120D01*
X67234817Y-87997180D02*
X67800502Y-87431494D01*
X67800502Y-87431494D02*
X67935189Y-87566181D01*
X67935189Y-87566181D02*
X67989064Y-87673931D01*
X67989064Y-87673931D02*
X67989064Y-87781680D01*
X67989064Y-87781680D02*
X67962127Y-87862493D01*
X67962127Y-87862493D02*
X67881314Y-87997180D01*
X67881314Y-87997180D02*
X67800502Y-88077992D01*
X67800502Y-88077992D02*
X67665815Y-88158804D01*
X67665815Y-88158804D02*
X67585003Y-88185741D01*
X67585003Y-88185741D02*
X67477253Y-88185741D01*
X67477253Y-88185741D02*
X67369504Y-88131867D01*
X67369504Y-88131867D02*
X67234817Y-87997180D01*
X109849131Y-112207998D02*
X109822194Y-112127185D01*
X109822194Y-112127185D02*
X109741381Y-112046373D01*
X109741381Y-112046373D02*
X109633632Y-111992498D01*
X109633632Y-111992498D02*
X109525882Y-111992498D01*
X109525882Y-111992498D02*
X109445070Y-112019436D01*
X109445070Y-112019436D02*
X109310383Y-112100248D01*
X109310383Y-112100248D02*
X109229571Y-112181060D01*
X109229571Y-112181060D02*
X109148758Y-112315747D01*
X109148758Y-112315747D02*
X109121821Y-112396560D01*
X109121821Y-112396560D02*
X109121821Y-112504309D01*
X109121821Y-112504309D02*
X109175696Y-112612059D01*
X109175696Y-112612059D02*
X109229571Y-112665934D01*
X109229571Y-112665934D02*
X109337320Y-112719808D01*
X109337320Y-112719808D02*
X109391195Y-112719808D01*
X109391195Y-112719808D02*
X109579757Y-112531247D01*
X109579757Y-112531247D02*
X109472007Y-112423497D01*
X109579757Y-113016120D02*
X110145442Y-112450434D01*
X110145442Y-112450434D02*
X110360942Y-112665934D01*
X110360942Y-112665934D02*
X110387879Y-112746746D01*
X110387879Y-112746746D02*
X110387879Y-112800621D01*
X110387879Y-112800621D02*
X110360942Y-112881433D01*
X110360942Y-112881433D02*
X110280129Y-112962245D01*
X110280129Y-112962245D02*
X110199317Y-112989182D01*
X110199317Y-112989182D02*
X110145442Y-112989182D01*
X110145442Y-112989182D02*
X110064630Y-112962245D01*
X110064630Y-112962245D02*
X109849131Y-112746746D01*
X110441754Y-113878117D02*
X110118505Y-113554868D01*
X110280129Y-113716492D02*
X110845815Y-113150807D01*
X110845815Y-113150807D02*
X110711128Y-113177744D01*
X110711128Y-113177744D02*
X110603378Y-113177744D01*
X110603378Y-113177744D02*
X110522566Y-113150807D01*
X111519250Y-113824242D02*
X111249876Y-113554868D01*
X111249876Y-113554868D02*
X110953565Y-113797305D01*
X110953565Y-113797305D02*
X111007439Y-113797305D01*
X111007439Y-113797305D02*
X111088252Y-113824242D01*
X111088252Y-113824242D02*
X111222939Y-113958929D01*
X111222939Y-113958929D02*
X111249876Y-114039741D01*
X111249876Y-114039741D02*
X111249876Y-114093616D01*
X111249876Y-114093616D02*
X111222939Y-114174428D01*
X111222939Y-114174428D02*
X111088252Y-114309115D01*
X111088252Y-114309115D02*
X111007439Y-114336053D01*
X111007439Y-114336053D02*
X110953565Y-114336053D01*
X110953565Y-114336053D02*
X110872752Y-114309115D01*
X110872752Y-114309115D02*
X110738065Y-114174428D01*
X110738065Y-114174428D02*
X110711128Y-114093616D01*
X110711128Y-114093616D02*
X110711128Y-114039741D01*
X160534819Y-57896666D02*
X160058628Y-58229999D01*
X160534819Y-58468094D02*
X159534819Y-58468094D01*
X159534819Y-58468094D02*
X159534819Y-58087142D01*
X159534819Y-58087142D02*
X159582438Y-57991904D01*
X159582438Y-57991904D02*
X159630057Y-57944285D01*
X159630057Y-57944285D02*
X159725295Y-57896666D01*
X159725295Y-57896666D02*
X159868152Y-57896666D01*
X159868152Y-57896666D02*
X159963390Y-57944285D01*
X159963390Y-57944285D02*
X160011009Y-57991904D01*
X160011009Y-57991904D02*
X160058628Y-58087142D01*
X160058628Y-58087142D02*
X160058628Y-58468094D01*
X159534819Y-57563332D02*
X159534819Y-56944285D01*
X159534819Y-56944285D02*
X159915771Y-57277618D01*
X159915771Y-57277618D02*
X159915771Y-57134761D01*
X159915771Y-57134761D02*
X159963390Y-57039523D01*
X159963390Y-57039523D02*
X160011009Y-56991904D01*
X160011009Y-56991904D02*
X160106247Y-56944285D01*
X160106247Y-56944285D02*
X160344342Y-56944285D01*
X160344342Y-56944285D02*
X160439580Y-56991904D01*
X160439580Y-56991904D02*
X160487200Y-57039523D01*
X160487200Y-57039523D02*
X160534819Y-57134761D01*
X160534819Y-57134761D02*
X160534819Y-57420475D01*
X160534819Y-57420475D02*
X160487200Y-57515713D01*
X160487200Y-57515713D02*
X160439580Y-57563332D01*
X139166666Y-149534819D02*
X139166666Y-150249104D01*
X139166666Y-150249104D02*
X139119047Y-150391961D01*
X139119047Y-150391961D02*
X139023809Y-150487200D01*
X139023809Y-150487200D02*
X138880952Y-150534819D01*
X138880952Y-150534819D02*
X138785714Y-150534819D01*
X139547619Y-149534819D02*
X140214285Y-149534819D01*
X140214285Y-149534819D02*
X139785714Y-150534819D01*
X160534819Y-77396666D02*
X160058628Y-77729999D01*
X160534819Y-77968094D02*
X159534819Y-77968094D01*
X159534819Y-77968094D02*
X159534819Y-77587142D01*
X159534819Y-77587142D02*
X159582438Y-77491904D01*
X159582438Y-77491904D02*
X159630057Y-77444285D01*
X159630057Y-77444285D02*
X159725295Y-77396666D01*
X159725295Y-77396666D02*
X159868152Y-77396666D01*
X159868152Y-77396666D02*
X159963390Y-77444285D01*
X159963390Y-77444285D02*
X160011009Y-77491904D01*
X160011009Y-77491904D02*
X160058628Y-77587142D01*
X160058628Y-77587142D02*
X160058628Y-77968094D01*
X159868152Y-76539523D02*
X160534819Y-76539523D01*
X159487200Y-76777618D02*
X160201485Y-77015713D01*
X160201485Y-77015713D02*
X160201485Y-76396666D01*
X160534819Y-97896666D02*
X160058628Y-98229999D01*
X160534819Y-98468094D02*
X159534819Y-98468094D01*
X159534819Y-98468094D02*
X159534819Y-98087142D01*
X159534819Y-98087142D02*
X159582438Y-97991904D01*
X159582438Y-97991904D02*
X159630057Y-97944285D01*
X159630057Y-97944285D02*
X159725295Y-97896666D01*
X159725295Y-97896666D02*
X159868152Y-97896666D01*
X159868152Y-97896666D02*
X159963390Y-97944285D01*
X159963390Y-97944285D02*
X160011009Y-97991904D01*
X160011009Y-97991904D02*
X160058628Y-98087142D01*
X160058628Y-98087142D02*
X160058628Y-98468094D01*
X159534819Y-96991904D02*
X159534819Y-97468094D01*
X159534819Y-97468094D02*
X160011009Y-97515713D01*
X160011009Y-97515713D02*
X159963390Y-97468094D01*
X159963390Y-97468094D02*
X159915771Y-97372856D01*
X159915771Y-97372856D02*
X159915771Y-97134761D01*
X159915771Y-97134761D02*
X159963390Y-97039523D01*
X159963390Y-97039523D02*
X160011009Y-96991904D01*
X160011009Y-96991904D02*
X160106247Y-96944285D01*
X160106247Y-96944285D02*
X160344342Y-96944285D01*
X160344342Y-96944285D02*
X160439580Y-96991904D01*
X160439580Y-96991904D02*
X160487200Y-97039523D01*
X160487200Y-97039523D02*
X160534819Y-97134761D01*
X160534819Y-97134761D02*
X160534819Y-97372856D01*
X160534819Y-97372856D02*
X160487200Y-97468094D01*
X160487200Y-97468094D02*
X160439580Y-97515713D01*
D11*
X133792580Y-65428095D02*
X132983057Y-65428095D01*
X132983057Y-65428095D02*
X132887819Y-65475714D01*
X132887819Y-65475714D02*
X132840200Y-65523333D01*
X132840200Y-65523333D02*
X132792580Y-65618571D01*
X132792580Y-65618571D02*
X132792580Y-65809047D01*
X132792580Y-65809047D02*
X132840200Y-65904285D01*
X132840200Y-65904285D02*
X132887819Y-65951904D01*
X132887819Y-65951904D02*
X132983057Y-65999523D01*
X132983057Y-65999523D02*
X133792580Y-65999523D01*
X133697342Y-66428095D02*
X133744961Y-66475714D01*
X133744961Y-66475714D02*
X133792580Y-66570952D01*
X133792580Y-66570952D02*
X133792580Y-66809047D01*
X133792580Y-66809047D02*
X133744961Y-66904285D01*
X133744961Y-66904285D02*
X133697342Y-66951904D01*
X133697342Y-66951904D02*
X133602104Y-66999523D01*
X133602104Y-66999523D02*
X133506866Y-66999523D01*
X133506866Y-66999523D02*
X133364009Y-66951904D01*
X133364009Y-66951904D02*
X132792580Y-66380476D01*
X132792580Y-66380476D02*
X132792580Y-66999523D01*
D10*
X37286666Y-149534819D02*
X37286666Y-150249104D01*
X37286666Y-150249104D02*
X37239047Y-150391961D01*
X37239047Y-150391961D02*
X37143809Y-150487200D01*
X37143809Y-150487200D02*
X37000952Y-150534819D01*
X37000952Y-150534819D02*
X36905714Y-150534819D01*
X38191428Y-149534819D02*
X38000952Y-149534819D01*
X38000952Y-149534819D02*
X37905714Y-149582438D01*
X37905714Y-149582438D02*
X37858095Y-149630057D01*
X37858095Y-149630057D02*
X37762857Y-149772914D01*
X37762857Y-149772914D02*
X37715238Y-149963390D01*
X37715238Y-149963390D02*
X37715238Y-150344342D01*
X37715238Y-150344342D02*
X37762857Y-150439580D01*
X37762857Y-150439580D02*
X37810476Y-150487200D01*
X37810476Y-150487200D02*
X37905714Y-150534819D01*
X37905714Y-150534819D02*
X38096190Y-150534819D01*
X38096190Y-150534819D02*
X38191428Y-150487200D01*
X38191428Y-150487200D02*
X38239047Y-150439580D01*
X38239047Y-150439580D02*
X38286666Y-150344342D01*
X38286666Y-150344342D02*
X38286666Y-150106247D01*
X38286666Y-150106247D02*
X38239047Y-150011009D01*
X38239047Y-150011009D02*
X38191428Y-149963390D01*
X38191428Y-149963390D02*
X38096190Y-149915771D01*
X38096190Y-149915771D02*
X37905714Y-149915771D01*
X37905714Y-149915771D02*
X37810476Y-149963390D01*
X37810476Y-149963390D02*
X37762857Y-150011009D01*
X37762857Y-150011009D02*
X37715238Y-150106247D01*
X65730476Y-24874819D02*
X65730476Y-23874819D01*
X65730476Y-23874819D02*
X66063809Y-24589104D01*
X66063809Y-24589104D02*
X66397142Y-23874819D01*
X66397142Y-23874819D02*
X66397142Y-24874819D01*
X67397142Y-24874819D02*
X66825714Y-24874819D01*
X67111428Y-24874819D02*
X67111428Y-23874819D01*
X67111428Y-23874819D02*
X67016190Y-24017676D01*
X67016190Y-24017676D02*
X66920952Y-24112914D01*
X66920952Y-24112914D02*
X66825714Y-24160533D01*
X45024761Y-51780057D02*
X44929523Y-51732438D01*
X44929523Y-51732438D02*
X44834285Y-51637200D01*
X44834285Y-51637200D02*
X44691428Y-51494342D01*
X44691428Y-51494342D02*
X44596190Y-51446723D01*
X44596190Y-51446723D02*
X44500952Y-51446723D01*
X44548571Y-51684819D02*
X44453333Y-51637200D01*
X44453333Y-51637200D02*
X44358095Y-51541961D01*
X44358095Y-51541961D02*
X44310476Y-51351485D01*
X44310476Y-51351485D02*
X44310476Y-51018152D01*
X44310476Y-51018152D02*
X44358095Y-50827676D01*
X44358095Y-50827676D02*
X44453333Y-50732438D01*
X44453333Y-50732438D02*
X44548571Y-50684819D01*
X44548571Y-50684819D02*
X44739047Y-50684819D01*
X44739047Y-50684819D02*
X44834285Y-50732438D01*
X44834285Y-50732438D02*
X44929523Y-50827676D01*
X44929523Y-50827676D02*
X44977142Y-51018152D01*
X44977142Y-51018152D02*
X44977142Y-51351485D01*
X44977142Y-51351485D02*
X44929523Y-51541961D01*
X44929523Y-51541961D02*
X44834285Y-51637200D01*
X44834285Y-51637200D02*
X44739047Y-51684819D01*
X44739047Y-51684819D02*
X44548571Y-51684819D01*
X45358095Y-50780057D02*
X45405714Y-50732438D01*
X45405714Y-50732438D02*
X45500952Y-50684819D01*
X45500952Y-50684819D02*
X45739047Y-50684819D01*
X45739047Y-50684819D02*
X45834285Y-50732438D01*
X45834285Y-50732438D02*
X45881904Y-50780057D01*
X45881904Y-50780057D02*
X45929523Y-50875295D01*
X45929523Y-50875295D02*
X45929523Y-50970533D01*
X45929523Y-50970533D02*
X45881904Y-51113390D01*
X45881904Y-51113390D02*
X45310476Y-51684819D01*
X45310476Y-51684819D02*
X45929523Y-51684819D01*
X69921905Y-43484819D02*
X69921905Y-42484819D01*
X69921905Y-42484819D02*
X70160000Y-42484819D01*
X70160000Y-42484819D02*
X70302857Y-42532438D01*
X70302857Y-42532438D02*
X70398095Y-42627676D01*
X70398095Y-42627676D02*
X70445714Y-42722914D01*
X70445714Y-42722914D02*
X70493333Y-42913390D01*
X70493333Y-42913390D02*
X70493333Y-43056247D01*
X70493333Y-43056247D02*
X70445714Y-43246723D01*
X70445714Y-43246723D02*
X70398095Y-43341961D01*
X70398095Y-43341961D02*
X70302857Y-43437200D01*
X70302857Y-43437200D02*
X70160000Y-43484819D01*
X70160000Y-43484819D02*
X69921905Y-43484819D01*
X71445714Y-43484819D02*
X70874286Y-43484819D01*
X71160000Y-43484819D02*
X71160000Y-42484819D01*
X71160000Y-42484819D02*
X71064762Y-42627676D01*
X71064762Y-42627676D02*
X70969524Y-42722914D01*
X70969524Y-42722914D02*
X70874286Y-42770533D01*
X65818095Y-42954819D02*
X65818095Y-41954819D01*
X66389523Y-42954819D02*
X65960952Y-42383390D01*
X66389523Y-41954819D02*
X65818095Y-42526247D01*
X160534819Y-38676666D02*
X160058628Y-39009999D01*
X160534819Y-39248094D02*
X159534819Y-39248094D01*
X159534819Y-39248094D02*
X159534819Y-38867142D01*
X159534819Y-38867142D02*
X159582438Y-38771904D01*
X159582438Y-38771904D02*
X159630057Y-38724285D01*
X159630057Y-38724285D02*
X159725295Y-38676666D01*
X159725295Y-38676666D02*
X159868152Y-38676666D01*
X159868152Y-38676666D02*
X159963390Y-38724285D01*
X159963390Y-38724285D02*
X160011009Y-38771904D01*
X160011009Y-38771904D02*
X160058628Y-38867142D01*
X160058628Y-38867142D02*
X160058628Y-39248094D01*
X159630057Y-38295713D02*
X159582438Y-38248094D01*
X159582438Y-38248094D02*
X159534819Y-38152856D01*
X159534819Y-38152856D02*
X159534819Y-37914761D01*
X159534819Y-37914761D02*
X159582438Y-37819523D01*
X159582438Y-37819523D02*
X159630057Y-37771904D01*
X159630057Y-37771904D02*
X159725295Y-37724285D01*
X159725295Y-37724285D02*
X159820533Y-37724285D01*
X159820533Y-37724285D02*
X159963390Y-37771904D01*
X159963390Y-37771904D02*
X160534819Y-38343332D01*
X160534819Y-38343332D02*
X160534819Y-37724285D01*
X105163333Y-47109580D02*
X105115714Y-47157200D01*
X105115714Y-47157200D02*
X104972857Y-47204819D01*
X104972857Y-47204819D02*
X104877619Y-47204819D01*
X104877619Y-47204819D02*
X104734762Y-47157200D01*
X104734762Y-47157200D02*
X104639524Y-47061961D01*
X104639524Y-47061961D02*
X104591905Y-46966723D01*
X104591905Y-46966723D02*
X104544286Y-46776247D01*
X104544286Y-46776247D02*
X104544286Y-46633390D01*
X104544286Y-46633390D02*
X104591905Y-46442914D01*
X104591905Y-46442914D02*
X104639524Y-46347676D01*
X104639524Y-46347676D02*
X104734762Y-46252438D01*
X104734762Y-46252438D02*
X104877619Y-46204819D01*
X104877619Y-46204819D02*
X104972857Y-46204819D01*
X104972857Y-46204819D02*
X105115714Y-46252438D01*
X105115714Y-46252438D02*
X105163333Y-46300057D01*
X106115714Y-47204819D02*
X105544286Y-47204819D01*
X105830000Y-47204819D02*
X105830000Y-46204819D01*
X105830000Y-46204819D02*
X105734762Y-46347676D01*
X105734762Y-46347676D02*
X105639524Y-46442914D01*
X105639524Y-46442914D02*
X105544286Y-46490533D01*
X172264819Y-81651904D02*
X173074342Y-81651904D01*
X173074342Y-81651904D02*
X173169580Y-81604285D01*
X173169580Y-81604285D02*
X173217200Y-81556666D01*
X173217200Y-81556666D02*
X173264819Y-81461428D01*
X173264819Y-81461428D02*
X173264819Y-81270952D01*
X173264819Y-81270952D02*
X173217200Y-81175714D01*
X173217200Y-81175714D02*
X173169580Y-81128095D01*
X173169580Y-81128095D02*
X173074342Y-81080476D01*
X173074342Y-81080476D02*
X172264819Y-81080476D01*
X172264819Y-80128095D02*
X172264819Y-80604285D01*
X172264819Y-80604285D02*
X172741009Y-80651904D01*
X172741009Y-80651904D02*
X172693390Y-80604285D01*
X172693390Y-80604285D02*
X172645771Y-80509047D01*
X172645771Y-80509047D02*
X172645771Y-80270952D01*
X172645771Y-80270952D02*
X172693390Y-80175714D01*
X172693390Y-80175714D02*
X172741009Y-80128095D01*
X172741009Y-80128095D02*
X172836247Y-80080476D01*
X172836247Y-80080476D02*
X173074342Y-80080476D01*
X173074342Y-80080476D02*
X173169580Y-80128095D01*
X173169580Y-80128095D02*
X173217200Y-80175714D01*
X173217200Y-80175714D02*
X173264819Y-80270952D01*
X173264819Y-80270952D02*
X173264819Y-80509047D01*
X173264819Y-80509047D02*
X173217200Y-80604285D01*
X173217200Y-80604285D02*
X173169580Y-80651904D01*
D12*
%TO.C,J9*%
X164190000Y-129540000D02*
X171810000Y-129540000D01*
X165460000Y-129540000D02*
X165460000Y-119380000D01*
X171810000Y-129540000D02*
X171810000Y-119380000D01*
X164190000Y-119380000D02*
X164190000Y-129540000D01*
X171810000Y-119380000D02*
X164190000Y-119380000D01*
%TO.C,J8*%
X159080000Y-148810000D02*
X159080000Y-141190000D01*
X159080000Y-147540000D02*
X148920000Y-147540000D01*
X159080000Y-141190000D02*
X148920000Y-141190000D01*
X148920000Y-148810000D02*
X159080000Y-148810000D01*
X148920000Y-141190000D02*
X148920000Y-148810000D01*
%TO.C,U4*%
X171970000Y-53880000D02*
X171970000Y-69120000D01*
X165620000Y-53880000D02*
X165620000Y-69120000D01*
X164350000Y-69120000D02*
X171970000Y-69120000D01*
X164350000Y-53880000D02*
X171970000Y-53880000D01*
X164350000Y-53880000D02*
X164350000Y-69120000D01*
%TO.C,J3*%
X72540000Y-141190000D02*
X72540000Y-148810000D01*
X72540000Y-142460000D02*
X82700000Y-142460000D01*
X72540000Y-148810000D02*
X82700000Y-148810000D01*
X82700000Y-141190000D02*
X72540000Y-141190000D01*
X82700000Y-148810000D02*
X82700000Y-141190000D01*
%TO.C,R1*%
X70300000Y-64000000D02*
X69680000Y-64000000D01*
X72140000Y-64000000D02*
G75*
G02*
X70300000Y-64000000I-920000J0D01*
G01*
X70300000Y-64000000D02*
G75*
G02*
X72140000Y-64000000I920000J0D01*
G01*
%TO.C,J5*%
X46205000Y-141190000D02*
X46205000Y-148810000D01*
X46205000Y-142460000D02*
X56365000Y-142460000D01*
X46205000Y-148810000D02*
X56365000Y-148810000D01*
X56365000Y-141190000D02*
X46205000Y-141190000D01*
X56365000Y-148810000D02*
X56365000Y-141190000D01*
%TO.C,J1*%
X50160000Y-34310000D02*
X50160000Y-26690000D01*
X50160000Y-33040000D02*
X40000000Y-33040000D01*
X50160000Y-26690000D02*
X40000000Y-26690000D01*
X40000000Y-34310000D02*
X50160000Y-34310000D01*
X40000000Y-26690000D02*
X40000000Y-34310000D01*
%TO.C,Q1*%
X65920000Y-53730000D02*
X65920000Y-58371000D01*
X65920000Y-53730000D02*
X76160000Y-53730000D01*
X65920000Y-55240000D02*
X76160000Y-55240000D01*
X65920000Y-58371000D02*
X76160000Y-58371000D01*
X69190000Y-53730000D02*
X69190000Y-55240000D01*
X72891000Y-53730000D02*
X72891000Y-55240000D01*
X76160000Y-53730000D02*
X76160000Y-58371000D01*
%TO.C,U6*%
X171970000Y-93880000D02*
X171970000Y-109120000D01*
X165620000Y-93880000D02*
X165620000Y-109120000D01*
X164350000Y-109120000D02*
X171970000Y-109120000D01*
X164350000Y-93880000D02*
X171970000Y-93880000D01*
X164350000Y-93880000D02*
X164350000Y-109120000D01*
%TO.C,J4*%
X60040000Y-141190000D02*
X60040000Y-148810000D01*
X60040000Y-142460000D02*
X70200000Y-142460000D01*
X60040000Y-148810000D02*
X70200000Y-148810000D01*
X70200000Y-141190000D02*
X60040000Y-141190000D01*
X70200000Y-148810000D02*
X70200000Y-141190000D01*
%TO.C,U3*%
X171970000Y-34800000D02*
X171970000Y-50040000D01*
X165620000Y-34800000D02*
X165620000Y-50040000D01*
X164350000Y-50040000D02*
X171970000Y-50040000D01*
X164350000Y-34800000D02*
X171970000Y-34800000D01*
X164350000Y-34800000D02*
X164350000Y-50040000D01*
%TO.C,J2*%
X110950000Y-33810000D02*
X110950000Y-26190000D01*
X110950000Y-32540000D02*
X100790000Y-32540000D01*
X110950000Y-26190000D02*
X100790000Y-26190000D01*
X100790000Y-33810000D02*
X110950000Y-33810000D01*
X100790000Y-26190000D02*
X100790000Y-33810000D01*
%TO.C,U1*%
X111610000Y-103810000D02*
X111610000Y-110610000D01*
X111610000Y-101610000D02*
X111610000Y-101210000D01*
X111610000Y-99010000D02*
X111610000Y-98610000D01*
X111610000Y-89610000D02*
X111610000Y-96410000D01*
X108810000Y-110610000D02*
X109210000Y-110610000D01*
X108810000Y-89610000D02*
X109210000Y-89610000D01*
X106210000Y-110610000D02*
X106610000Y-110610000D01*
X106210000Y-89610000D02*
X106610000Y-89610000D01*
X103710000Y-110610000D02*
X104110000Y-110610000D01*
X103710000Y-89610000D02*
X104110000Y-89610000D01*
X101210000Y-110610000D02*
X101610000Y-110610000D01*
X101210000Y-89610000D02*
X101610000Y-89610000D01*
X98610000Y-110610000D02*
X99010000Y-110610000D01*
X98610000Y-89610000D02*
X99010000Y-89610000D01*
X96110000Y-110610000D02*
X96510000Y-110610000D01*
X96110000Y-89610000D02*
X96510000Y-89610000D01*
X93510000Y-110610000D02*
X93910000Y-110610000D01*
X93510000Y-89610000D02*
X93910000Y-89610000D01*
X91010000Y-110610000D02*
X91410000Y-110610000D01*
X91010000Y-89610000D02*
X91410000Y-89610000D01*
X88410000Y-110610000D02*
X88810000Y-110610000D01*
X88410000Y-89610000D02*
X88810000Y-89610000D01*
X85910000Y-110610000D02*
X86310000Y-110610000D01*
X85910000Y-89610000D02*
X86310000Y-89610000D01*
X83410000Y-110610000D02*
X83810000Y-110610000D01*
X83410000Y-89610000D02*
X83810000Y-89610000D01*
X80810000Y-110610000D02*
X81210000Y-110610000D01*
X80810000Y-89610000D02*
X81210000Y-89610000D01*
X78310000Y-110610000D02*
X78710000Y-110610000D01*
X78310000Y-89610000D02*
X78710000Y-89610000D01*
X75710000Y-110610000D02*
X76110000Y-110610000D01*
X75710000Y-89610000D02*
X76110000Y-89610000D01*
X73210000Y-110610000D02*
X73610000Y-110610000D01*
X73210000Y-89610000D02*
X73610000Y-89610000D01*
X70710000Y-110610000D02*
X71110000Y-110610000D01*
X70710000Y-89610000D02*
X71110000Y-89610000D01*
X68110000Y-110610000D02*
X68510000Y-110610000D01*
X68110000Y-89610000D02*
X68510000Y-89610000D01*
X65610000Y-110610000D02*
X66010000Y-110610000D01*
X65610000Y-89610000D02*
X66010000Y-89610000D01*
X63277000Y-110610000D02*
X63277000Y-107603000D01*
X63277000Y-107603000D02*
X60610000Y-107603000D01*
X63010000Y-110610000D02*
X63410000Y-110610000D01*
X63010000Y-89610000D02*
X63410000Y-89610000D01*
X60610000Y-110610000D02*
X60910000Y-110610000D01*
X60610000Y-110610000D02*
X60610000Y-89610000D01*
X60610000Y-89610000D02*
X60910000Y-89610000D01*
%TO.C,R3*%
X159080000Y-56460000D02*
G75*
G02*
X157240000Y-56460000I-920000J0D01*
G01*
X157240000Y-56460000D02*
G75*
G02*
X159080000Y-56460000I920000J0D01*
G01*
X158160000Y-57380000D02*
X158160000Y-58000000D01*
%TO.C,J7*%
X134420000Y-141190000D02*
X134420000Y-148810000D01*
X134420000Y-142460000D02*
X144580000Y-142460000D01*
X134420000Y-148810000D02*
X144580000Y-148810000D01*
X144580000Y-141190000D02*
X134420000Y-141190000D01*
X144580000Y-148810000D02*
X144580000Y-141190000D01*
%TO.C,R4*%
X159080000Y-75960000D02*
G75*
G02*
X157240000Y-75960000I-920000J0D01*
G01*
X157240000Y-75960000D02*
G75*
G02*
X159080000Y-75960000I920000J0D01*
G01*
X158160000Y-76880000D02*
X158160000Y-77500000D01*
%TO.C,R5*%
X158160000Y-97380000D02*
X158160000Y-98000000D01*
X159080000Y-96460000D02*
G75*
G02*
X157240000Y-96460000I-920000J0D01*
G01*
X157240000Y-96460000D02*
G75*
G02*
X159080000Y-96460000I920000J0D01*
G01*
%TO.C,J6*%
X42700000Y-148810000D02*
X42700000Y-141190000D01*
X42700000Y-141190000D02*
X32540000Y-141190000D01*
X32540000Y-148810000D02*
X42700000Y-148810000D01*
X32540000Y-142460000D02*
X42700000Y-142460000D01*
X32540000Y-141190000D02*
X32540000Y-148810000D01*
%TO.C,M1*%
X75160000Y-33810000D02*
X75160000Y-26190000D01*
X75160000Y-32540000D02*
X65000000Y-32540000D01*
X75160000Y-26190000D02*
X65000000Y-26190000D01*
X65000000Y-33810000D02*
X75160000Y-33810000D01*
X65000000Y-26190000D02*
X65000000Y-33810000D01*
%TO.C,Q2*%
X50240000Y-52230000D02*
X50240000Y-56871000D01*
X46971000Y-52230000D02*
X46971000Y-53740000D01*
X43270000Y-52230000D02*
X43270000Y-53740000D01*
X40000000Y-56871000D02*
X50240000Y-56871000D01*
X40000000Y-53740000D02*
X50240000Y-53740000D01*
X40000000Y-52230000D02*
X50240000Y-52230000D01*
X40000000Y-52230000D02*
X40000000Y-56871000D01*
%TO.C,D1*%
X74400000Y-45500000D02*
X73380000Y-45500000D01*
X73380000Y-46970000D02*
X73380000Y-44030000D01*
X73380000Y-44030000D02*
X67940000Y-44030000D01*
X68960000Y-44030000D02*
X68960000Y-46970000D01*
X68840000Y-44030000D02*
X68840000Y-46970000D01*
X68720000Y-44030000D02*
X68720000Y-46970000D01*
X67940000Y-46970000D02*
X73380000Y-46970000D01*
X67940000Y-44030000D02*
X67940000Y-46970000D01*
X66920000Y-45500000D02*
X67940000Y-45500000D01*
%TO.C,R2*%
X159080000Y-37240000D02*
G75*
G02*
X157240000Y-37240000I-920000J0D01*
G01*
X157240000Y-37240000D02*
G75*
G02*
X159080000Y-37240000I920000J0D01*
G01*
X158160000Y-38160000D02*
X158160000Y-38780000D01*
%TO.C,C1*%
X107950000Y-43000000D02*
G75*
G02*
X102710000Y-43000000I-2620000J0D01*
G01*
X102710000Y-43000000D02*
G75*
G02*
X107950000Y-43000000I2620000J0D01*
G01*
X108134775Y-44475000D02*
X107634775Y-44475000D01*
X107884775Y-44725000D02*
X107884775Y-44225000D01*
X105330000Y-45580000D02*
X105330000Y-40420000D01*
X105290000Y-45580000D02*
X105290000Y-40420000D01*
X105250000Y-45579000D02*
X105250000Y-40421000D01*
X105210000Y-45578000D02*
X105210000Y-40422000D01*
X105170000Y-45576000D02*
X105170000Y-40424000D01*
X105130000Y-45573000D02*
X105130000Y-40427000D01*
X105090000Y-45569000D02*
X105090000Y-44040000D01*
X105090000Y-41960000D02*
X105090000Y-40431000D01*
X105050000Y-45565000D02*
X105050000Y-44040000D01*
X105050000Y-41960000D02*
X105050000Y-40435000D01*
X105010000Y-45561000D02*
X105010000Y-44040000D01*
X105010000Y-41960000D02*
X105010000Y-40439000D01*
X104970000Y-45556000D02*
X104970000Y-44040000D01*
X104970000Y-41960000D02*
X104970000Y-40444000D01*
X104930000Y-45550000D02*
X104930000Y-44040000D01*
X104930000Y-41960000D02*
X104930000Y-40450000D01*
X104890000Y-45543000D02*
X104890000Y-44040000D01*
X104890000Y-41960000D02*
X104890000Y-40457000D01*
X104850000Y-45536000D02*
X104850000Y-44040000D01*
X104850000Y-41960000D02*
X104850000Y-40464000D01*
X104810000Y-45528000D02*
X104810000Y-44040000D01*
X104810000Y-41960000D02*
X104810000Y-40472000D01*
X104770000Y-45520000D02*
X104770000Y-44040000D01*
X104770000Y-41960000D02*
X104770000Y-40480000D01*
X104730000Y-45511000D02*
X104730000Y-44040000D01*
X104730000Y-41960000D02*
X104730000Y-40489000D01*
X104690000Y-45501000D02*
X104690000Y-44040000D01*
X104690000Y-41960000D02*
X104690000Y-40499000D01*
X104650000Y-45491000D02*
X104650000Y-44040000D01*
X104650000Y-41960000D02*
X104650000Y-40509000D01*
X104609000Y-45480000D02*
X104609000Y-44040000D01*
X104609000Y-41960000D02*
X104609000Y-40520000D01*
X104569000Y-45468000D02*
X104569000Y-44040000D01*
X104569000Y-41960000D02*
X104569000Y-40532000D01*
X104529000Y-45455000D02*
X104529000Y-44040000D01*
X104529000Y-41960000D02*
X104529000Y-40545000D01*
X104489000Y-45442000D02*
X104489000Y-44040000D01*
X104489000Y-41960000D02*
X104489000Y-40558000D01*
X104449000Y-45428000D02*
X104449000Y-44040000D01*
X104449000Y-41960000D02*
X104449000Y-40572000D01*
X104409000Y-45414000D02*
X104409000Y-44040000D01*
X104409000Y-41960000D02*
X104409000Y-40586000D01*
X104369000Y-45398000D02*
X104369000Y-44040000D01*
X104369000Y-41960000D02*
X104369000Y-40602000D01*
X104329000Y-45382000D02*
X104329000Y-44040000D01*
X104329000Y-41960000D02*
X104329000Y-40618000D01*
X104289000Y-45365000D02*
X104289000Y-44040000D01*
X104289000Y-41960000D02*
X104289000Y-40635000D01*
X104249000Y-45348000D02*
X104249000Y-44040000D01*
X104249000Y-41960000D02*
X104249000Y-40652000D01*
X104209000Y-45329000D02*
X104209000Y-44040000D01*
X104209000Y-41960000D02*
X104209000Y-40671000D01*
X104169000Y-45310000D02*
X104169000Y-44040000D01*
X104169000Y-41960000D02*
X104169000Y-40690000D01*
X104129000Y-45290000D02*
X104129000Y-44040000D01*
X104129000Y-41960000D02*
X104129000Y-40710000D01*
X104089000Y-45268000D02*
X104089000Y-44040000D01*
X104089000Y-41960000D02*
X104089000Y-40732000D01*
X104049000Y-45247000D02*
X104049000Y-44040000D01*
X104049000Y-41960000D02*
X104049000Y-40753000D01*
X104009000Y-45224000D02*
X104009000Y-44040000D01*
X104009000Y-41960000D02*
X104009000Y-40776000D01*
X103969000Y-45200000D02*
X103969000Y-44040000D01*
X103969000Y-41960000D02*
X103969000Y-40800000D01*
X103929000Y-45175000D02*
X103929000Y-44040000D01*
X103929000Y-41960000D02*
X103929000Y-40825000D01*
X103889000Y-45149000D02*
X103889000Y-44040000D01*
X103889000Y-41960000D02*
X103889000Y-40851000D01*
X103849000Y-45122000D02*
X103849000Y-44040000D01*
X103849000Y-41960000D02*
X103849000Y-40878000D01*
X103809000Y-45095000D02*
X103809000Y-44040000D01*
X103809000Y-41960000D02*
X103809000Y-40905000D01*
X103769000Y-45065000D02*
X103769000Y-44040000D01*
X103769000Y-41960000D02*
X103769000Y-40935000D01*
X103729000Y-45035000D02*
X103729000Y-44040000D01*
X103729000Y-41960000D02*
X103729000Y-40965000D01*
X103689000Y-45004000D02*
X103689000Y-44040000D01*
X103689000Y-41960000D02*
X103689000Y-40996000D01*
X103649000Y-44971000D02*
X103649000Y-44040000D01*
X103649000Y-41960000D02*
X103649000Y-41029000D01*
X103609000Y-44937000D02*
X103609000Y-44040000D01*
X103609000Y-41960000D02*
X103609000Y-41063000D01*
X103569000Y-44901000D02*
X103569000Y-44040000D01*
X103569000Y-41960000D02*
X103569000Y-41099000D01*
X103529000Y-44864000D02*
X103529000Y-44040000D01*
X103529000Y-41960000D02*
X103529000Y-41136000D01*
X103489000Y-44826000D02*
X103489000Y-44040000D01*
X103489000Y-41960000D02*
X103489000Y-41174000D01*
X103449000Y-44785000D02*
X103449000Y-44040000D01*
X103449000Y-41960000D02*
X103449000Y-41215000D01*
X103409000Y-44743000D02*
X103409000Y-44040000D01*
X103409000Y-41960000D02*
X103409000Y-41257000D01*
X103369000Y-44699000D02*
X103369000Y-44040000D01*
X103369000Y-41960000D02*
X103369000Y-41301000D01*
X103329000Y-44653000D02*
X103329000Y-44040000D01*
X103329000Y-41960000D02*
X103329000Y-41347000D01*
X103289000Y-44605000D02*
X103289000Y-44040000D01*
X103289000Y-41960000D02*
X103289000Y-41395000D01*
X103249000Y-44554000D02*
X103249000Y-44040000D01*
X103249000Y-41960000D02*
X103249000Y-41446000D01*
X103209000Y-44500000D02*
X103209000Y-44040000D01*
X103209000Y-41960000D02*
X103209000Y-41500000D01*
X103169000Y-44443000D02*
X103169000Y-44040000D01*
X103169000Y-41960000D02*
X103169000Y-41557000D01*
X103129000Y-44383000D02*
X103129000Y-44040000D01*
X103129000Y-41960000D02*
X103129000Y-41617000D01*
X103089000Y-44319000D02*
X103089000Y-44040000D01*
X103089000Y-41960000D02*
X103089000Y-41681000D01*
X103049000Y-44251000D02*
X103049000Y-44040000D01*
X103049000Y-41960000D02*
X103049000Y-41749000D01*
X103009000Y-44178000D02*
X103009000Y-41822000D01*
X102969000Y-44098000D02*
X102969000Y-41902000D01*
X102929000Y-44011000D02*
X102929000Y-41989000D01*
X102889000Y-43915000D02*
X102889000Y-42085000D01*
X102849000Y-43805000D02*
X102849000Y-42195000D01*
X102809000Y-43677000D02*
X102809000Y-42323000D01*
X102769000Y-43518000D02*
X102769000Y-42482000D01*
X102729000Y-43284000D02*
X102729000Y-42716000D01*
%TO.C,U5*%
X171970000Y-73300000D02*
X171970000Y-88540000D01*
X165620000Y-73300000D02*
X165620000Y-88540000D01*
X164350000Y-88540000D02*
X171970000Y-88540000D01*
X164350000Y-73300000D02*
X171970000Y-73300000D01*
X164350000Y-73300000D02*
X164350000Y-88540000D01*
%TD*%
M02*
