%TF.GenerationSoftware,KiCad,Pcbnew,8.0.1*%
%TF.CreationDate,2024-04-17T15:42:03-07:00*%
%TF.ProjectId,LuliHydroponics,4c756c69-4879-4647-926f-706f6e696373,rev?*%
%TF.SameCoordinates,Original*%
%TF.FileFunction,Copper,L1,Top*%
%TF.FilePolarity,Positive*%
%FSLAX46Y46*%
G04 Gerber Fmt 4.6, Leading zero omitted, Abs format (unit mm)*
G04 Created by KiCad (PCBNEW 8.0.1) date 2024-04-17 15:42:03*
%MOMM*%
%LPD*%
G01*
G04 APERTURE LIST*
%TA.AperFunction,ComponentPad*%
%ADD10C,3.000000*%
%TD*%
%TA.AperFunction,ComponentPad*%
%ADD11R,3.000000X3.000000*%
%TD*%
%TA.AperFunction,ComponentPad*%
%ADD12C,1.700000*%
%TD*%
%TA.AperFunction,ComponentPad*%
%ADD13C,1.400000*%
%TD*%
%TA.AperFunction,ComponentPad*%
%ADD14O,1.400000X1.400000*%
%TD*%
%TA.AperFunction,ComponentPad*%
%ADD15R,1.905000X2.000000*%
%TD*%
%TA.AperFunction,ComponentPad*%
%ADD16O,1.905000X2.000000*%
%TD*%
%TA.AperFunction,SMDPad,CuDef*%
%ADD17R,3.500000X1.700000*%
%TD*%
%TA.AperFunction,ComponentPad*%
%ADD18O,1.700000X1.700000*%
%TD*%
%TA.AperFunction,ComponentPad*%
%ADD19R,1.700000X1.700000*%
%TD*%
%TA.AperFunction,SMDPad,CuDef*%
%ADD20R,1.700000X3.500000*%
%TD*%
%TA.AperFunction,ComponentPad*%
%ADD21O,2.200000X2.200000*%
%TD*%
%TA.AperFunction,ComponentPad*%
%ADD22R,2.200000X2.200000*%
%TD*%
%TA.AperFunction,ComponentPad*%
%ADD23C,1.600000*%
%TD*%
%TA.AperFunction,ComponentPad*%
%ADD24R,1.600000X1.600000*%
%TD*%
%TA.AperFunction,ViaPad*%
%ADD25C,0.600000*%
%TD*%
%TA.AperFunction,Conductor*%
%ADD26C,0.508000*%
%TD*%
%TA.AperFunction,Conductor*%
%ADD27C,1.270000*%
%TD*%
G04 APERTURE END LIST*
D10*
%TO.P,J10,4,Pin_4*%
%TO.N,Net-(J10-Pin_4)*%
X38000000Y-104160000D03*
%TO.P,J10,3,Pin_3*%
%TO.N,Net-(J10-Pin_3)*%
X38000000Y-99080000D03*
%TO.P,J10,2,Pin_2*%
%TO.N,GND*%
X38000000Y-94000000D03*
D11*
%TO.P,J10,1,Pin_1*%
%TO.N,/3V3*%
X38000000Y-88920000D03*
%TD*%
D10*
%TO.P,J9,2,Pin_2*%
%TO.N,GND*%
X168000000Y-127000000D03*
D11*
%TO.P,J9,1,Pin_1*%
%TO.N,/5V*%
X168000000Y-121920000D03*
%TD*%
D12*
%TO.P,U9,6,Vin*%
%TO.N,/5V*%
X104460000Y-145000000D03*
%TO.P,U9,5,GND*%
%TO.N,Net-(U1-AGND)*%
X106960000Y-145000000D03*
%TO.P,U9,4,GND*%
%TO.N,Net-(U1-GND-Pad3)*%
X109460000Y-145000000D03*
%TO.P,U9,3,Po*%
%TO.N,Net-(U1-GPIO26_ADC0)*%
X111960000Y-145000000D03*
%TO.P,U9,2,Do*%
%TO.N,unconnected-(U9-Do-Pad2)*%
X114460000Y-145000000D03*
%TO.P,U9,1,To*%
%TO.N,unconnected-(U9-To-Pad1)*%
X116960000Y-145000000D03*
%TD*%
D10*
%TO.P,J8,2,Pin_2*%
%TO.N,GND*%
X156540000Y-145000000D03*
D11*
%TO.P,J8,1,Pin_1*%
%TO.N,Net-(J8-Pin_1)*%
X151460000Y-145000000D03*
%TD*%
D10*
%TO.P,U4,3,GND*%
%TO.N,GND*%
X168160000Y-66580000D03*
%TO.P,U4,2,DATA*%
%TO.N,Net-(U2-I1)*%
X168160000Y-61500000D03*
D11*
%TO.P,U4,1,VDD*%
%TO.N,/3V3*%
X168160000Y-56420000D03*
%TD*%
D10*
%TO.P,J3,2,Pin_2*%
%TO.N,Net-(J3-Pin_2)*%
X75080000Y-145000000D03*
D11*
%TO.P,J3,1,Pin_1*%
%TO.N,Net-(J3-Pin_1)*%
X80160000Y-145000000D03*
%TD*%
D13*
%TO.P,R1,1*%
%TO.N,Net-(U1-GPIO21)*%
X71220000Y-64000000D03*
D14*
%TO.P,R1,2*%
%TO.N,Net-(Q1-G)*%
X68680000Y-64000000D03*
%TD*%
D11*
%TO.P,J5,1,Pin_1*%
%TO.N,Net-(J5-Pin_1)*%
X53825000Y-145000000D03*
D10*
%TO.P,J5,2,Pin_2*%
%TO.N,/5V*%
X48745000Y-145000000D03*
%TD*%
%TO.P,J1,2,Pin_2*%
%TO.N,Net-(D13-K)*%
X47620000Y-30500000D03*
D11*
%TO.P,J1,1,Pin_1*%
%TO.N,VCC*%
X42540000Y-30500000D03*
%TD*%
D15*
%TO.P,Q1,1,G*%
%TO.N,Net-(Q1-G)*%
X68500000Y-57000000D03*
D16*
%TO.P,Q1,2,D*%
%TO.N,Net-(D1-A)*%
X71040000Y-57000000D03*
%TO.P,Q1,3,S*%
%TO.N,GND*%
X73580000Y-57000000D03*
%TD*%
D10*
%TO.P,U6,3,GND*%
%TO.N,GND*%
X168160000Y-106580000D03*
%TO.P,U6,2,DATA*%
%TO.N,Net-(U2-I3)*%
X168160000Y-101500000D03*
D11*
%TO.P,U6,1,VDD*%
%TO.N,/3V3*%
X168160000Y-96420000D03*
%TD*%
D10*
%TO.P,J4,2,Pin_2*%
%TO.N,Net-(J4-Pin_2)*%
X62580000Y-145000000D03*
D11*
%TO.P,J4,1,Pin_1*%
%TO.N,Net-(J4-Pin_1)*%
X67660000Y-145000000D03*
%TD*%
D10*
%TO.P,U3,3,GND*%
%TO.N,GND*%
X168160000Y-47500000D03*
%TO.P,U3,2,DATA*%
%TO.N,Net-(U2-I0)*%
X168160000Y-42420000D03*
D11*
%TO.P,U3,1,VDD*%
%TO.N,/3V3*%
X168160000Y-37340000D03*
%TD*%
D10*
%TO.P,J2,2,Pin_2*%
%TO.N,VCC*%
X108410000Y-30000000D03*
D11*
%TO.P,J2,1,Pin_1*%
%TO.N,GND*%
X103330000Y-30000000D03*
%TD*%
D17*
%TO.P,U1,43,SWDIO*%
%TO.N,unconnected-(U1-SWDIO-Pad43)*%
X110910000Y-97570000D03*
D18*
X110010000Y-97570000D03*
D17*
%TO.P,U1,42,GND*%
%TO.N,unconnected-(U1-GND-Pad42)*%
X110910000Y-100110000D03*
D19*
X110010000Y-100110000D03*
D17*
%TO.P,U1,41,SWCLK*%
%TO.N,unconnected-(U1-SWCLK-Pad41)*%
X110910000Y-102650000D03*
D18*
X110010000Y-102650000D03*
D20*
%TO.P,U1,40,VBUS*%
%TO.N,unconnected-(U1-VBUS-Pad40)*%
X61980000Y-90320000D03*
D18*
X61980000Y-91220000D03*
D20*
%TO.P,U1,39,VSYS*%
%TO.N,/5V*%
X64520000Y-90320000D03*
D18*
X64520000Y-91220000D03*
D20*
%TO.P,U1,38,GND*%
%TO.N,GND*%
X67060000Y-90320000D03*
D19*
X67060000Y-91220000D03*
D20*
%TO.P,U1,37,3V3_EN*%
%TO.N,unconnected-(U1-3V3_EN-Pad37)*%
X69600000Y-90320000D03*
D18*
X69600000Y-91220000D03*
D20*
%TO.P,U1,36,3V3*%
%TO.N,/3V3*%
X72140000Y-90320000D03*
D18*
X72140000Y-91220000D03*
D20*
%TO.P,U1,35,ADC_VREF*%
%TO.N,unconnected-(U1-ADC_VREF-Pad35)*%
X74680000Y-90320000D03*
D18*
X74680000Y-91220000D03*
D20*
%TO.P,U1,34,GPIO28_ADC2*%
%TO.N,unconnected-(U1-GPIO28_ADC2-Pad34)*%
X77220000Y-90320000D03*
D18*
X77220000Y-91220000D03*
D20*
%TO.P,U1,33,AGND*%
%TO.N,Net-(U1-AGND)*%
X79760000Y-90320000D03*
D19*
X79760000Y-91220000D03*
D20*
%TO.P,U1,32,GPIO27_ADC1*%
%TO.N,unconnected-(U1-GPIO27_ADC1-Pad32)*%
X82300000Y-90320000D03*
D18*
X82300000Y-91220000D03*
D20*
%TO.P,U1,31,GPIO26_ADC0*%
%TO.N,Net-(U1-GPIO26_ADC0)*%
X84840000Y-90320000D03*
D18*
X84840000Y-91220000D03*
D20*
%TO.P,U1,30,RUN*%
%TO.N,unconnected-(U1-RUN-Pad30)*%
X87380000Y-90320000D03*
D18*
X87380000Y-91220000D03*
D20*
%TO.P,U1,29,GPIO22*%
%TO.N,Net-(Q2-G)*%
X89920000Y-90320000D03*
D18*
X89920000Y-91220000D03*
D20*
%TO.P,U1,28,GND*%
%TO.N,Net-(U2-GND)*%
X92460000Y-90320000D03*
D19*
X92460000Y-91220000D03*
D20*
%TO.P,U1,27,GPIO21*%
%TO.N,Net-(U1-GPIO21)*%
X95000000Y-90320000D03*
D18*
X95000000Y-91220000D03*
D20*
%TO.P,U1,26,GPIO20*%
%TO.N,Net-(U1-GPIO20)*%
X97540000Y-90320000D03*
D18*
X97540000Y-91220000D03*
D20*
%TO.P,U1,25,GPIO19*%
%TO.N,Net-(U1-GPIO19)*%
X100080000Y-90320000D03*
D18*
X100080000Y-91220000D03*
D20*
%TO.P,U1,24,GPIO18*%
%TO.N,Net-(U1-GPIO18)*%
X102620000Y-90320000D03*
D18*
X102620000Y-91220000D03*
D20*
%TO.P,U1,23,GND*%
%TO.N,unconnected-(U1-GND-Pad23)*%
X105160000Y-90320000D03*
D19*
X105160000Y-91220000D03*
D20*
%TO.P,U1,22,GPIO17*%
%TO.N,Net-(J7-Pin_2)*%
X107700000Y-90320000D03*
D18*
X107700000Y-91220000D03*
D20*
%TO.P,U1,21,GPIO16*%
%TO.N,Net-(U1-GPIO16)*%
X110240000Y-90320000D03*
D18*
X110240000Y-91220000D03*
D20*
%TO.P,U1,20,GPIO15*%
%TO.N,Net-(J3-Pin_2)*%
X110240000Y-109900000D03*
D18*
X110240000Y-109000000D03*
D20*
%TO.P,U1,19,GPIO14*%
%TO.N,Net-(J4-Pin_1)*%
X107700000Y-109900000D03*
D18*
X107700000Y-109000000D03*
D20*
%TO.P,U1,18,GND*%
%TO.N,Net-(J6-Pin_1)*%
X105160000Y-109900000D03*
D19*
X105160000Y-109000000D03*
D20*
%TO.P,U1,17,GPIO13*%
%TO.N,Net-(J3-Pin_1)*%
X102620000Y-109900000D03*
D18*
X102620000Y-109000000D03*
D20*
%TO.P,U1,16,GPIO12*%
%TO.N,unconnected-(U1-GPIO12-Pad16)*%
X100080000Y-109900000D03*
D18*
X100080000Y-109000000D03*
D20*
%TO.P,U1,15,GPIO11*%
%TO.N,Net-(J4-Pin_2)*%
X97540000Y-109900000D03*
D18*
X97540000Y-109000000D03*
D20*
%TO.P,U1,14,GPIO10*%
%TO.N,Net-(J5-Pin_1)*%
X95000000Y-109900000D03*
D18*
X95000000Y-109000000D03*
D20*
%TO.P,U1,13,GND*%
%TO.N,unconnected-(U1-GND-Pad13)*%
X92460000Y-109900000D03*
D19*
X92460000Y-109000000D03*
D20*
%TO.P,U1,12,GPIO9*%
%TO.N,unconnected-(U1-GPIO9-Pad12)*%
X89920000Y-109900000D03*
D18*
X89920000Y-109000000D03*
D20*
%TO.P,U1,11,GPIO8*%
%TO.N,unconnected-(U1-GPIO8-Pad11)*%
X87380000Y-109900000D03*
D18*
X87380000Y-109000000D03*
D20*
%TO.P,U1,10,GPIO7*%
%TO.N,unconnected-(U1-GPIO7-Pad10)*%
X84840000Y-109900000D03*
D18*
X84840000Y-109000000D03*
D20*
%TO.P,U1,9,GPIO6*%
%TO.N,unconnected-(U1-GPIO6-Pad9)*%
X82300000Y-109900000D03*
D18*
X82300000Y-109000000D03*
D20*
%TO.P,U1,8,GND*%
%TO.N,unconnected-(U1-GND-Pad8)*%
X79760000Y-109900000D03*
D19*
X79760000Y-109000000D03*
D20*
%TO.P,U1,7,GPIO5*%
%TO.N,unconnected-(U1-GPIO5-Pad7)*%
X77220000Y-109900000D03*
D18*
X77220000Y-109000000D03*
D20*
%TO.P,U1,6,GPIO4*%
%TO.N,unconnected-(U1-GPIO4-Pad6)*%
X74680000Y-109900000D03*
D18*
X74680000Y-109000000D03*
D20*
%TO.P,U1,5,GPIO3*%
%TO.N,unconnected-(U1-GPIO3-Pad5)*%
X72140000Y-109900000D03*
D18*
X72140000Y-109000000D03*
D20*
%TO.P,U1,4,GPIO2*%
%TO.N,unconnected-(U1-GPIO2-Pad4)*%
X69600000Y-109900000D03*
D18*
X69600000Y-109000000D03*
D20*
%TO.P,U1,3,GND*%
%TO.N,Net-(U1-GND-Pad3)*%
X67060000Y-109900000D03*
D19*
X67060000Y-109000000D03*
D20*
%TO.P,U1,2,GPIO1*%
%TO.N,Net-(J10-Pin_3)*%
X64520000Y-109900000D03*
D18*
X64520000Y-109000000D03*
D20*
%TO.P,U1,1,GPIO0*%
%TO.N,Net-(J10-Pin_4)*%
X61980000Y-109900000D03*
D18*
X61980000Y-109000000D03*
%TD*%
D14*
%TO.P,R3,2*%
%TO.N,Net-(U2-I1)*%
X158160000Y-59000000D03*
D13*
%TO.P,R3,1*%
%TO.N,/3V3*%
X158160000Y-56460000D03*
%TD*%
D10*
%TO.P,J7,2,Pin_2*%
%TO.N,Net-(J7-Pin_2)*%
X136960000Y-145000000D03*
D11*
%TO.P,J7,1,Pin_1*%
%TO.N,/5V*%
X142040000Y-145000000D03*
%TD*%
D14*
%TO.P,R4,2*%
%TO.N,Net-(U2-I2)*%
X158160000Y-78500000D03*
D13*
%TO.P,R4,1*%
%TO.N,/3V3*%
X158160000Y-75960000D03*
%TD*%
%TO.P,R5,1*%
%TO.N,/3V3*%
X158160000Y-96460000D03*
D14*
%TO.P,R5,2*%
%TO.N,Net-(U2-I3)*%
X158160000Y-99000000D03*
%TD*%
D12*
%TO.P,U2,16,VCC*%
%TO.N,/5V*%
X137750000Y-73810000D03*
%TO.P,U2,15,I4*%
%TO.N,Net-(J8-Pin_1)*%
X135250000Y-73810000D03*
%TO.P,U2,14,I5*%
%TO.N,unconnected-(U2-I5-Pad14)*%
X132750000Y-73810000D03*
%TO.P,U2,13,I6*%
%TO.N,unconnected-(U2-I6-Pad13)*%
X130250000Y-73810000D03*
%TO.P,U2,12,I7*%
%TO.N,unconnected-(U2-I7-Pad12)*%
X127750000Y-73810000D03*
%TO.P,U2,11,S0*%
%TO.N,Net-(U1-GPIO18)*%
X125250000Y-73810000D03*
%TO.P,U2,10,S1*%
%TO.N,Net-(U1-GPIO19)*%
X122750000Y-73810000D03*
%TO.P,U2,9,S2*%
%TO.N,Net-(U1-GPIO20)*%
X120250000Y-73810000D03*
%TO.P,U2,8,GND*%
%TO.N,Net-(U2-GND)*%
X120250000Y-66190000D03*
%TO.P,U2,7,~{E}*%
%TO.N,unconnected-(U2-~{E}-Pad7)*%
X122750000Y-66190000D03*
%TO.P,U2,6,~{Z}*%
%TO.N,unconnected-(U2-~{Z}-Pad6)*%
X125250000Y-66190000D03*
%TO.P,U2,5,Z*%
%TO.N,Net-(U1-GPIO16)*%
X127750000Y-66190000D03*
%TO.P,U2,4,I0*%
%TO.N,Net-(U2-I0)*%
X130250000Y-66190000D03*
%TO.P,U2,3,I1*%
%TO.N,Net-(U2-I1)*%
X132750000Y-66190000D03*
%TO.P,U2,2,I2*%
%TO.N,Net-(U2-I2)*%
X135250000Y-66190000D03*
%TO.P,U2,1,I3*%
%TO.N,Net-(U2-I3)*%
X137750000Y-66190000D03*
%TD*%
D11*
%TO.P,J6,1,Pin_1*%
%TO.N,Net-(J6-Pin_1)*%
X40160000Y-145000000D03*
D10*
%TO.P,J6,2,Pin_2*%
%TO.N,unconnected-(J6-Pin_2-Pad2)*%
X35080000Y-145000000D03*
%TD*%
%TO.P,M1,2,-*%
%TO.N,Net-(D1-A)*%
X72620000Y-30000000D03*
D11*
%TO.P,M1,1,+*%
%TO.N,VCC*%
X67540000Y-30000000D03*
%TD*%
D16*
%TO.P,Q2,3,S*%
%TO.N,GND*%
X47660000Y-55500000D03*
%TO.P,Q2,2,D*%
%TO.N,Net-(D13-K)*%
X45120000Y-55500000D03*
D15*
%TO.P,Q2,1,G*%
%TO.N,Net-(Q2-G)*%
X42580000Y-55500000D03*
%TD*%
D21*
%TO.P,D1,2,A*%
%TO.N,Net-(D1-A)*%
X75740000Y-45500000D03*
D22*
%TO.P,D1,1,K*%
%TO.N,VCC*%
X65580000Y-45500000D03*
%TD*%
D14*
%TO.P,R2,2*%
%TO.N,Net-(U2-I0)*%
X158160000Y-39780000D03*
D13*
%TO.P,R2,1*%
%TO.N,/3V3*%
X158160000Y-37240000D03*
%TD*%
D23*
%TO.P,C1,2*%
%TO.N,GND*%
X104080000Y-43000000D03*
D24*
%TO.P,C1,1*%
%TO.N,VCC*%
X106580000Y-43000000D03*
%TD*%
D10*
%TO.P,U5,3,GND*%
%TO.N,GND*%
X168160000Y-86000000D03*
%TO.P,U5,2,DATA*%
%TO.N,Net-(U2-I2)*%
X168160000Y-80920000D03*
D11*
%TO.P,U5,1,VDD*%
%TO.N,/3V3*%
X168160000Y-75840000D03*
%TD*%
D25*
%TO.N,Net-(U1-GND-Pad3)*%
X113079900Y-112222100D03*
%TO.N,Net-(J3-Pin_1)*%
X95117900Y-118832300D03*
%TD*%
D26*
%TO.N,Net-(J10-Pin_3)*%
X45814300Y-106894300D02*
X38000000Y-99080000D01*
X64520000Y-106894300D02*
X45814300Y-106894300D01*
X64520000Y-109000000D02*
X64520000Y-106894300D01*
%TO.N,/3V3*%
X42361400Y-87314300D02*
X40755700Y-88920000D01*
X71040400Y-87314300D02*
X42361400Y-87314300D01*
X72140000Y-88413900D02*
X71040400Y-87314300D01*
X72140000Y-91220000D02*
X72140000Y-88413900D01*
X38000000Y-88920000D02*
X40755700Y-88920000D01*
X155025700Y-93325700D02*
X72140000Y-93325700D01*
X158160000Y-96460000D02*
X155025700Y-93325700D01*
X72140000Y-91220000D02*
X72140000Y-93325700D01*
%TO.N,/5V*%
X104460000Y-145000000D02*
X104460000Y-144487700D01*
X139218200Y-142178200D02*
X142040000Y-145000000D01*
X106769500Y-142178200D02*
X139218200Y-142178200D01*
X104460000Y-144487700D02*
X106769500Y-142178200D01*
X51500700Y-142244300D02*
X48745000Y-145000000D01*
X102216600Y-142244300D02*
X51500700Y-142244300D01*
X104460000Y-144487700D02*
X102216600Y-142244300D01*
X144795700Y-142368600D02*
X144795700Y-145000000D01*
X165244300Y-121920000D02*
X144795700Y-142368600D01*
X168000000Y-121920000D02*
X165244300Y-121920000D01*
X142040000Y-145000000D02*
X144795700Y-145000000D01*
%TO.N,Net-(J10-Pin_4)*%
X42840000Y-109000000D02*
X38000000Y-104160000D01*
X61980000Y-109000000D02*
X42840000Y-109000000D01*
%TO.N,Net-(U1-GND-Pad3)*%
X113079900Y-108355100D02*
X113079900Y-112222100D01*
X111619100Y-106894300D02*
X113079900Y-108355100D01*
X67060000Y-106894300D02*
X111619100Y-106894300D01*
X67060000Y-109000000D02*
X67060000Y-106894300D01*
%TO.N,Net-(U1-GPIO16)*%
X110240000Y-80825500D02*
X110240000Y-91220000D01*
X121181400Y-69884100D02*
X110240000Y-80825500D01*
X124581900Y-69884100D02*
X121181400Y-69884100D01*
X127750000Y-66716000D02*
X124581900Y-69884100D01*
X127750000Y-66190000D02*
X127750000Y-66716000D01*
%TO.N,Net-(U2-I3)*%
X162615700Y-101500000D02*
X168160000Y-101500000D01*
X160115700Y-99000000D02*
X162615700Y-101500000D01*
X158160000Y-99000000D02*
X160115700Y-99000000D01*
%TO.N,Net-(U2-I2)*%
X162535700Y-80920000D02*
X168160000Y-80920000D01*
X160115700Y-78500000D02*
X162535700Y-80920000D01*
X158160000Y-78500000D02*
X160115700Y-78500000D01*
X147034000Y-78500000D02*
X158160000Y-78500000D01*
X135250000Y-66716000D02*
X147034000Y-78500000D01*
X135250000Y-66190000D02*
X135250000Y-66716000D01*
%TO.N,Net-(U2-I1)*%
X162615700Y-61500000D02*
X168160000Y-61500000D01*
X160115700Y-59000000D02*
X162615700Y-61500000D01*
X158160000Y-59000000D02*
X160115700Y-59000000D01*
%TO.N,Net-(U2-I0)*%
X162755700Y-42420000D02*
X168160000Y-42420000D01*
X160115700Y-39780000D02*
X162755700Y-42420000D01*
X158160000Y-39780000D02*
X160115700Y-39780000D01*
%TO.N,Net-(U1-GPIO21)*%
X95000000Y-87780000D02*
X71220000Y-64000000D01*
X95000000Y-91220000D02*
X95000000Y-87780000D01*
%TO.N,Net-(Q2-G)*%
X89920000Y-88410900D02*
X89920000Y-91220000D01*
X59264800Y-57755700D02*
X89920000Y-88410900D01*
X42580000Y-57755700D02*
X59264800Y-57755700D01*
X42580000Y-55500000D02*
X42580000Y-57755700D01*
%TO.N,Net-(J6-Pin_1)*%
X40160000Y-145000000D02*
X42915700Y-145000000D01*
X47181100Y-140734600D02*
X42915700Y-145000000D01*
X76161900Y-140734600D02*
X47181100Y-140734600D01*
X105160000Y-111736500D02*
X76161900Y-140734600D01*
X105160000Y-109000000D02*
X105160000Y-111736500D01*
%TO.N,Net-(J3-Pin_1)*%
X95523500Y-118832300D02*
X95117900Y-118832300D01*
X102620000Y-111735800D02*
X95523500Y-118832300D01*
X102620000Y-109000000D02*
X102620000Y-111735800D01*
%TO.N,GND*%
X38674300Y-93325700D02*
X38000000Y-94000000D01*
X67060000Y-93325700D02*
X38674300Y-93325700D01*
X67060000Y-91220000D02*
X67060000Y-93325700D01*
X104080000Y-43886800D02*
X104080000Y-43000000D01*
X107693200Y-47500000D02*
X104080000Y-43886800D01*
X168160000Y-47500000D02*
X107693200Y-47500000D01*
D27*
%TO.N,VCC*%
X106580000Y-37727500D02*
X106580000Y-43000000D01*
X106615000Y-37692500D02*
X106580000Y-37727500D01*
D26*
%TO.N,Net-(Q1-G)*%
X68680000Y-64000000D02*
X68680000Y-57180000D01*
X68680000Y-57180000D02*
X68500000Y-57000000D01*
D27*
%TO.N,Net-(D1-A)*%
X71040000Y-57000000D02*
X71040000Y-50200000D01*
X71040000Y-50200000D02*
X75740000Y-45500000D01*
%TO.N,GND*%
X73580000Y-57000000D02*
X90080000Y-57000000D01*
X90080000Y-57000000D02*
X104080000Y-43000000D01*
%TO.N,VCC*%
X108410000Y-30000000D02*
X108410000Y-30590000D01*
X108410000Y-30590000D02*
X106615000Y-32385000D01*
X106615000Y-32385000D02*
X106615000Y-43000000D01*
%TO.N,GND*%
X104080000Y-43000000D02*
X104080000Y-30750000D01*
D26*
X104080000Y-30750000D02*
X103330000Y-30000000D01*
D27*
%TO.N,Net-(D1-A)*%
X72620000Y-30000000D02*
X72620000Y-42380000D01*
X72620000Y-42380000D02*
X75740000Y-45500000D01*
%TO.N,VCC*%
X67540000Y-30000000D02*
X67540000Y-43540000D01*
X67540000Y-43540000D02*
X65580000Y-45500000D01*
%TO.N,Net-(D13-K)*%
X47620000Y-30500000D02*
X45120000Y-33000000D01*
X45120000Y-33000000D02*
X45120000Y-55500000D01*
%TO.N,VCC*%
X67540000Y-30000000D02*
X70675000Y-26865000D01*
X70675000Y-26865000D02*
X107396320Y-26865000D01*
X108410000Y-27878680D02*
X108410000Y-30000000D01*
X107396320Y-26865000D02*
X108410000Y-27878680D01*
X42540000Y-30500000D02*
X45675000Y-27365000D01*
X45675000Y-27365000D02*
X64905000Y-27365000D01*
X64905000Y-27365000D02*
X67540000Y-30000000D01*
%TD*%
M02*
